{"glyphs":{"0":{"ha":833,"x_min":157,"x_max":676,"o":"m 676 488 l 676 349 q 604 82 676 185 q 417 -21 532 -21 q 229 82 301 -21 q 157 349 157 185 l 157 488 q 229 756 157 653 q 417 858 301 858 q 604 756 532 858 q 676 488 676 653 m 417 801 q 268 706 322 801 q 214 481 214 611 l 214 357 q 270 128 214 221 q 417 36 326 36 q 565 131 511 36 q 619 357 619 226 l 619 481 q 563 709 619 617 q 417 801 507 801 z "},"1":{"ha":833,"x_min":157,"x_max":676,"o":"m 446 850 l 446 57 l 639 57 q 676 29 676 57 q 639 0 676 0 l 196 0 q 157 29 157 0 q 196 57 157 57 l 389 57 l 389 775 l 232 618 q 203 607 221 607 q 184 616 192 607 q 176 639 176 625 q 192 667 176 651 l 375 850 l 446 850 z "},"2":{"ha":833,"x_min":117,"x_max":664,"o":"m 144 653 q 220 787 144 715 q 403 858 296 858 q 581 786 504 858 q 658 619 658 714 q 622 502 658 557 q 458 329 585 447 l 171 61 l 171 57 l 607 57 l 607 107 q 636 144 607 144 q 664 107 664 144 l 664 0 l 117 0 l 117 83 l 444 392 q 572 531 542 488 q 601 621 601 574 q 542 747 601 693 q 403 801 482 801 q 274 760 332 801 q 200 656 217 718 q 171 628 192 628 q 153 635 161 628 q 144 653 144 643 z "},"3":{"ha":833,"x_min":133,"x_max":693,"o":"m 174 733 q 201 776 174 749 q 288 831 228 804 q 418 858 347 858 q 592 797 522 858 q 663 644 663 735 q 617 517 663 564 q 519 456 572 469 q 647 363 601 422 q 693 233 693 304 q 608 53 693 128 q 403 -21 522 -21 q 227 20 321 -21 q 133 96 133 61 q 142 114 133 106 q 160 122 150 122 q 199 101 169 122 q 282 58 228 79 q 404 36 336 36 q 567 94 499 36 q 636 233 636 153 q 563 374 636 315 q 388 433 489 433 q 350 463 350 433 q 388 490 350 490 q 606 643 606 490 q 551 756 606 711 q 417 801 497 801 q 317 787 358 801 q 260 754 276 772 q 229 722 244 736 q 201 707 214 707 q 182 715 190 707 q 174 733 174 722 z "},"4":{"ha":833,"x_min":146,"x_max":664,"o":"m 522 235 l 146 235 l 146 300 l 463 839 l 579 839 l 579 292 l 626 292 q 664 263 664 292 q 626 235 664 235 l 579 235 l 579 57 l 626 57 q 664 29 664 57 q 626 0 664 0 l 417 0 q 379 29 379 0 q 417 57 379 57 l 522 57 l 522 235 m 522 292 l 522 782 l 489 782 l 200 292 l 522 292 z "},"5":{"ha":833,"x_min":133,"x_max":693,"o":"m 439 492 q 342 478 385 492 q 272 449 299 464 q 233 435 246 435 q 207 465 207 435 l 207 839 l 599 839 q 638 811 638 839 q 599 782 638 782 l 264 782 l 264 507 q 447 549 365 549 q 624 472 554 549 q 693 279 693 396 q 613 63 693 147 q 410 -21 533 -21 q 302 -4 356 -21 q 213 35 249 13 q 156 81 178 58 q 133 114 133 103 q 142 133 133 125 q 161 142 150 142 q 200 115 171 142 q 283 63 229 89 q 407 36 338 36 q 572 104 508 36 q 636 282 636 172 q 581 433 636 375 q 439 492 526 492 z "},"6":{"ha":833,"x_min":189,"x_max":708,"o":"m 678 782 q 651 792 674 782 q 589 801 628 801 q 475 776 533 801 q 364 703 417 750 q 277 575 311 656 q 243 396 243 494 q 246 336 243 389 q 476 506 331 506 q 640 429 571 506 q 708 247 708 353 q 639 57 708 135 q 468 -21 569 -21 q 267 94 344 -21 q 189 392 189 210 q 306 728 189 599 q 594 858 424 858 q 672 844 639 858 q 704 810 704 829 q 697 790 704 799 q 678 782 689 782 m 254 261 q 335 92 283 149 q 469 36 386 36 q 599 97 547 36 q 651 247 651 158 q 599 389 651 329 q 475 449 547 449 q 406 432 440 449 q 351 398 372 415 q 306 347 331 381 q 276 301 282 313 q 254 261 269 290 z "},"7":{"ha":833,"x_min":146,"x_max":664,"o":"m 607 757 l 607 782 l 203 782 l 203 733 q 175 694 203 694 q 146 733 146 694 l 146 839 l 664 839 l 664 749 l 438 28 q 410 -1 428 -1 q 390 7 399 -1 q 382 26 382 15 q 385 44 382 33 l 607 757 z "},"8":{"ha":833,"x_min":157,"x_max":676,"o":"m 521 435 q 676 224 676 364 q 600 51 676 122 q 417 -21 524 -21 q 233 51 310 -21 q 157 224 157 122 q 313 435 157 363 q 171 629 171 507 q 244 790 171 722 q 417 858 317 858 q 590 790 517 858 q 663 629 663 722 q 521 435 663 507 m 551 750 q 523 776 551 750 q 417 801 496 801 q 283 751 338 801 q 228 626 228 700 q 283 510 228 558 q 417 463 338 463 q 550 510 494 463 q 606 625 606 557 q 551 750 606 699 m 417 407 q 273 354 332 407 q 214 224 214 301 q 273 91 214 146 q 417 36 332 36 q 560 91 500 36 q 619 222 619 146 q 561 354 619 301 q 417 407 503 407 z "},"9":{"ha":833,"x_min":189,"x_max":708,"o":"m 219 56 q 247 46 224 56 q 308 36 269 36 q 422 62 364 36 q 533 135 481 88 q 620 263 586 182 q 654 442 654 343 q 651 501 654 449 q 421 332 567 332 q 258 408 326 332 q 189 590 189 485 q 258 781 189 703 q 429 858 328 858 q 631 743 553 858 q 708 446 708 628 q 591 109 708 239 q 303 -21 474 -21 q 226 -6 258 -21 q 193 28 193 8 q 201 47 193 39 q 219 56 208 56 m 643 576 q 563 745 614 689 q 428 801 511 801 q 298 740 350 801 q 246 590 246 679 q 298 449 246 508 q 422 389 350 389 q 491 406 457 389 q 546 440 525 422 q 591 491 567 457 q 622 536 615 525 q 643 576 628 547 z "}," ":{"ha":833,"x_min":0,"x_max":0,"o":""},"!":{"ha":833,"x_min":333,"x_max":500,"o":"m 469 782 l 444 329 q 415 290 442 290 q 388 329 390 290 l 363 782 q 362 793 363 785 q 361 804 361 801 q 377 843 361 828 q 417 858 393 858 q 455 843 439 858 q 471 804 471 828 q 471 800 471 803 q 470 792 471 797 q 469 782 469 786 m 407 118 l 425 118 q 478 98 457 118 q 500 49 500 78 q 478 -1 500 19 q 425 -21 457 -21 l 407 -21 q 355 -1 376 -21 q 333 49 333 19 q 355 98 333 78 q 407 118 376 118 z "},"\"":{"ha":833,"x_min":203,"x_max":631,"o":"m 203 839 l 381 839 l 333 488 q 292 438 328 438 q 250 488 256 438 l 203 839 m 453 839 l 631 839 l 583 488 q 542 438 578 438 q 500 488 506 438 l 453 839 z "},"#":{"ha":833,"x_min":128,"x_max":706,"o":"m 446 -50 l 468 263 l 342 263 l 321 -50 q 292 -86 317 -86 q 272 -78 281 -86 q 264 -57 264 -69 q 264 -46 264 -50 l 286 263 l 165 263 q 128 292 128 263 q 165 319 128 319 l 289 319 l 301 494 l 193 494 q 156 524 156 494 q 193 551 156 551 l 306 551 l 328 864 q 357 899 331 899 q 383 864 383 899 q 383 860 383 863 l 363 551 l 489 551 l 511 864 q 539 899 513 899 q 567 864 567 899 q 567 860 567 861 l 544 551 l 668 551 q 706 524 706 551 q 668 494 706 494 l 542 494 l 529 319 l 640 319 q 678 292 678 319 q 640 263 678 263 l 525 263 l 503 -50 q 474 -86 501 -86 q 455 -78 464 -86 q 446 -61 446 -69 q 446 -50 446 -56 m 485 494 l 358 494 l 346 319 l 472 319 l 485 494 z "},"$":{"ha":833,"x_min":157,"x_max":676,"o":"m 619 279 q 588 360 619 329 q 508 401 556 390 q 404 424 460 411 q 301 452 349 438 q 221 505 253 467 q 189 604 189 543 q 245 735 189 679 q 389 800 301 790 l 389 872 q 418 910 389 910 q 446 872 446 910 l 446 800 q 522 783 492 796 q 590 742 553 771 q 619 782 593 782 q 647 744 647 782 l 647 661 q 619 624 647 624 q 590 654 594 624 q 534 719 585 692 q 419 747 483 747 q 297 705 347 747 q 246 603 246 663 q 278 528 246 557 q 358 491 310 500 q 461 469 406 482 q 565 441 517 456 q 644 385 613 426 q 676 279 676 343 q 614 142 676 197 q 446 75 551 86 l 446 -90 q 418 -128 446 -128 q 389 -90 389 -128 l 389 75 q 290 99 340 78 q 214 150 240 119 l 214 128 q 186 90 214 90 q 157 128 157 90 l 157 238 q 186 275 157 275 q 214 240 210 275 q 278 163 218 196 q 415 129 339 129 q 562 172 504 129 q 619 279 619 214 z "},"%":{"ha":833,"x_min":121,"x_max":713,"o":"m 501 328 q 623 277 574 328 q 672 153 672 226 q 622 33 672 83 q 503 -17 572 -17 q 382 34 432 -17 q 332 156 332 85 q 382 277 332 226 q 501 328 432 328 m 501 275 q 419 240 453 275 q 385 156 385 206 q 419 72 385 107 q 503 36 454 36 q 585 71 550 36 q 619 154 619 106 q 585 240 619 206 q 501 275 551 275 m 329 849 q 451 799 401 849 q 500 675 500 749 q 450 555 500 606 q 331 504 400 504 q 210 555 260 504 q 160 676 160 606 q 210 798 160 747 q 329 849 260 849 m 329 796 q 247 760 282 796 q 213 676 213 725 q 247 592 213 628 q 331 557 282 557 q 413 592 378 557 q 447 675 447 628 q 413 761 447 726 q 329 796 379 796 m 688 478 l 161 308 q 144 304 150 304 q 128 313 136 304 q 121 331 121 321 q 146 358 121 350 l 672 528 q 689 531 683 531 q 706 523 699 531 q 713 504 713 515 q 688 478 713 486 z "},"&":{"ha":833,"x_min":146,"x_max":664,"o":"m 546 0 l 503 67 q 347 -22 440 -22 q 206 43 265 -22 q 146 197 146 108 q 187 323 146 269 q 300 399 228 376 q 242 500 253 475 q 231 556 231 525 q 281 672 231 624 q 401 721 332 721 q 493 693 447 721 q 529 708 519 708 q 547 699 539 708 q 556 679 556 690 q 533 650 556 663 l 489 628 q 401 664 447 664 q 322 630 357 664 q 288 553 288 596 q 349 414 288 510 l 503 168 q 567 346 546 249 l 626 346 q 664 318 664 346 q 626 289 664 289 l 610 289 q 536 114 579 174 l 574 57 l 626 57 q 664 29 664 57 q 626 0 664 0 l 546 0 m 469 119 l 324 349 q 235 295 268 336 q 203 197 203 254 q 246 83 203 132 q 346 35 289 35 q 469 119 422 35 z "},"'":{"ha":833,"x_min":328,"x_max":506,"o":"m 328 839 l 506 839 l 458 488 q 417 438 451 438 q 375 488 382 438 l 328 839 z "},"(":{"ha":833,"x_min":408,"x_max":636,"o":"m 408 338 q 451 563 408 440 q 540 763 493 686 q 608 839 588 839 q 628 831 619 839 q 636 811 636 822 q 614 755 636 796 q 565 665 592 714 q 515 525 538 615 q 493 333 493 435 q 632 -129 493 121 q 636 -144 636 -139 q 627 -164 636 -156 q 607 -172 618 -172 q 538 -97 585 -172 q 450 104 492 -21 q 408 338 408 229 z "},")":{"ha":833,"x_min":204,"x_max":432,"o":"m 204 -144 q 226 -88 204 -129 q 276 2 249 -47 q 325 142 303 51 q 347 333 347 232 q 208 796 347 547 q 204 811 204 806 q 213 831 204 822 q 233 839 222 839 q 302 763 256 839 q 390 563 349 688 q 432 329 432 438 q 390 103 432 226 q 300 -96 347 -19 q 232 -172 253 -172 q 213 -164 221 -172 q 204 -144 204 -156 z "},"*":{"ha":833,"x_min":157,"x_max":676,"o":"m 388 608 l 388 801 q 417 839 388 839 q 444 801 444 839 l 444 608 l 629 668 q 650 672 639 672 q 668 664 660 672 q 676 644 676 656 q 647 614 676 624 l 463 556 l 575 400 q 585 375 585 383 q 576 356 585 364 q 557 347 568 347 q 529 367 543 347 l 415 522 l 303 367 q 274 347 288 347 q 254 356 263 347 q 246 376 246 364 q 257 400 246 385 l 369 556 l 185 614 q 157 643 157 621 q 165 663 157 654 q 185 671 174 671 q 203 667 189 671 l 388 608 z "},"+":{"ha":833,"x_min":100,"x_max":733,"o":"m 444 363 l 444 82 q 417 44 444 44 q 388 82 388 44 l 388 363 l 138 363 q 100 392 100 363 q 138 419 100 419 l 388 419 l 388 699 q 417 736 388 736 q 444 699 444 736 l 444 419 l 694 419 q 733 392 733 419 q 694 363 733 363 l 444 363 z "},",":{"ha":833,"x_min":188,"x_max":472,"o":"m 288 201 l 472 201 l 271 -167 q 228 -201 253 -201 q 199 -190 211 -201 q 188 -161 188 -178 q 190 -146 188 -157 l 288 201 z "},"-":{"ha":833,"x_min":100,"x_max":733,"o":"m 696 358 l 138 358 q 100 388 100 358 q 138 415 100 415 l 696 415 q 733 388 733 415 q 696 358 733 358 z "},".":{"ha":833,"x_min":314,"x_max":519,"o":"m 410 161 l 424 161 q 492 135 464 161 q 519 71 519 110 q 492 6 519 32 q 424 -21 464 -21 l 410 -21 q 342 6 369 -21 q 314 71 314 32 q 342 135 314 110 q 410 161 369 161 z "},"/":{"ha":833,"x_min":157,"x_max":676,"o":"m 669 879 l 215 -87 q 185 -112 203 -112 q 165 -104 174 -112 q 157 -86 157 -96 q 164 -64 157 -79 l 618 903 q 649 928 629 928 q 668 919 660 928 q 676 901 676 911 q 669 879 676 893 z "},":":{"ha":833,"x_min":314,"x_max":519,"o":"m 410 161 l 424 161 q 492 135 464 161 q 519 71 519 110 q 492 6 519 32 q 424 -21 464 -21 l 410 -21 q 342 6 369 -21 q 314 71 314 32 q 342 135 314 110 q 410 161 369 161 m 410 579 l 424 579 q 492 553 464 579 q 519 488 519 526 q 492 422 519 449 q 424 396 464 396 l 410 396 q 342 422 369 396 q 314 488 314 449 q 342 553 314 526 q 410 579 369 579 z "},";":{"ha":833,"x_min":193,"x_max":486,"o":"m 293 201 l 478 201 l 276 -167 q 233 -201 258 -201 q 205 -190 217 -201 q 193 -161 193 -178 q 196 -146 193 -157 l 293 201 m 376 579 l 390 579 q 458 553 431 579 q 486 488 486 526 q 458 422 486 449 q 390 396 431 396 l 376 396 q 308 422 336 396 q 281 488 281 449 q 308 553 281 526 q 376 579 336 579 z "},"<":{"ha":833,"x_min":100,"x_max":725,"o":"m 725 93 q 717 72 725 83 q 697 61 708 61 q 679 68 690 61 l 100 390 l 681 713 q 697 719 692 719 q 716 710 707 719 q 725 689 725 700 q 707 664 725 674 l 214 390 l 707 117 q 725 93 725 107 z "},"=":{"ha":833,"x_min":71,"x_max":763,"o":"m 725 464 l 108 464 q 71 493 71 464 q 108 521 71 521 l 725 521 q 763 493 763 521 q 725 464 763 464 m 725 264 l 108 264 q 71 293 71 264 q 108 321 71 321 l 725 321 q 763 293 763 321 q 725 264 763 264 z "},">":{"ha":833,"x_min":108,"x_max":733,"o":"m 108 689 q 116 708 108 696 q 136 719 124 719 q 154 713 143 719 l 733 390 l 153 68 q 136 61 142 61 q 117 71 125 61 q 108 93 108 81 q 126 117 108 107 l 619 390 l 126 664 q 108 689 108 674 z "},"?":{"ha":833,"x_min":186,"x_max":676,"o":"m 186 735 q 243 759 200 739 q 330 790 286 779 q 429 801 374 801 q 608 742 540 801 q 676 588 676 683 q 627 457 676 510 q 447 343 578 404 l 447 286 q 419 249 447 249 q 390 286 390 249 l 390 381 q 566 480 513 432 q 619 588 619 528 q 564 701 619 657 q 422 744 508 744 q 243 697 338 744 l 243 640 q 215 603 243 603 q 186 640 186 603 l 186 735 m 399 118 l 436 118 q 494 99 472 118 q 515 49 515 79 q 493 -1 515 18 q 436 -21 471 -21 l 399 -21 q 341 -1 363 -21 q 319 49 319 18 q 341 99 319 79 q 399 118 363 118 z "},"@":{"ha":833,"x_min":146,"x_max":664,"o":"m 415 -86 q 220 17 294 -86 q 146 275 146 121 l 146 501 q 222 763 146 660 q 417 867 299 867 q 574 803 511 867 q 638 643 638 739 l 638 258 q 664 231 664 254 q 626 201 664 201 l 581 201 l 581 208 q 525 204 539 204 q 390 254 444 204 q 336 378 336 304 q 403 520 336 463 q 581 578 471 578 l 581 643 q 535 763 581 715 q 418 810 489 810 q 263 722 324 810 q 203 497 203 635 l 203 275 q 263 58 203 146 q 424 -29 322 -29 q 519 -15 482 -29 q 572 14 556 0 q 596 28 588 28 q 615 20 607 28 q 624 1 624 13 q 558 -58 624 -31 q 415 -86 492 -86 m 581 267 l 581 522 q 446 482 499 522 q 393 379 393 442 q 431 294 393 326 q 529 261 469 261 q 581 267 558 261 z "},"A":{"ha":833,"x_min":13,"x_max":821,"o":"m 594 261 l 225 261 l 150 57 l 260 57 q 297 29 297 57 q 260 0 297 0 l 50 0 q 13 29 13 0 q 50 57 13 57 l 93 57 l 342 725 l 175 725 q 138 754 138 725 q 175 782 138 782 l 458 782 l 732 57 l 783 57 q 821 29 821 57 q 783 0 821 0 l 567 0 q 529 29 529 0 q 567 57 529 57 l 672 57 l 594 261 m 574 318 l 418 725 l 397 725 l 247 318 l 574 318 z "},"B":{"ha":833,"x_min":60,"x_max":751,"o":"m 172 57 l 172 725 l 97 725 q 60 754 60 725 q 97 782 60 782 l 456 782 q 625 724 557 782 q 693 581 693 667 q 575 414 693 478 q 751 213 751 351 q 684 63 751 125 q 522 0 617 0 l 97 0 q 60 29 60 0 q 97 57 60 57 l 172 57 m 229 435 l 433 435 q 579 476 522 435 q 636 582 636 518 q 585 684 636 643 q 457 725 533 725 l 229 725 l 229 435 m 694 213 q 683 268 694 242 q 644 320 671 294 q 565 362 618 346 q 436 378 511 378 l 229 378 l 229 57 l 518 57 q 643 102 592 57 q 694 213 694 147 z "},"C":{"ha":833,"x_min":88,"x_max":742,"o":"m 88 451 q 95 516 88 478 q 126 606 103 554 q 185 699 150 657 q 282 770 219 740 q 424 800 344 800 q 664 704 564 800 l 664 744 q 693 782 664 782 q 721 744 721 782 l 721 589 q 692 551 721 551 q 664 585 667 551 q 588 696 660 649 q 424 743 517 743 q 226 655 308 743 q 144 443 144 567 l 144 344 q 235 127 144 219 q 447 35 325 35 q 576 64 519 35 q 689 160 633 93 q 714 174 701 174 q 742 147 742 174 q 719 108 742 135 q 661 52 697 82 q 567 0 625 22 q 447 -22 508 -22 q 197 87 306 -22 q 88 336 88 196 l 88 451 z "},"D":{"ha":833,"x_min":60,"x_max":722,"o":"m 144 57 l 144 725 l 97 725 q 60 754 60 725 q 97 782 60 782 l 403 782 q 630 680 538 782 q 722 431 722 578 l 722 353 q 630 102 722 204 q 403 0 538 0 l 97 0 q 60 29 60 0 q 97 57 60 57 l 144 57 m 665 442 q 653 511 665 469 q 613 603 640 553 q 530 690 586 654 q 400 725 474 725 l 201 725 l 201 57 l 410 57 q 588 143 510 57 q 665 340 665 229 l 665 442 z "},"E":{"ha":833,"x_min":60,"x_max":722,"o":"m 229 378 l 229 57 l 665 57 l 665 222 q 694 260 665 260 q 722 222 722 260 l 722 0 l 97 0 q 60 29 60 0 q 97 57 60 57 l 172 57 l 172 725 l 97 725 q 60 754 60 725 q 97 782 60 782 l 693 782 l 693 589 q 664 551 693 551 q 636 589 636 551 l 636 725 l 229 725 l 229 435 l 431 435 l 431 497 q 460 535 431 535 q 488 497 488 535 l 488 315 q 460 278 488 278 q 431 315 431 278 l 431 378 l 229 378 z "},"F":{"ha":833,"x_min":60,"x_max":722,"o":"m 229 378 l 229 57 l 421 57 q 460 29 460 57 q 421 0 460 0 l 97 0 q 60 29 60 0 q 97 57 60 57 l 172 57 l 172 725 l 97 725 q 60 754 60 725 q 97 782 60 782 l 722 782 l 722 589 q 693 551 722 551 q 665 589 665 551 l 665 725 l 229 725 l 229 435 l 431 435 l 431 497 q 458 535 431 535 q 488 497 488 535 l 488 315 q 458 278 488 278 q 431 315 431 278 l 431 378 l 229 378 z "},"G":{"ha":833,"x_min":88,"x_max":781,"o":"m 438 743 q 289 706 351 743 q 198 614 226 668 q 157 515 169 560 q 144 440 144 471 l 144 339 q 231 116 144 197 q 467 35 317 35 q 665 82 564 35 l 665 290 l 472 290 q 435 319 435 290 q 472 347 435 347 l 742 347 q 781 319 781 347 q 742 290 781 290 l 722 290 l 722 50 q 463 -22 597 -22 q 190 76 292 -22 q 88 339 88 175 l 88 442 q 185 694 88 588 q 435 800 283 800 q 665 725 572 800 l 665 744 q 694 782 665 782 q 722 744 722 782 l 722 618 q 694 581 722 581 q 667 615 668 581 q 596 706 663 668 q 438 743 529 743 z "},"H":{"ha":833,"x_min":74,"x_max":765,"o":"m 607 378 l 232 378 l 232 57 l 307 57 q 344 29 344 57 q 307 0 344 0 l 113 0 q 74 29 74 0 q 113 57 74 57 l 175 57 l 175 725 l 140 725 q 103 754 103 725 q 140 782 103 782 l 307 782 q 344 754 344 782 q 307 725 344 725 l 232 725 l 232 435 l 607 435 l 607 725 l 532 725 q 494 754 494 725 q 532 782 494 782 l 699 782 q 736 754 736 782 q 699 725 736 725 l 664 725 l 664 57 l 728 57 q 765 29 765 57 q 728 0 765 0 l 532 0 q 494 29 494 0 q 532 57 494 57 l 607 57 l 607 378 z "},"I":{"ha":833,"x_min":157,"x_max":676,"o":"m 444 725 l 444 57 l 638 57 q 676 29 676 57 q 638 0 676 0 l 194 0 q 157 29 157 0 q 194 57 157 57 l 388 57 l 388 725 l 194 725 q 157 754 157 725 q 194 782 157 782 l 638 782 q 676 754 676 782 q 638 725 676 725 l 444 725 z "},"J":{"ha":833,"x_min":117,"x_max":810,"o":"m 639 725 l 639 229 q 562 52 639 126 q 378 -22 485 -22 q 251 6 311 -22 q 117 103 192 35 l 117 310 q 146 347 117 347 q 174 310 174 347 l 174 129 q 379 35 278 35 q 523 92 464 35 q 582 229 582 149 l 582 725 l 361 725 q 324 754 324 725 q 361 782 324 782 l 772 782 q 810 754 810 782 q 772 725 810 725 l 639 725 z "},"K":{"ha":833,"x_min":60,"x_max":794,"o":"m 229 307 l 229 57 l 333 57 q 371 29 371 57 q 333 0 371 0 l 97 0 q 60 29 60 0 q 97 57 60 57 l 172 57 l 172 725 l 97 725 q 60 754 60 725 q 97 782 60 782 l 333 782 q 371 754 371 782 q 333 725 371 725 l 229 725 l 229 379 l 618 725 l 556 725 q 517 754 517 725 q 556 782 517 782 l 719 782 q 758 754 758 782 q 719 725 758 725 l 697 725 l 389 450 q 546 333 490 408 q 679 57 601 257 l 757 57 q 794 29 794 57 q 757 0 794 0 l 636 0 q 500 294 560 211 q 342 408 440 376 l 229 307 z "},"L":{"ha":833,"x_min":88,"x_max":751,"o":"m 315 725 l 315 57 l 694 57 l 694 279 q 724 317 694 317 q 751 279 751 317 l 751 0 l 125 0 q 88 29 88 0 q 125 57 88 57 l 258 57 l 258 725 l 125 725 q 88 754 88 725 q 125 782 88 782 l 449 782 q 486 754 486 782 q 449 725 486 725 l 315 725 z "},"M":{"ha":833,"x_min":15,"x_max":824,"o":"m 453 235 l 389 235 l 168 725 l 157 725 l 157 57 l 260 57 q 299 29 299 57 q 260 0 299 0 l 53 0 q 15 29 15 0 q 53 57 15 57 l 100 57 l 100 725 l 65 725 q 28 754 28 725 q 65 782 28 782 l 203 782 l 421 299 l 635 782 l 774 782 q 811 754 811 782 q 774 725 811 725 l 739 725 l 739 57 l 786 57 q 824 29 824 57 q 786 0 824 0 l 579 0 q 542 29 542 0 q 579 57 542 57 l 682 57 l 682 725 l 671 725 l 453 235 z "},"N":{"ha":833,"x_min":31,"x_max":781,"o":"m 696 0 l 624 0 l 200 700 l 200 57 l 304 57 q 342 29 342 57 q 304 0 342 0 l 96 0 q 58 29 58 0 q 96 57 58 57 l 143 57 l 143 725 l 68 725 q 31 754 31 725 q 68 782 31 782 l 215 782 l 639 82 l 639 725 l 536 725 q 497 754 497 725 q 536 782 497 782 l 743 782 q 781 754 781 782 q 743 725 781 725 l 696 725 l 696 0 z "},"O":{"ha":833,"x_min":71,"x_max":763,"o":"m 417 800 q 663 680 564 800 q 763 383 763 560 q 661 97 763 215 q 417 -22 560 -22 q 172 97 272 -22 q 71 389 71 217 q 172 681 71 561 q 417 800 272 800 m 417 743 q 213 639 297 743 q 128 389 128 535 q 213 139 128 243 q 417 35 297 35 q 620 138 535 35 q 706 385 706 242 q 622 639 706 535 q 417 743 538 743 z "},"P":{"ha":833,"x_min":60,"x_max":693,"o":"m 229 321 l 229 57 l 421 57 q 460 29 460 57 q 421 0 460 0 l 97 0 q 60 29 60 0 q 97 57 60 57 l 172 57 l 172 725 l 97 725 q 60 754 60 725 q 97 782 60 782 l 431 782 q 617 716 542 782 q 693 553 693 650 q 611 388 693 456 q 411 321 529 321 l 229 321 m 229 378 l 415 378 q 571 429 506 378 q 636 553 636 481 q 577 674 636 624 q 436 725 518 725 l 229 725 l 229 378 z "},"Q":{"ha":833,"x_min":71,"x_max":763,"o":"m 442 -124 q 309 -141 375 -124 q 233 -158 243 -158 q 214 -150 222 -158 q 206 -129 206 -142 q 221 -104 206 -115 l 346 -14 q 149 127 228 13 q 71 389 71 242 q 172 681 71 561 q 417 800 272 800 q 662 681 561 800 q 763 389 763 561 q 665 100 763 218 q 424 -22 568 -18 l 349 -78 q 442 -67 404 -67 q 549 -85 500 -67 q 618 -103 599 -103 q 688 -81 651 -103 q 731 -60 725 -60 q 750 -68 742 -60 q 758 -89 758 -76 q 708 -135 758 -110 q 614 -160 657 -160 q 537 -142 585 -160 q 442 -124 489 -124 m 417 743 q 213 639 297 743 q 128 389 128 535 q 213 139 128 243 q 417 35 297 35 q 620 138 535 35 q 706 385 706 242 q 622 639 706 535 q 417 743 538 743 z "},"R":{"ha":833,"x_min":60,"x_max":818,"o":"m 229 349 l 229 57 l 333 57 q 371 29 371 57 q 333 0 371 0 l 97 0 q 60 29 60 0 q 97 57 60 57 l 172 57 l 172 725 l 97 725 q 60 754 60 725 q 97 782 60 782 l 442 782 q 617 717 543 782 q 692 565 692 653 q 499 364 692 431 q 608 263 564 319 q 738 57 653 206 l 781 57 q 818 29 818 57 q 781 0 818 0 l 701 0 q 551 241 610 169 q 413 349 492 313 l 229 349 m 229 406 l 388 406 q 563 453 490 406 q 635 567 635 500 q 576 677 635 629 q 442 725 517 725 l 229 725 l 229 406 z "},"S":{"ha":833,"x_min":128,"x_max":706,"o":"m 644 213 q 608 307 644 271 q 519 355 572 343 q 402 381 465 367 q 285 412 339 396 q 196 472 232 428 q 160 585 160 515 q 233 738 160 676 q 415 800 306 800 q 618 718 535 800 l 618 744 q 647 782 618 782 q 675 744 675 782 l 675 601 q 647 564 675 564 q 618 597 619 564 q 557 701 614 660 q 419 743 500 743 q 277 697 333 743 q 221 583 221 651 q 257 496 221 529 q 347 451 293 463 q 463 423 400 439 q 580 390 526 407 q 669 327 633 374 q 706 210 706 281 q 625 43 706 108 q 419 -22 544 -22 q 185 78 272 -22 l 185 38 q 156 0 185 0 q 128 38 128 0 l 128 193 q 157 231 128 231 q 185 197 183 231 q 256 82 188 129 q 418 35 324 35 q 580 85 515 35 q 644 213 644 136 z "},"T":{"ha":833,"x_min":100,"x_max":733,"o":"m 446 57 l 592 57 q 629 29 629 57 q 592 0 629 0 l 243 0 q 206 29 206 0 q 243 57 206 57 l 389 57 l 389 725 l 157 725 l 157 624 q 128 586 157 586 q 100 624 100 586 l 100 782 l 733 782 l 733 624 q 706 586 733 586 q 685 597 693 586 q 676 624 676 607 l 676 725 l 446 725 l 446 57 z "},"U":{"ha":833,"x_min":56,"x_max":778,"o":"m 693 725 l 693 257 q 613 58 693 139 q 417 -22 533 -22 q 219 58 299 -22 q 140 257 140 138 l 140 725 l 93 725 q 56 754 56 725 q 93 782 56 782 l 300 782 q 338 754 338 782 q 300 725 338 725 l 197 725 l 197 257 q 260 99 197 163 q 417 35 324 35 q 572 99 508 35 q 636 257 636 164 l 636 725 l 533 725 q 496 754 496 725 q 533 782 496 782 l 740 782 q 778 754 778 782 q 740 725 778 725 l 693 725 z "},"V":{"ha":833,"x_min":13,"x_max":821,"o":"m 371 0 l 93 725 l 50 725 q 13 754 13 725 q 50 782 13 782 l 260 782 q 297 754 297 782 q 260 725 297 725 l 153 725 l 411 57 l 415 57 l 683 725 l 575 725 q 538 754 538 725 q 575 782 538 782 l 783 782 q 821 754 821 782 q 783 725 821 725 l 740 725 l 450 0 l 371 0 z "},"W":{"ha":833,"x_min":28,"x_max":806,"o":"m 169 0 l 86 725 l 65 725 q 28 754 28 725 q 65 782 28 782 l 272 782 q 311 754 311 782 q 272 725 311 725 l 143 725 l 221 64 l 376 608 l 463 608 l 614 64 l 693 725 l 560 725 q 522 754 522 725 q 560 782 522 782 l 768 782 q 806 754 806 782 q 768 725 806 725 l 747 725 l 661 0 l 572 0 l 417 556 l 257 0 l 169 0 z "},"X":{"ha":833,"x_min":56,"x_max":778,"o":"m 451 400 l 717 57 l 740 57 q 778 29 778 57 q 740 0 778 0 l 557 0 q 519 29 519 0 q 557 57 519 57 l 643 57 l 414 354 l 186 57 l 275 57 q 313 29 313 57 q 275 0 313 0 l 93 0 q 56 29 56 0 q 93 57 56 57 l 117 57 l 378 400 l 129 725 l 108 725 q 71 754 71 725 q 108 782 71 782 l 261 782 q 299 754 299 782 q 261 725 299 725 l 201 725 l 417 446 l 629 725 l 567 725 q 529 754 529 725 q 567 782 529 782 l 721 782 q 758 754 758 782 q 721 725 758 725 l 700 725 l 451 400 z "},"Y":{"ha":833,"x_min":71,"x_max":763,"o":"m 447 353 l 447 57 l 593 57 q 631 29 631 57 q 593 0 631 0 l 244 0 q 207 29 207 0 q 244 57 207 57 l 390 57 l 390 353 l 142 725 l 108 725 q 71 754 71 725 q 108 782 71 782 l 263 782 q 300 754 300 782 q 263 725 300 725 l 210 725 l 421 410 l 628 725 l 572 725 q 533 754 533 725 q 572 782 533 782 l 725 782 q 763 754 763 782 q 725 725 763 725 l 692 725 l 447 353 z "},"Z":{"ha":833,"x_min":143,"x_max":690,"o":"m 690 0 l 143 0 l 143 82 l 599 721 l 599 725 l 225 725 l 225 561 q 197 522 225 522 q 168 561 168 522 l 168 782 l 653 782 l 653 701 l 197 63 l 197 57 l 633 57 l 633 253 q 661 290 633 290 q 690 253 690 290 l 690 0 z "},"[":{"ha":833,"x_min":389,"x_max":618,"o":"m 446 782 l 446 -115 l 581 -115 q 618 -143 618 -115 q 581 -172 618 -172 l 389 -172 l 389 839 l 581 839 q 618 811 618 839 q 581 782 618 782 l 446 782 z "},"\\":{"ha":833,"x_min":157,"x_max":676,"o":"m 215 903 l 669 -64 q 676 -86 676 -76 q 668 -104 676 -96 q 649 -112 660 -112 q 618 -87 631 -112 l 164 879 q 157 901 157 893 q 166 919 157 911 q 186 928 175 928 q 215 903 203 928 z "},"]":{"ha":833,"x_min":215,"x_max":444,"o":"m 388 -115 l 388 782 l 253 782 q 215 810 215 782 q 253 839 215 839 l 444 839 l 444 -172 l 253 -172 q 215 -144 215 -172 q 253 -115 215 -115 l 388 -115 z "},"^":{"ha":833,"x_min":157,"x_max":676,"o":"m 417 854 l 664 544 q 676 519 676 531 q 668 500 676 508 q 649 492 660 492 q 621 510 635 492 l 417 767 l 213 510 q 185 492 200 492 q 165 500 174 492 q 157 519 157 508 q 169 544 157 531 l 417 854 z "},"_":{"ha":833,"x_min":0,"x_max":833,"o":"m 833 -104 l 833 -174 l 0 -174 l 0 -104 l 833 -104 z "},"`":{"ha":833,"x_min":215,"x_max":444,"o":"m 269 875 l 428 736 q 444 710 444 721 q 436 689 444 697 q 415 681 428 681 q 390 693 406 681 l 232 832 q 215 860 215 847 q 224 879 215 871 q 243 888 232 888 q 269 875 253 888 z "},"a":{"ha":833,"x_min":100,"x_max":751,"o":"m 174 525 q 268 577 174 556 q 415 599 363 599 q 576 550 513 599 q 639 428 639 501 l 639 57 l 714 57 q 751 29 751 57 q 714 0 751 0 l 582 0 l 582 93 q 317 -22 458 -22 q 160 27 219 -22 q 100 156 100 76 q 181 302 100 246 q 393 358 263 358 q 582 329 475 358 l 582 428 q 535 510 582 479 q 411 542 488 542 q 279 519 347 542 q 200 497 211 497 q 181 506 189 497 q 174 525 174 514 m 582 156 l 582 281 q 404 301 499 301 q 226 260 294 301 q 157 154 157 219 q 200 67 157 100 q 315 35 243 35 q 451 63 389 35 q 582 156 513 90 z "},"b":{"ha":833,"x_min":31,"x_max":751,"o":"m 200 839 l 200 456 q 450 599 301 599 q 664 510 576 599 q 751 292 751 421 q 663 69 751 161 q 450 -22 575 -22 q 200 122 297 -22 l 200 0 l 68 0 q 31 29 31 0 q 68 57 31 57 l 143 57 l 143 782 l 68 782 q 31 811 31 782 q 68 839 31 839 l 200 839 m 447 542 q 272 468 344 542 q 200 289 200 394 q 272 109 200 183 q 447 35 344 35 q 622 108 549 35 q 694 285 694 182 q 623 467 694 393 q 447 542 551 542 z "},"c":{"ha":833,"x_min":117,"x_max":743,"o":"m 743 122 q 719 87 743 110 q 658 39 696 64 q 557 -4 619 14 q 429 -22 494 -22 q 205 64 293 -22 q 117 283 117 150 q 207 510 117 421 q 436 599 297 599 q 653 522 565 599 l 653 540 q 682 579 653 579 q 710 540 710 579 l 710 414 q 682 376 710 376 q 653 410 657 376 q 584 503 649 465 q 432 542 519 542 q 245 470 317 542 q 174 285 174 399 q 246 105 174 175 q 432 35 318 35 q 692 135 583 35 q 717 149 706 149 q 735 141 728 149 q 743 122 743 133 z "},"d":{"ha":833,"x_min":88,"x_max":810,"o":"m 697 839 l 697 57 l 772 57 q 810 29 810 57 q 772 0 810 0 l 640 0 l 640 124 q 388 -22 542 -22 q 176 69 264 -22 q 88 289 88 161 q 176 508 88 417 q 388 599 264 599 q 640 454 540 599 l 640 782 l 565 782 q 528 811 528 782 q 565 839 528 839 l 697 839 m 392 542 q 217 468 289 542 q 144 289 144 394 q 217 108 144 182 q 393 35 289 35 q 568 108 496 35 q 640 286 640 182 q 569 468 640 394 q 392 542 497 542 z "},"e":{"ha":833,"x_min":88,"x_max":722,"o":"m 722 276 l 144 276 q 236 101 160 167 q 425 35 313 35 q 558 56 490 35 q 668 110 626 76 q 690 119 682 119 q 709 111 701 119 q 717 92 717 103 q 617 17 717 56 q 424 -22 518 -22 q 185 72 283 -22 q 88 301 88 167 q 179 513 88 428 q 404 599 271 599 q 633 510 544 599 q 722 276 722 422 m 144 333 l 664 333 q 576 485 647 428 q 404 542 506 542 q 233 485 303 542 q 144 333 164 429 z "},"f":{"ha":833,"x_min":146,"x_max":751,"o":"m 722 765 q 688 769 719 765 q 610 778 656 774 q 531 782 565 782 q 419 749 463 782 q 376 664 376 717 l 376 579 l 639 579 q 676 551 676 579 q 639 522 676 522 l 376 522 l 376 57 l 624 57 q 661 29 661 57 q 624 0 661 0 l 183 0 q 146 29 146 0 q 183 57 146 57 l 319 57 l 319 522 l 197 522 q 160 551 160 522 q 197 579 160 579 l 319 579 l 319 664 q 380 790 319 740 q 533 839 440 839 q 726 821 631 839 q 751 793 751 814 q 722 765 751 765 z "},"g":{"ha":833,"x_min":88,"x_max":781,"o":"m 611 464 l 611 579 l 743 579 q 781 551 781 579 q 743 522 781 522 l 668 522 l 668 -39 q 601 -193 668 -128 q 439 -258 535 -258 l 281 -258 q 243 -229 243 -258 q 281 -201 243 -201 l 442 -201 q 562 -151 513 -201 q 611 -31 611 -101 l 611 149 q 374 14 519 14 q 172 100 256 14 q 88 307 88 186 q 172 513 88 428 q 374 599 256 599 q 611 464 521 599 m 378 542 q 213 474 281 542 q 144 307 144 406 q 213 140 144 208 q 378 71 281 71 q 543 139 475 71 q 611 304 611 207 q 544 474 611 406 q 378 542 476 542 z "},"h":{"ha":833,"x_min":60,"x_max":765,"o":"m 607 400 q 560 502 607 463 q 436 542 513 542 q 340 519 378 542 q 244 429 301 496 l 229 411 l 229 57 l 292 57 q 331 29 331 57 q 292 0 331 0 l 108 0 q 71 29 71 0 q 108 57 71 57 l 172 57 l 172 782 l 97 782 q 60 811 60 782 q 97 839 60 839 l 229 839 l 229 482 q 331 572 282 546 q 443 599 379 599 q 602 544 540 599 q 664 404 664 489 l 664 57 l 726 57 q 765 29 765 57 q 726 0 765 0 l 544 0 q 507 29 507 0 q 544 57 507 57 l 607 57 l 607 400 z "},"i":{"ha":833,"x_min":128,"x_max":706,"o":"m 444 579 l 444 57 l 667 57 q 706 29 706 57 q 667 0 706 0 l 165 0 q 128 29 128 0 q 165 57 128 57 l 388 57 l 388 522 l 224 522 q 186 551 186 522 q 224 579 186 579 l 444 579 m 442 867 l 442 722 l 360 722 l 360 867 l 442 867 z "},"j":{"ha":833,"x_min":163,"x_max":594,"o":"m 538 522 l 203 522 q 165 551 165 522 q 203 579 165 579 l 594 579 l 594 -39 q 534 -197 594 -136 q 379 -258 474 -258 l 200 -258 q 163 -229 163 -258 q 200 -201 163 -201 l 378 -201 q 492 -156 447 -201 q 538 -39 538 -110 l 538 522 m 533 867 l 533 722 l 451 722 l 451 867 l 533 867 z "},"k":{"ha":833,"x_min":88,"x_max":751,"o":"m 257 250 l 257 0 l 125 0 q 88 29 88 0 q 125 57 88 57 l 200 57 l 200 782 l 125 782 q 88 811 88 782 q 125 839 88 839 l 257 839 l 257 318 l 497 522 l 467 522 q 429 551 429 522 q 467 579 429 579 l 647 579 q 685 551 685 579 q 647 522 685 522 l 582 522 l 364 340 l 651 57 l 714 57 q 751 29 751 57 q 714 0 751 0 l 532 0 q 494 29 494 0 q 532 57 494 57 l 571 57 l 321 304 l 257 250 z "},"l":{"ha":833,"x_min":128,"x_max":706,"o":"m 444 839 l 444 57 l 667 57 q 706 29 706 57 q 667 0 706 0 l 165 0 q 128 29 128 0 q 165 57 128 57 l 388 57 l 388 782 l 225 782 q 188 811 188 782 q 225 839 188 839 l 444 839 z "},"m":{"ha":833,"x_min":15,"x_max":824,"o":"m 156 579 l 156 507 q 224 578 190 557 q 301 599 257 599 q 436 500 390 599 q 593 599 513 599 q 696 554 653 599 q 739 449 739 510 l 739 57 l 786 57 q 824 29 824 57 q 786 0 824 0 l 683 0 l 683 443 q 656 512 683 482 q 592 542 628 542 q 447 428 522 542 l 447 57 l 494 57 q 532 29 532 57 q 494 0 532 0 l 392 0 l 392 439 q 365 510 392 479 q 301 542 338 542 q 156 428 232 542 l 156 57 l 203 57 q 240 29 240 57 q 203 0 240 0 l 51 0 q 15 29 15 0 q 53 57 15 57 l 100 57 l 100 522 l 53 522 q 15 551 15 522 q 53 579 15 579 l 156 579 z "},"n":{"ha":833,"x_min":74,"x_max":751,"o":"m 443 542 q 395 537 418 542 q 352 522 372 532 q 318 502 332 511 q 288 476 304 493 q 266 452 272 460 q 247 427 260 444 q 232 408 233 410 l 232 57 l 294 57 q 332 29 332 57 q 294 0 332 0 l 113 0 q 74 29 74 0 q 113 57 74 57 l 175 57 l 175 522 l 128 522 q 90 551 90 522 q 128 579 90 579 l 232 579 l 232 483 q 338 574 292 550 q 449 599 383 599 q 604 544 542 599 q 667 410 667 490 l 667 57 l 714 57 q 751 29 751 57 q 714 0 751 0 l 563 0 q 525 29 525 0 q 563 57 525 57 l 610 57 l 610 400 q 565 501 610 460 q 443 542 519 542 z "},"o":{"ha":833,"x_min":100,"x_max":733,"o":"m 417 599 q 642 508 550 599 q 733 285 733 417 q 640 67 733 157 q 417 -22 547 -22 q 192 68 285 -22 q 100 289 100 158 q 192 508 100 417 q 417 599 285 599 m 417 542 q 233 468 308 542 q 157 289 157 394 q 233 109 157 183 q 417 35 308 35 q 600 108 524 35 q 676 285 676 182 q 601 468 676 394 q 417 542 526 542 z "},"p":{"ha":833,"x_min":31,"x_max":751,"o":"m 200 579 l 200 465 q 313 568 256 538 q 449 599 369 599 q 665 515 578 599 q 751 307 751 431 q 664 99 751 183 q 449 14 576 14 q 200 147 293 14 l 200 -201 l 336 -201 q 374 -229 374 -201 q 336 -258 374 -258 l 68 -258 q 31 -229 31 -258 q 68 -201 31 -201 l 143 -201 l 143 522 l 68 522 q 31 551 31 522 q 68 579 31 579 l 200 579 m 447 542 q 272 473 344 542 q 200 307 200 404 q 272 140 200 208 q 447 71 344 71 q 622 139 550 71 q 694 304 694 207 q 624 474 694 406 q 447 542 553 542 z "},"q":{"ha":833,"x_min":88,"x_max":810,"o":"m 640 465 l 640 579 l 772 579 q 810 551 810 579 q 772 522 810 522 l 697 522 l 697 -201 l 772 -201 q 810 -229 810 -201 q 772 -258 810 -258 l 504 -258 q 467 -229 467 -258 q 504 -201 467 -201 l 640 -201 l 640 147 q 390 14 547 14 q 175 99 263 14 q 88 307 88 183 q 175 515 88 431 q 392 599 263 599 q 640 465 546 599 m 392 542 q 216 474 288 542 q 144 307 144 406 q 216 140 144 208 q 392 71 288 71 q 567 139 494 71 q 640 304 640 207 q 569 474 640 406 q 392 542 497 542 z "},"r":{"ha":833,"x_min":117,"x_max":751,"o":"m 722 478 q 679 507 715 478 q 608 536 643 536 q 510 503 561 536 q 344 364 460 469 l 344 57 l 593 57 q 631 28 631 57 q 593 0 631 0 l 154 0 q 117 29 117 0 q 154 57 117 57 l 288 57 l 288 522 l 183 522 q 146 551 146 522 q 183 579 146 579 l 344 579 l 344 438 q 500 559 440 525 q 613 593 560 593 q 710 560 668 593 q 751 507 751 526 q 743 486 751 494 q 722 478 735 478 z "},"s":{"ha":833,"x_min":143,"x_max":690,"o":"m 628 163 q 581 242 628 214 q 467 279 533 269 q 333 300 400 289 q 219 346 267 311 q 172 442 172 381 q 240 554 172 510 q 410 599 307 599 q 600 535 528 599 l 600 540 q 629 579 600 579 q 657 540 657 579 l 657 444 q 629 407 657 407 q 600 439 604 407 q 544 514 594 486 q 415 542 494 542 q 286 512 338 542 q 235 438 235 482 q 282 374 235 396 q 396 342 329 351 q 529 320 463 333 q 643 267 596 307 q 690 161 690 228 q 613 30 690 82 q 418 -22 536 -22 q 200 53 285 -22 l 200 38 q 172 0 200 0 q 143 38 143 0 l 143 153 q 172 190 143 190 q 200 160 200 190 l 200 150 q 263 69 200 103 q 414 35 325 35 q 567 71 506 35 q 628 163 628 107 z "},"t":{"ha":833,"x_min":60,"x_max":693,"o":"m 258 579 l 564 579 q 601 551 601 579 q 564 522 601 522 l 258 522 l 258 151 q 300 67 258 99 q 414 35 342 35 q 538 51 472 35 q 644 90 604 67 q 667 99 658 99 q 685 90 676 99 q 693 71 693 82 q 599 9 693 40 q 417 -22 506 -22 q 260 24 318 -22 q 201 149 201 71 l 201 522 l 99 522 q 60 551 60 522 q 99 579 60 579 l 201 579 l 201 744 q 231 782 201 782 q 258 744 258 782 l 258 579 z "},"u":{"ha":833,"x_min":60,"x_max":751,"o":"m 610 0 l 610 92 q 357 -22 493 -22 q 223 28 274 -22 q 172 160 172 78 l 172 522 l 97 522 q 60 551 60 522 q 97 579 60 579 l 229 579 l 229 160 q 266 71 229 107 q 356 35 303 35 q 610 160 494 35 l 610 522 l 507 522 q 468 551 468 522 q 507 579 468 579 l 667 579 l 667 57 l 714 57 q 751 29 751 57 q 714 0 751 0 l 610 0 z "},"v":{"ha":833,"x_min":42,"x_max":792,"o":"m 467 0 l 369 0 l 136 522 l 79 522 q 42 551 42 522 q 79 579 42 579 l 289 579 q 328 551 328 579 q 289 522 328 522 l 199 522 l 407 57 l 433 57 l 638 522 l 543 522 q 506 551 506 522 q 543 579 506 579 l 754 579 q 792 551 792 579 q 754 522 792 522 l 697 522 l 467 0 z "},"w":{"ha":833,"x_min":42,"x_max":792,"o":"m 613 0 l 543 0 l 417 360 l 293 0 l 222 0 l 106 522 l 79 522 q 42 551 42 522 q 79 579 42 579 l 233 579 q 271 551 271 579 q 233 522 271 522 l 160 522 l 260 78 l 379 432 l 450 432 l 574 78 l 669 522 l 600 522 q 563 551 563 522 q 600 579 563 579 l 754 579 q 792 551 792 579 q 754 522 792 522 l 728 522 l 613 0 z "},"x":{"ha":833,"x_min":71,"x_max":763,"o":"m 457 304 l 713 57 l 725 57 q 763 29 763 57 q 725 0 763 0 l 542 0 q 504 29 504 0 q 542 57 504 57 l 632 57 l 417 264 l 199 57 l 293 57 q 331 29 331 57 q 293 0 331 0 l 108 0 q 71 29 71 0 q 108 57 71 57 l 121 57 l 376 304 l 150 522 l 140 522 q 103 551 103 522 q 140 579 103 579 l 294 579 q 332 551 332 579 q 294 522 332 522 l 231 522 l 417 342 l 607 522 l 540 522 q 503 551 503 522 q 540 579 503 579 l 693 579 q 731 551 731 579 q 693 522 731 522 l 683 522 l 457 304 z "},"y":{"ha":833,"x_min":71,"x_max":763,"o":"m 392 0 l 131 522 l 108 522 q 71 551 71 522 q 108 579 71 579 l 268 579 q 306 551 306 579 q 268 522 306 522 l 196 522 l 424 63 l 647 522 l 572 522 q 535 551 535 522 q 572 579 535 579 l 725 579 q 763 551 763 579 q 725 522 763 522 l 706 522 l 350 -201 l 440 -201 q 478 -229 478 -201 q 440 -258 478 -258 l 117 -258 q 79 -229 79 -258 q 117 -201 79 -201 l 293 -201 l 392 0 z "},"z":{"ha":833,"x_min":160,"x_max":679,"o":"m 658 579 l 658 529 l 238 57 l 622 57 l 622 135 q 651 172 622 172 q 679 135 679 172 l 679 0 l 160 0 l 160 50 l 578 522 l 229 522 l 229 446 q 201 408 229 408 q 172 446 172 408 l 172 579 l 658 579 z "},"{":{"ha":833,"x_min":218,"x_max":569,"o":"m 569 -144 q 540 -172 569 -172 q 429 -131 468 -172 q 390 -19 390 -90 l 390 186 q 344 276 390 246 q 247 307 297 307 q 218 333 218 307 q 247 363 218 363 q 344 392 297 363 q 390 481 390 422 l 390 685 q 429 798 390 757 q 540 839 468 839 q 561 831 553 839 q 569 811 569 824 q 560 792 569 800 q 539 783 551 783 q 476 760 504 783 q 447 685 447 738 l 447 481 q 339 333 447 375 q 447 186 447 300 l 447 -19 q 476 -94 447 -71 q 540 -117 504 -117 q 561 -125 553 -117 q 569 -144 569 -133 z "},"|":{"ha":833,"x_min":389,"x_max":444,"o":"m 444 801 l 444 -135 q 417 -172 444 -172 q 389 -135 389 -172 l 389 801 q 417 839 389 839 q 444 801 444 839 z "},"}":{"ha":833,"x_min":264,"x_max":615,"o":"m 264 -144 q 272 -125 264 -133 q 293 -117 281 -117 q 358 -94 329 -117 q 386 -19 386 -71 l 386 186 q 494 333 386 300 q 386 481 386 375 l 386 685 q 358 760 386 738 q 294 783 329 783 q 273 792 282 783 q 264 811 264 800 q 272 831 264 824 q 293 839 281 839 q 404 798 365 839 q 443 685 443 757 l 443 481 q 490 392 443 422 q 586 363 536 363 q 615 333 615 363 q 586 307 615 307 q 490 276 536 307 q 443 186 443 246 l 443 -19 q 404 -131 443 -90 q 293 -172 365 -172 q 264 -144 264 -172 z "},"~":{"ha":833,"x_min":128,"x_max":706,"o":"m 536 351 q 596 378 567 351 q 646 432 625 406 q 678 458 667 458 q 697 451 689 458 q 706 432 706 443 q 649 350 706 406 q 540 294 592 294 q 453 328 499 294 q 366 394 407 361 q 294 426 325 426 q 246 410 268 426 q 211 373 224 393 q 183 336 199 353 q 154 319 168 319 q 136 328 144 319 q 128 346 128 336 q 181 426 128 369 q 294 483 233 483 q 384 450 336 483 q 473 384 432 417 q 536 351 514 351 z "}," ":{"ha":833,"x_min":0,"x_max":0,"o":"z "},"¡":{"ha":833,"x_min":333,"x_max":500,"o":"m 364 -153 l 389 300 q 418 339 390 339 q 446 300 444 339 l 471 -153 q 472 -175 472 -162 q 456 -214 472 -199 q 417 -229 440 -229 q 378 -213 394 -229 q 363 -175 363 -197 l 364 -167 q 364 -153 364 -160 m 426 511 l 408 511 q 355 531 376 511 q 333 581 333 551 q 355 630 333 610 q 408 650 376 650 l 426 650 q 478 630 457 650 q 500 581 500 610 q 478 531 500 551 q 426 511 457 511 z "},"¢":{"ha":833,"x_min":157,"x_max":651,"o":"m 157 432 q 165 489 157 458 q 195 562 174 519 q 267 639 217 604 q 389 689 317 674 l 389 838 q 418 875 389 875 q 446 838 446 875 l 446 690 q 590 640 533 690 q 618 664 597 664 q 647 629 647 664 l 647 544 q 619 506 647 506 q 592 538 596 506 q 542 609 585 582 q 432 636 499 636 q 276 578 338 636 q 214 432 214 521 q 274 287 214 344 q 426 229 335 229 q 528 247 488 229 q 591 281 569 264 q 625 299 613 299 q 651 271 651 299 q 583 211 651 243 q 446 176 515 179 l 446 19 q 418 -18 446 -18 q 389 19 389 -18 l 389 176 q 222 260 288 188 q 157 432 157 333 z "},"£":{"ha":833,"x_min":88,"x_max":722,"o":"m 275 604 q 313 436 275 569 l 450 436 q 488 407 488 436 q 450 379 488 379 l 325 379 q 332 300 332 331 q 253 57 332 156 l 603 57 q 644 73 629 57 q 662 108 658 89 q 673 144 665 128 q 694 160 681 160 q 722 129 722 160 q 688 38 722 76 q 606 0 654 0 l 157 0 q 119 29 119 0 q 150 56 119 56 q 237 134 199 58 q 275 306 275 210 q 269 379 275 343 l 125 379 q 88 408 88 379 q 125 436 88 436 l 256 436 q 218 604 218 554 q 276 744 218 686 q 414 803 333 803 q 539 758 485 803 q 593 688 593 714 q 584 669 593 678 q 565 661 575 661 q 538 682 556 661 q 488 724 519 703 q 415 746 457 746 q 317 703 358 746 q 275 604 275 661 z "},"¤":{"ha":833,"x_min":143,"x_max":690,"o":"m 276 225 l 197 147 q 172 132 183 132 q 151 140 160 132 q 143 160 143 149 q 158 188 143 172 l 236 265 q 188 406 188 331 q 235 547 188 488 l 158 625 q 143 651 143 639 q 151 671 143 663 q 171 679 160 679 q 197 664 182 679 l 275 588 q 417 636 336 636 q 558 588 496 636 l 635 664 q 663 679 650 679 q 682 671 674 679 q 690 650 690 663 q 676 625 690 639 l 600 547 q 647 407 647 482 q 599 265 647 326 l 675 188 q 689 160 689 174 q 681 140 689 149 q 661 132 672 132 q 635 147 649 132 l 557 225 q 417 176 492 176 q 276 225 340 176 m 417 579 q 295 528 346 579 q 244 407 244 478 q 295 284 244 335 q 417 233 346 233 q 538 284 486 233 q 589 404 589 335 q 539 528 589 478 q 417 579 489 579 z "},"¥":{"ha":833,"x_min":71,"x_max":763,"o":"m 446 331 l 446 247 l 628 247 q 657 222 657 247 q 628 196 657 196 l 446 196 l 446 57 l 565 57 q 603 29 603 57 q 565 0 603 0 l 269 0 q 232 29 232 0 q 269 57 232 57 l 389 57 l 389 196 l 208 196 q 178 222 178 196 q 208 247 178 247 l 389 247 l 389 331 l 208 331 q 178 357 178 331 q 208 382 178 382 l 369 382 l 142 725 l 108 725 q 71 754 71 725 q 108 782 71 782 l 261 782 q 299 754 299 782 q 261 725 299 725 l 207 725 l 417 410 l 626 725 l 572 725 q 535 754 535 725 q 572 782 535 782 l 725 782 q 763 754 763 782 q 725 725 763 725 l 692 725 l 464 382 l 628 382 q 657 357 657 382 q 628 331 657 331 l 446 331 z "},"¦":{"ha":833,"x_min":389,"x_max":444,"o":"m 444 801 l 444 431 q 417 393 444 393 q 389 431 389 393 l 389 801 q 417 839 389 839 q 444 801 444 839 m 444 236 l 444 -135 q 417 -172 444 -172 q 389 -135 389 -172 l 389 236 q 417 274 389 274 q 444 236 444 274 z "},"§":{"ha":833,"x_min":92,"x_max":742,"o":"m 742 257 q 600 140 742 157 q 618 72 618 110 q 565 -41 618 4 q 433 -86 513 -86 l 146 -86 l 146 68 q 175 101 146 101 q 203 68 203 101 l 203 -31 l 432 -31 q 524 -1 488 -31 q 561 74 561 29 q 520 149 561 110 q 379 243 479 188 l 289 293 q 92 497 92 404 q 131 576 92 544 q 235 613 169 607 q 217 676 217 643 q 269 790 217 742 q 394 838 322 838 l 689 838 l 689 686 q 661 653 689 653 q 632 686 632 653 l 632 782 l 399 782 q 310 751 347 782 q 272 676 272 719 q 314 601 272 638 q 479 497 356 565 l 557 454 q 698 355 654 401 q 742 257 742 308 m 556 193 q 597 201 561 196 q 657 217 632 206 q 682 256 682 229 q 642 326 682 286 q 533 403 601 367 l 444 453 q 279 560 328 517 q 254 558 271 558 q 181 540 210 558 q 151 496 151 522 q 325 338 151 436 l 411 289 q 556 193 522 226 z "},"¨":{"ha":833,"x_min":194,"x_max":640,"o":"m 264 849 q 313 828 293 849 q 333 778 333 807 q 313 730 333 750 q 264 710 292 710 q 215 731 236 710 q 194 779 194 751 q 215 828 194 807 q 264 849 236 849 m 571 849 q 620 828 600 849 q 640 778 640 807 q 619 730 640 750 q 571 710 599 710 q 522 731 543 710 q 501 779 501 751 q 522 828 501 807 q 571 849 543 849 z "},"©":{"ha":833,"x_min":4,"x_max":828,"o":"m 590 257 q 570 221 590 244 q 508 176 550 197 q 419 154 467 154 q 275 217 338 154 q 213 361 213 279 l 213 424 q 269 566 213 507 q 406 625 326 625 q 529 585 465 625 q 554 615 529 615 q 579 588 579 615 l 579 497 q 554 469 579 469 q 529 496 533 469 q 490 551 526 528 q 407 575 454 575 q 305 530 347 575 q 263 419 263 485 l 263 365 q 309 252 263 300 q 419 204 356 204 q 481 216 454 204 q 519 242 507 228 q 544 269 532 257 q 567 281 557 281 q 583 274 576 281 q 590 257 590 267 m 417 803 q 707 682 586 803 q 828 392 828 561 q 707 99 828 218 q 411 -21 586 -21 q 124 101 244 -21 q 4 392 4 222 q 125 682 4 561 q 417 803 246 803 m 417 746 q 165 642 269 746 q 61 392 61 539 q 165 141 61 246 q 411 36 268 36 q 667 140 563 36 q 771 392 771 243 q 667 642 771 538 q 417 746 563 746 z "},"ª":{"ha":833,"x_min":214,"x_max":621,"o":"m 583 261 l 251 261 q 214 290 214 261 q 251 318 214 318 l 583 318 q 621 290 621 318 q 583 261 621 261 m 263 740 q 322 781 263 765 q 414 797 381 797 q 514 765 475 797 q 553 681 553 732 l 553 443 l 589 443 q 621 417 621 443 q 589 392 621 392 l 501 392 l 501 428 q 353 388 426 388 q 253 418 292 388 q 215 497 215 449 q 267 594 215 557 q 400 632 319 632 q 501 619 439 632 l 501 681 q 476 728 501 710 q 411 746 451 746 q 335 730 382 746 q 286 714 289 714 q 269 722 276 714 q 263 740 263 729 m 501 486 l 501 568 q 403 583 461 583 q 305 558 343 583 q 267 494 267 533 q 290 454 267 469 q 353 439 314 439 q 501 486 429 439 z "},"«":{"ha":833,"x_min":88,"x_max":751,"o":"m 88 290 l 376 564 q 406 579 392 579 q 425 571 417 579 q 433 551 433 563 q 418 524 433 540 l 219 290 l 418 56 q 433 28 433 39 q 425 8 433 17 q 406 0 417 0 q 376 15 394 0 l 88 290 m 406 290 l 694 564 q 724 579 710 579 q 743 571 735 579 q 751 551 751 563 q 736 524 751 540 l 538 290 l 736 56 q 751 28 751 39 q 743 8 751 17 q 724 0 735 0 q 694 15 713 0 l 406 290 z "},"¬":{"ha":833,"x_min":100,"x_max":733,"o":"m 676 551 l 138 551 q 100 581 100 551 q 138 608 100 608 l 733 608 l 733 271 q 704 233 733 233 q 676 271 676 233 l 676 551 z "},"­":{"ha":833,"x_min":100,"x_max":733,"o":"m 696 358 l 138 358 q 100 388 100 358 q 138 415 100 415 l 696 415 q 733 388 733 415 q 696 358 733 358 z "},"®":{"ha":833,"x_min":4,"x_max":828,"o":"m 324 358 l 324 217 l 374 217 q 401 192 401 217 q 374 167 401 167 l 240 167 q 211 192 211 167 q 240 217 211 217 l 274 217 l 274 565 l 240 565 q 211 590 211 565 q 240 615 211 615 l 432 615 q 537 579 496 615 q 578 486 578 543 q 551 417 578 447 q 481 374 525 386 q 535 319 515 347 q 599 217 556 292 l 619 217 q 647 192 647 217 q 619 167 647 167 l 565 167 q 411 358 486 332 l 324 358 m 324 408 l 401 408 q 494 430 460 408 q 528 489 528 451 q 501 544 528 522 q 431 565 474 565 l 324 565 l 324 408 m 417 803 q 707 682 586 803 q 828 392 828 561 q 707 99 828 218 q 411 -21 586 -21 q 124 101 244 -21 q 4 392 4 222 q 125 682 4 561 q 417 803 246 803 m 417 746 q 165 642 269 746 q 61 392 61 539 q 165 141 61 246 q 411 36 268 36 q 667 140 563 36 q 771 392 771 243 q 667 642 771 538 q 417 746 563 746 z "},"¯":{"ha":833,"x_min":215,"x_max":618,"o":"m 581 744 l 253 744 q 215 772 215 744 q 253 800 215 800 l 581 800 q 618 772 618 800 q 581 744 618 744 z "},"°":{"ha":833,"x_min":215,"x_max":618,"o":"m 417 883 q 559 824 500 883 q 618 682 618 765 q 559 540 618 599 q 417 481 500 481 q 274 540 332 481 q 215 685 215 599 q 275 824 215 765 q 417 883 335 883 m 519 784 q 498 805 519 784 q 417 826 476 826 q 315 784 357 826 q 272 683 272 742 q 315 580 272 622 q 417 538 357 538 q 519 580 476 538 q 561 682 561 622 q 519 784 561 742 z "},"±":{"ha":833,"x_min":100,"x_max":733,"o":"m 444 418 l 444 193 q 417 156 444 156 q 388 193 388 156 l 388 418 l 138 418 q 100 446 100 418 q 138 474 100 474 l 388 474 l 388 697 q 417 735 388 735 q 444 697 444 735 l 444 474 l 694 474 q 733 446 733 474 q 694 418 733 418 l 444 418 m 138 56 l 696 56 q 733 28 733 56 q 696 0 733 0 l 138 0 q 100 28 100 0 q 138 56 100 56 z "},"²":{"ha":833,"x_min":243,"x_max":563,"o":"m 258 896 q 303 974 258 932 q 410 1017 347 1017 q 515 975 469 1017 q 560 876 560 933 q 519 784 560 832 q 304 576 478 736 l 513 576 l 513 581 q 538 608 513 608 q 563 581 563 608 l 563 526 l 243 526 l 243 586 l 426 757 q 494 832 479 810 q 510 876 510 854 q 480 940 510 913 q 410 967 450 967 q 345 947 374 967 q 307 894 317 926 q 282 872 301 872 q 265 879 272 872 q 258 896 258 886 z "},"³":{"ha":833,"x_min":251,"x_max":578,"o":"m 417 967 q 365 958 388 967 q 334 941 343 950 q 316 924 325 932 q 299 915 307 915 q 281 922 289 915 q 274 939 274 929 q 322 991 274 965 q 417 1017 369 1017 q 519 980 478 1017 q 561 889 561 943 q 497 786 561 829 q 578 664 578 736 q 528 559 578 603 q 410 515 479 515 q 305 540 358 515 q 251 589 251 565 q 258 606 251 599 q 275 613 265 613 q 319 589 279 613 q 410 565 360 565 q 492 594 457 565 q 528 664 528 624 q 492 735 528 706 q 400 765 456 764 q 371 790 371 768 q 382 810 371 806 q 422 815 393 815 q 486 836 461 815 q 511 889 511 857 q 484 944 511 922 q 417 967 457 967 z "},"´":{"ha":833,"x_min":389,"x_max":618,"o":"m 601 832 l 443 693 q 417 681 426 681 q 397 689 406 681 q 389 710 389 697 q 406 736 389 721 l 564 875 q 590 888 581 888 q 610 879 601 888 q 618 858 618 871 q 601 832 618 847 z "},"µ":{"ha":833,"x_min":60,"x_max":751,"o":"m 229 22 l 229 -240 q 200 -278 229 -278 q 172 -240 172 -278 l 172 524 l 97 524 q 60 551 60 524 q 97 579 60 579 l 229 579 l 229 160 q 265 68 229 103 q 356 33 300 33 q 610 160 496 33 l 610 524 l 507 524 q 468 551 468 524 q 507 579 468 579 l 667 579 l 667 56 l 714 56 q 751 28 751 56 q 714 0 751 0 l 610 0 l 610 82 q 358 -22 499 -22 q 229 22 279 -22 z "},"¶":{"ha":833,"x_min":110,"x_max":729,"o":"m 394 361 q 188 425 267 369 q 110 564 110 481 l 110 629 q 194 781 110 722 q 414 839 278 839 l 692 839 q 726 811 726 839 q 692 782 726 782 l 607 782 l 607 -29 l 693 -29 q 729 -57 729 -29 q 693 -86 729 -86 l 557 -86 q 522 -57 522 -86 q 551 -29 522 -32 l 551 782 l 451 782 l 451 -29 q 481 -57 481 -32 q 446 -86 481 -86 l 260 -86 q 224 -57 224 -86 q 260 -29 224 -29 l 394 -29 l 394 361 m 394 426 l 394 775 q 260 724 314 767 q 207 626 207 682 l 207 575 q 260 477 207 519 q 394 426 314 435 z "},"·":{"ha":833,"x_min":347,"x_max":486,"o":"m 417 389 q 466 368 446 389 q 486 318 486 347 q 465 270 486 290 q 417 250 444 250 q 368 271 389 250 q 347 319 347 292 q 368 368 347 347 q 417 389 389 389 z "},"¸":{"ha":833,"x_min":292,"x_max":524,"o":"m 319 -158 q 356 -173 325 -158 q 411 -187 386 -187 q 455 -176 438 -187 q 472 -147 472 -165 q 408 -112 472 -112 l 381 -112 l 381 0 l 433 0 l 433 -65 q 524 -150 524 -68 q 493 -215 524 -190 q 414 -240 463 -240 q 335 -224 378 -240 q 292 -185 292 -208 q 300 -166 292 -174 q 319 -158 308 -158 z "},"¹":{"ha":833,"x_min":265,"x_max":569,"o":"m 443 1011 l 443 571 l 542 571 q 569 546 569 571 q 542 521 569 521 l 294 521 q 265 546 265 521 q 308 572 265 572 q 393 571 363 572 l 393 943 l 303 914 q 290 911 292 911 q 274 919 282 911 q 267 936 267 926 q 289 961 267 951 q 443 1011 311 971 z "},"º":{"ha":833,"x_min":214,"x_max":622,"o":"m 583 261 l 251 261 q 214 290 214 261 q 251 318 214 318 l 583 318 q 621 290 621 318 q 583 261 621 261 m 418 801 q 563 742 504 801 q 622 596 622 682 q 562 454 622 514 q 418 394 501 394 q 274 454 333 394 q 214 599 214 514 q 274 742 214 682 q 418 801 333 801 m 526 706 q 504 728 526 706 q 418 750 482 750 q 310 706 354 750 q 265 599 265 661 q 310 490 265 535 q 418 446 356 446 q 526 490 481 446 q 571 596 571 535 q 526 706 571 661 z "},"»":{"ha":833,"x_min":88,"x_max":751,"o":"m 432 289 l 144 15 q 115 0 129 0 q 96 8 104 0 q 88 28 88 17 q 103 56 88 39 l 300 289 l 103 524 q 88 551 88 540 q 96 571 88 563 q 115 579 104 579 q 144 564 126 579 l 432 289 m 751 289 l 464 15 q 435 0 449 0 q 415 8 424 0 q 407 28 407 17 q 422 56 407 39 l 619 289 l 422 524 q 407 551 407 540 q 415 571 407 563 q 435 579 424 579 q 464 564 446 579 l 751 289 z "},"¼":{"ha":833,"x_min":22,"x_max":806,"o":"m 200 850 l 200 410 l 299 410 q 328 385 328 410 q 299 360 328 360 l 51 360 q 22 385 22 360 q 65 411 22 411 q 150 410 119 411 l 150 782 l 60 753 q 47 750 49 750 q 31 758 39 750 q 24 775 24 765 q 46 800 24 790 q 200 850 68 810 m 683 663 l 196 88 q 171 71 182 71 q 151 79 160 71 q 143 99 143 88 q 156 122 143 108 l 642 697 q 667 714 657 714 q 686 706 678 714 q 694 686 694 697 q 683 663 694 676 m 629 25 q 642 46 629 42 q 693 50 654 50 l 708 50 l 708 129 l 501 129 l 501 176 l 679 479 l 758 479 l 758 179 l 776 179 q 806 154 806 179 q 771 129 806 129 l 758 129 l 758 50 l 776 50 q 806 25 806 50 q 776 0 806 0 l 658 0 q 629 25 629 0 m 708 179 l 708 429 l 706 429 l 557 179 l 708 179 z "},"½":{"ha":833,"x_min":32,"x_max":796,"o":"m 674 663 l 186 88 q 161 71 172 71 q 142 79 150 71 q 133 99 133 88 q 146 122 133 108 l 632 697 q 657 714 647 714 q 676 706 668 714 q 685 686 685 697 q 674 663 685 676 m 210 850 l 210 410 l 308 410 q 336 385 336 410 q 308 360 336 360 l 61 360 q 32 385 32 360 q 75 411 32 411 q 160 410 129 411 l 160 782 l 69 753 q 57 750 58 750 q 41 758 49 750 q 33 775 33 765 q 56 800 33 790 q 210 850 78 810 m 492 369 q 536 448 492 406 q 643 490 581 490 q 748 449 703 490 q 793 350 793 407 q 752 258 793 306 q 538 50 711 210 l 746 50 l 746 54 q 771 82 746 82 q 796 54 796 82 l 796 0 l 476 0 l 476 60 l 660 231 q 728 306 713 283 q 743 350 743 328 q 713 413 743 386 q 643 440 683 440 q 578 420 607 440 q 540 368 550 400 q 515 346 535 346 q 499 353 506 346 q 492 369 492 360 z "},"¾":{"ha":833,"x_min":8,"x_max":806,"o":"m 174 800 q 122 792 144 800 q 91 774 100 783 q 73 757 82 765 q 56 749 64 749 q 38 756 46 749 q 31 772 31 763 q 78 824 31 799 q 174 850 126 850 q 276 813 235 850 q 318 722 318 776 q 254 619 318 663 q 335 497 335 569 q 285 392 335 436 q 167 349 236 349 q 62 374 115 349 q 8 422 8 399 q 15 439 8 432 q 32 446 22 446 q 76 422 36 446 q 167 399 117 399 q 249 428 214 399 q 285 497 285 457 q 249 568 285 539 q 157 599 213 597 q 128 624 128 601 q 139 644 128 639 q 179 649 150 649 q 243 669 218 649 q 268 722 268 690 q 241 778 268 756 q 174 800 214 800 m 682 663 l 194 88 q 169 71 181 71 q 150 79 158 71 q 142 99 142 88 q 154 122 142 108 l 640 697 q 665 714 656 714 q 685 706 676 714 q 693 686 693 697 q 682 663 693 676 m 629 25 q 642 46 629 42 q 693 50 654 50 l 708 50 l 708 129 l 501 129 l 501 176 l 679 479 l 758 479 l 758 179 l 776 179 q 806 154 806 179 q 771 129 806 129 l 758 129 l 758 50 l 776 50 q 806 25 806 50 q 776 0 806 0 l 658 0 q 629 25 629 0 m 708 179 l 708 429 l 706 429 l 557 179 l 708 179 z "},"¿":{"ha":833,"x_min":157,"x_max":647,"o":"m 647 -175 q 404 -243 510 -243 q 225 -184 293 -243 q 157 -29 157 -125 q 206 101 157 49 q 386 215 256 154 l 386 272 q 414 310 386 310 q 443 272 443 310 l 443 178 q 268 79 322 128 q 214 -29 214 31 q 269 -142 214 -99 q 411 -186 325 -186 q 590 -139 494 -186 l 590 -82 q 618 -44 590 -44 q 647 -82 647 -44 l 647 -175 m 435 440 l 397 440 q 340 460 363 440 q 318 510 318 479 q 340 560 318 540 q 397 579 363 579 l 435 579 q 492 560 471 579 q 514 510 514 540 q 492 460 514 479 q 435 440 471 440 z "},"À":{"ha":833,"x_min":13,"x_max":821,"o":"m 594 261 l 225 261 l 150 57 l 260 57 q 297 29 297 57 q 260 0 297 0 l 50 0 q 13 29 13 0 q 50 57 13 57 l 93 57 l 342 725 l 175 725 q 138 754 138 725 q 175 782 138 782 l 458 782 l 732 57 l 783 57 q 821 29 821 57 q 783 0 821 0 l 567 0 q 529 29 529 0 q 567 57 529 57 l 672 57 l 594 261 m 574 318 l 418 725 l 397 725 l 247 318 l 574 318 z "},"Á":{"ha":833,"x_min":13,"x_max":821,"o":"m 594 261 l 225 261 l 150 57 l 260 57 q 297 29 297 57 q 260 0 297 0 l 50 0 q 13 29 13 0 q 50 57 13 57 l 93 57 l 342 725 l 175 725 q 138 754 138 725 q 175 782 138 782 l 458 782 l 732 57 l 783 57 q 821 29 821 57 q 783 0 821 0 l 567 0 q 529 29 529 0 q 567 57 529 57 l 672 57 l 594 261 m 574 318 l 418 725 l 397 725 l 247 318 l 574 318 z "},"Â":{"ha":833,"x_min":13,"x_max":821,"o":"m 414 1054 l 597 904 q 615 875 615 889 q 607 856 615 864 q 588 847 599 847 q 563 858 578 847 l 414 981 l 265 858 q 240 847 250 847 q 221 856 229 847 q 213 875 213 864 q 231 903 213 886 l 414 1054 m 594 261 l 225 261 l 150 57 l 260 57 q 297 29 297 57 q 260 0 297 0 l 50 0 q 13 29 13 0 q 50 57 13 57 l 93 57 l 342 725 l 175 725 q 138 754 138 725 q 175 782 138 782 l 458 782 l 732 57 l 783 57 q 821 29 821 57 q 783 0 821 0 l 567 0 q 529 29 529 0 q 567 57 529 57 l 672 57 l 594 261 m 574 318 l 418 725 l 397 725 l 247 318 l 574 318 z "},"Ã":{"ha":833,"x_min":13,"x_max":821,"o":"m 506 910 q 564 942 531 910 q 607 974 597 974 q 626 965 618 974 q 635 946 635 957 q 591 889 635 925 q 508 853 547 853 q 413 886 472 853 q 336 919 353 919 q 275 888 301 919 q 232 857 249 857 q 213 865 221 857 q 204 883 204 872 q 249 942 204 908 q 335 976 294 976 q 427 943 367 976 q 506 910 488 910 m 594 261 l 225 261 l 150 57 l 260 57 q 297 29 297 57 q 260 0 297 0 l 50 0 q 13 29 13 0 q 50 57 13 57 l 93 57 l 342 725 l 175 725 q 138 754 138 725 q 175 782 138 782 l 458 782 l 732 57 l 783 57 q 821 29 821 57 q 783 0 821 0 l 567 0 q 529 29 529 0 q 567 57 529 57 l 672 57 l 594 261 m 574 318 l 418 725 l 397 725 l 247 318 l 574 318 z "},"Ä":{"ha":833,"x_min":13,"x_max":821,"o":"m 260 985 q 309 964 289 985 q 329 914 329 943 q 308 866 329 886 q 260 846 288 846 q 211 867 232 846 q 190 915 190 888 q 211 964 190 943 q 260 985 232 985 m 567 985 q 616 964 596 985 q 636 914 636 943 q 615 866 636 886 q 567 846 594 846 q 518 867 539 846 q 497 915 497 888 q 518 964 497 943 q 567 985 539 985 m 594 261 l 225 261 l 150 57 l 260 57 q 297 29 297 57 q 260 0 297 0 l 50 0 q 13 29 13 0 q 50 57 13 57 l 93 57 l 342 725 l 175 725 q 138 754 138 725 q 175 782 138 782 l 458 782 l 732 57 l 783 57 q 821 29 821 57 q 783 0 821 0 l 567 0 q 529 29 529 0 q 567 57 529 57 l 672 57 l 594 261 m 574 318 l 418 725 l 397 725 l 247 318 l 574 318 z "},"Å":{"ha":833,"x_min":13,"x_max":821,"o":"m 411 1103 q 503 1066 465 1103 q 540 975 540 1029 q 502 888 540 925 q 411 851 464 851 q 320 889 358 851 q 282 978 282 926 q 320 1066 282 1029 q 411 1103 358 1103 m 470 1033 q 458 1045 470 1033 q 411 1057 446 1057 q 352 1033 376 1057 q 328 978 328 1010 q 352 921 328 944 q 411 897 376 897 q 470 921 446 897 q 494 976 494 944 q 470 1033 494 1010 m 594 261 l 225 261 l 150 57 l 260 57 q 297 29 297 57 q 260 0 297 0 l 50 0 q 13 29 13 0 q 50 57 13 57 l 93 57 l 342 725 l 175 725 q 138 754 138 725 q 175 782 138 782 l 458 782 l 732 57 l 783 57 q 821 29 821 57 q 783 0 821 0 l 567 0 q 529 29 529 0 q 567 57 529 57 l 672 57 l 594 261 m 574 318 l 418 725 l 397 725 l 247 318 l 574 318 z "},"Æ":{"ha":833,"x_min":14,"x_max":819,"o":"m 413 263 l 217 263 l 160 57 l 196 57 q 233 29 233 57 q 196 0 233 0 l 51 0 q 14 29 14 0 q 51 57 14 57 l 103 57 l 288 725 l 200 725 q 163 754 163 725 q 200 782 163 782 l 792 782 l 792 571 q 763 533 792 533 q 735 571 735 533 l 735 725 l 469 725 l 469 436 l 578 436 l 578 475 q 606 513 578 513 q 633 475 633 513 l 633 342 q 606 304 633 304 q 578 342 578 304 l 578 379 l 469 379 l 469 57 l 763 57 l 763 186 q 790 222 763 222 q 819 186 819 222 l 819 0 l 340 0 q 303 29 303 0 q 340 57 303 57 l 413 57 l 413 263 m 413 319 l 413 725 l 343 725 l 232 319 l 413 319 z "},"Ç":{"ha":833,"x_min":88,"x_max":742,"o":"m 88 451 q 95 516 88 478 q 126 606 103 554 q 185 699 150 657 q 282 770 219 740 q 424 800 344 800 q 664 704 564 800 l 664 744 q 693 782 664 782 q 721 744 721 782 l 721 589 q 692 551 721 551 q 664 585 667 551 q 588 696 660 649 q 424 743 517 743 q 226 655 308 743 q 144 443 144 567 l 144 344 q 235 127 144 219 q 447 35 325 35 q 576 64 519 35 q 689 160 633 93 q 714 174 701 174 q 742 147 742 174 q 689 76 742 125 q 578 5 640 32 q 458 -22 515 -22 l 440 -22 l 440 -65 q 531 -150 531 -68 q 500 -215 531 -190 q 421 -240 469 -240 q 342 -224 385 -240 q 299 -185 299 -208 q 307 -166 299 -174 q 326 -158 315 -158 q 363 -173 332 -158 q 418 -187 393 -187 q 462 -176 444 -187 q 479 -147 479 -165 q 415 -112 479 -112 l 388 -112 l 388 -17 q 163 125 238 21 q 88 336 88 229 l 88 451 z "},"È":{"ha":833,"x_min":60,"x_max":722,"o":"m 229 378 l 229 57 l 665 57 l 665 222 q 694 260 665 260 q 722 222 722 260 l 722 0 l 97 0 q 60 29 60 0 q 97 57 60 57 l 172 57 l 172 725 l 97 725 q 60 754 60 725 q 97 782 60 782 l 693 782 l 693 589 q 664 551 693 551 q 636 589 636 551 l 636 725 l 229 725 l 229 435 l 431 435 l 431 497 q 460 535 431 535 q 488 497 488 535 l 488 315 q 460 278 488 278 q 431 315 431 278 l 431 378 l 229 378 z "},"É":{"ha":833,"x_min":60,"x_max":722,"o":"m 229 378 l 229 57 l 665 57 l 665 222 q 694 260 665 260 q 722 222 722 260 l 722 0 l 97 0 q 60 29 60 0 q 97 57 60 57 l 172 57 l 172 725 l 97 725 q 60 754 60 725 q 97 782 60 782 l 693 782 l 693 589 q 664 551 693 551 q 636 589 636 551 l 636 725 l 229 725 l 229 435 l 431 435 l 431 497 q 460 535 431 535 q 488 497 488 535 l 488 315 q 460 278 488 278 q 431 315 431 278 l 431 378 l 229 378 z "},"Ê":{"ha":833,"x_min":60,"x_max":722,"o":"m 400 1049 l 583 899 q 601 869 601 883 q 593 850 601 858 q 574 842 585 842 q 549 853 564 842 l 400 975 l 251 853 q 226 842 236 842 q 207 850 215 842 q 199 869 199 858 q 217 897 199 881 l 400 1049 m 229 378 l 229 57 l 665 57 l 665 222 q 694 260 665 260 q 722 222 722 260 l 722 0 l 97 0 q 60 29 60 0 q 97 57 60 57 l 172 57 l 172 725 l 97 725 q 60 754 60 725 q 97 782 60 782 l 693 782 l 693 589 q 664 551 693 551 q 636 589 636 551 l 636 725 l 229 725 l 229 435 l 431 435 l 431 497 q 460 535 431 535 q 488 497 488 535 l 488 315 q 460 278 488 278 q 431 315 431 278 l 431 378 l 229 378 z "},"Ë":{"ha":833,"x_min":60,"x_max":722,"o":"m 250 981 q 299 960 279 981 q 319 910 319 939 q 299 862 319 882 q 250 842 278 842 q 201 863 222 842 q 181 911 181 883 q 201 960 181 939 q 250 981 222 981 m 557 981 q 606 960 586 981 q 626 910 626 939 q 606 862 626 882 q 557 842 585 842 q 508 863 529 842 q 488 911 488 883 q 508 960 488 939 q 557 981 529 981 m 229 378 l 229 57 l 665 57 l 665 222 q 694 260 665 260 q 722 222 722 260 l 722 0 l 97 0 q 60 29 60 0 q 97 57 60 57 l 172 57 l 172 725 l 97 725 q 60 754 60 725 q 97 782 60 782 l 693 782 l 693 589 q 664 551 693 551 q 636 589 636 551 l 636 725 l 229 725 l 229 435 l 431 435 l 431 497 q 460 535 431 535 q 488 497 488 535 l 488 315 q 460 278 488 278 q 431 315 431 278 l 431 378 l 229 378 z "},"Ì":{"ha":833,"x_min":157,"x_max":676,"o":"m 444 725 l 444 57 l 638 57 q 676 29 676 57 q 638 0 676 0 l 194 0 q 157 29 157 0 q 194 57 157 57 l 388 57 l 388 725 l 194 725 q 157 754 157 725 q 194 782 157 782 l 638 782 q 676 754 676 782 q 638 725 676 725 l 444 725 z "},"Í":{"ha":833,"x_min":157,"x_max":676,"o":"m 444 725 l 444 57 l 638 57 q 676 29 676 57 q 638 0 676 0 l 194 0 q 157 29 157 0 q 194 57 157 57 l 388 57 l 388 725 l 194 725 q 157 754 157 725 q 194 782 157 782 l 638 782 q 676 754 676 782 q 638 725 676 725 l 444 725 z "},"Î":{"ha":833,"x_min":157,"x_max":676,"o":"m 417 1056 l 600 906 q 618 876 618 890 q 610 857 618 865 q 590 849 601 849 q 565 860 581 849 l 417 982 l 268 860 q 243 849 253 849 q 224 857 232 849 q 215 876 215 865 q 233 904 215 888 l 417 1056 m 444 725 l 444 57 l 638 57 q 676 29 676 57 q 638 0 676 0 l 194 0 q 157 29 157 0 q 194 57 157 57 l 388 57 l 388 725 l 194 725 q 157 754 157 725 q 194 782 157 782 l 638 782 q 676 754 676 782 q 638 725 676 725 l 444 725 z "},"Ï":{"ha":833,"x_min":157,"x_max":676,"o":"m 263 983 q 312 963 292 983 q 332 913 332 942 q 311 865 332 885 q 263 844 290 844 q 214 865 235 844 q 193 914 193 886 q 214 963 193 942 q 263 983 235 983 m 569 983 q 619 963 599 983 q 639 913 639 942 q 618 865 639 885 q 569 844 597 844 q 521 865 542 844 q 500 914 500 886 q 521 963 500 942 q 569 983 542 983 m 444 725 l 444 57 l 638 57 q 676 29 676 57 q 638 0 676 0 l 194 0 q 157 29 157 0 q 194 57 157 57 l 388 57 l 388 725 l 194 725 q 157 754 157 725 q 194 782 157 782 l 638 782 q 676 754 676 782 q 638 725 676 725 l 444 725 z "},"Ð":{"ha":833,"x_min":0,"x_max":722,"o":"m 144 378 l 38 378 q 0 407 0 378 q 38 435 0 435 l 144 435 l 144 725 l 97 725 q 60 754 60 725 q 97 782 60 782 l 403 782 q 628 678 533 782 q 722 431 722 575 l 722 353 q 628 104 722 208 q 403 0 533 0 l 97 0 q 60 29 60 0 q 97 57 60 57 l 144 57 l 144 378 m 665 443 q 658 494 665 464 q 633 567 651 525 q 585 642 614 608 q 508 701 557 676 q 400 725 460 725 l 201 725 l 201 435 l 426 435 q 464 407 464 435 q 426 378 464 378 l 201 378 l 201 57 l 410 57 q 587 144 508 57 q 665 340 665 231 l 665 443 z "},"Ñ":{"ha":833,"x_min":31,"x_max":781,"o":"m 492 913 q 550 944 517 913 q 593 976 583 976 q 613 968 604 976 q 621 949 621 960 q 577 892 621 928 q 494 856 533 856 q 399 889 458 856 q 322 922 339 922 q 261 891 288 922 q 218 860 235 860 q 199 867 207 860 q 190 886 190 875 q 235 945 190 911 q 321 979 281 979 q 413 946 353 979 q 492 913 474 913 m 696 0 l 624 0 l 200 700 l 200 57 l 304 57 q 342 29 342 57 q 304 0 342 0 l 96 0 q 58 29 58 0 q 96 57 58 57 l 143 57 l 143 725 l 68 725 q 31 754 31 725 q 68 782 31 782 l 215 782 l 639 82 l 639 725 l 536 725 q 497 754 497 725 q 536 782 497 782 l 743 782 q 781 754 781 782 q 743 725 781 725 l 696 725 l 696 0 z "},"Ò":{"ha":833,"x_min":71,"x_max":763,"o":"m 417 800 q 663 680 564 800 q 763 383 763 560 q 661 97 763 215 q 417 -22 560 -22 q 172 97 272 -22 q 71 389 71 217 q 172 681 71 561 q 417 800 272 800 m 417 743 q 213 639 297 743 q 128 389 128 535 q 213 139 128 243 q 417 35 297 35 q 620 138 535 35 q 706 385 706 242 q 622 639 706 535 q 417 743 538 743 z "},"Ó":{"ha":833,"x_min":71,"x_max":763,"o":"m 417 800 q 663 680 564 800 q 763 383 763 560 q 661 97 763 215 q 417 -22 560 -22 q 172 97 272 -22 q 71 389 71 217 q 172 681 71 561 q 417 800 272 800 m 417 743 q 213 639 297 743 q 128 389 128 535 q 213 139 128 243 q 417 35 297 35 q 620 138 535 35 q 706 385 706 242 q 622 639 706 535 q 417 743 538 743 z "},"Ô":{"ha":833,"x_min":71,"x_max":763,"o":"m 417 1054 l 600 904 q 618 875 618 889 q 610 856 618 864 q 590 847 601 847 q 565 858 581 847 l 417 981 l 268 858 q 243 847 253 847 q 224 856 232 847 q 215 875 215 864 q 233 903 215 886 l 417 1054 m 417 800 q 663 680 564 800 q 763 383 763 560 q 661 97 763 215 q 417 -22 560 -22 q 172 97 272 -22 q 71 389 71 217 q 172 681 71 561 q 417 800 272 800 m 417 743 q 213 639 297 743 q 128 389 128 535 q 213 139 128 243 q 417 35 297 35 q 620 138 535 35 q 706 385 706 242 q 622 639 706 535 q 417 743 538 743 z "},"Õ":{"ha":833,"x_min":71,"x_max":763,"o":"m 503 910 q 561 942 528 910 q 604 974 594 974 q 624 965 615 974 q 632 946 632 957 q 588 889 632 925 q 506 853 544 853 q 410 886 469 853 q 333 919 350 919 q 272 888 299 919 q 229 857 246 857 q 210 865 218 857 q 201 883 201 872 q 247 942 201 908 q 332 976 292 976 q 424 943 364 976 q 503 910 485 910 m 417 800 q 663 680 564 800 q 763 383 763 560 q 661 97 763 215 q 417 -22 560 -22 q 172 97 272 -22 q 71 389 71 217 q 172 681 71 561 q 417 800 272 800 m 417 743 q 213 639 297 743 q 128 389 128 535 q 213 139 128 243 q 417 35 297 35 q 620 138 535 35 q 706 385 706 242 q 622 639 706 535 q 417 743 538 743 z "},"Ö":{"ha":833,"x_min":71,"x_max":763,"o":"m 264 982 q 313 961 293 982 q 333 911 333 940 q 313 863 333 883 q 264 843 292 843 q 215 864 236 843 q 194 913 194 885 q 215 961 194 940 q 264 982 236 982 m 571 982 q 620 961 600 982 q 640 911 640 940 q 619 863 640 883 q 571 843 599 843 q 522 864 543 843 q 501 913 501 885 q 522 961 501 940 q 571 982 543 982 m 417 800 q 663 680 564 800 q 763 383 763 560 q 661 97 763 215 q 417 -22 560 -22 q 172 97 272 -22 q 71 389 71 217 q 172 681 71 561 q 417 800 272 800 m 417 743 q 213 639 297 743 q 128 389 128 535 q 213 139 128 243 q 417 35 297 35 q 620 138 535 35 q 706 385 706 242 q 622 639 706 535 q 417 743 538 743 z "},"×":{"ha":833,"x_min":164,"x_max":669,"o":"m 417 432 l 614 629 q 640 644 629 644 q 660 636 651 644 q 669 615 669 628 q 654 589 669 604 l 457 392 l 654 193 q 669 167 669 179 q 661 147 669 156 q 640 139 653 139 q 614 153 628 139 l 417 351 l 219 153 q 193 139 204 139 q 172 147 181 139 q 164 167 164 156 q 178 193 164 179 l 376 392 l 178 589 q 164 615 164 604 q 172 636 164 628 q 193 644 181 644 q 218 629 203 644 l 417 432 z "},"Ø":{"ha":833,"x_min":56,"x_max":778,"o":"m 196 71 l 106 -43 q 81 -60 93 -60 q 63 -52 69 -60 q 56 -35 56 -44 q 67 -12 56 -26 l 163 108 q 71 389 71 231 q 172 681 71 561 q 417 800 272 800 q 636 708 536 800 l 728 824 q 753 840 740 840 q 771 833 764 840 q 778 815 778 825 q 767 793 778 808 l 669 671 q 763 389 763 556 q 662 97 763 217 q 417 -22 561 -22 q 196 71 292 -22 m 200 156 l 600 661 q 417 743 518 743 q 213 639 297 743 q 128 389 128 535 q 200 156 128 263 m 633 624 l 232 117 q 417 35 314 35 q 621 139 536 35 q 706 389 706 243 q 633 624 706 519 z "},"Ù":{"ha":833,"x_min":56,"x_max":778,"o":"m 693 725 l 693 257 q 613 58 693 139 q 417 -22 533 -22 q 219 58 299 -22 q 140 257 140 138 l 140 725 l 93 725 q 56 754 56 725 q 93 782 56 782 l 300 782 q 338 754 338 782 q 300 725 338 725 l 197 725 l 197 257 q 260 99 197 163 q 417 35 324 35 q 572 99 508 35 q 636 257 636 164 l 636 725 l 533 725 q 496 754 496 725 q 533 782 496 782 l 740 782 q 778 754 778 782 q 740 725 778 725 l 693 725 z "},"Ú":{"ha":833,"x_min":56,"x_max":778,"o":"m 693 725 l 693 257 q 613 58 693 139 q 417 -22 533 -22 q 219 58 299 -22 q 140 257 140 138 l 140 725 l 93 725 q 56 754 56 725 q 93 782 56 782 l 300 782 q 338 754 338 782 q 300 725 338 725 l 197 725 l 197 257 q 260 99 197 163 q 417 35 324 35 q 572 99 508 35 q 636 257 636 164 l 636 725 l 533 725 q 496 754 496 725 q 533 782 496 782 l 740 782 q 778 754 778 782 q 740 725 778 725 l 693 725 z "},"Û":{"ha":833,"x_min":56,"x_max":778,"o":"m 417 1054 l 600 904 q 618 875 618 889 q 610 856 618 864 q 590 847 601 847 q 565 858 581 847 l 417 981 l 268 858 q 243 847 253 847 q 224 856 232 847 q 215 875 215 864 q 233 903 215 886 l 417 1054 m 693 725 l 693 257 q 613 58 693 139 q 417 -22 533 -22 q 219 58 299 -22 q 140 257 140 138 l 140 725 l 93 725 q 56 754 56 725 q 93 782 56 782 l 300 782 q 338 754 338 782 q 300 725 338 725 l 197 725 l 197 257 q 260 99 197 163 q 417 35 324 35 q 572 99 508 35 q 636 257 636 164 l 636 725 l 533 725 q 496 754 496 725 q 533 782 496 782 l 740 782 q 778 754 778 782 q 740 725 778 725 l 693 725 z "},"Ü":{"ha":833,"x_min":56,"x_max":778,"o":"m 264 982 q 313 961 293 982 q 333 911 333 940 q 313 863 333 883 q 264 843 292 843 q 215 864 236 843 q 194 913 194 885 q 215 961 194 940 q 264 982 236 982 m 571 982 q 620 961 600 982 q 640 911 640 940 q 619 863 640 883 q 571 843 599 843 q 522 864 543 843 q 501 913 501 885 q 522 961 501 940 q 571 982 543 982 m 693 725 l 693 257 q 613 58 693 139 q 417 -22 533 -22 q 219 58 299 -22 q 140 257 140 138 l 140 725 l 93 725 q 56 754 56 725 q 93 782 56 782 l 300 782 q 338 754 338 782 q 300 725 338 725 l 197 725 l 197 257 q 260 99 197 163 q 417 35 324 35 q 572 99 508 35 q 636 257 636 164 l 636 725 l 533 725 q 496 754 496 725 q 533 782 496 782 l 740 782 q 778 754 778 782 q 740 725 778 725 l 693 725 z "},"Ý":{"ha":833,"x_min":71,"x_max":763,"o":"m 447 353 l 447 57 l 593 57 q 631 29 631 57 q 593 0 631 0 l 244 0 q 207 29 207 0 q 244 57 207 57 l 390 57 l 390 353 l 142 725 l 108 725 q 71 754 71 725 q 108 782 71 782 l 263 782 q 300 754 300 782 q 263 725 300 725 l 210 725 l 421 410 l 628 725 l 572 725 q 533 754 533 725 q 572 782 533 782 l 725 782 q 763 754 763 782 q 725 725 763 725 l 692 725 l 447 353 z "},"Þ":{"ha":833,"x_min":60,"x_max":693,"o":"m 229 154 l 229 57 l 421 57 q 460 29 460 57 q 421 0 460 0 l 97 0 q 60 29 60 0 q 97 57 60 57 l 172 57 l 172 725 l 97 725 q 60 754 60 725 q 97 782 60 782 l 421 782 q 460 754 460 782 q 421 725 460 725 l 229 725 l 229 615 l 431 615 q 617 549 542 615 q 693 386 693 483 q 611 222 693 289 q 411 154 529 154 l 229 154 m 229 211 l 415 211 q 571 263 506 211 q 636 386 636 314 q 577 508 636 457 q 436 558 518 558 l 229 558 l 229 211 z "},"ß":{"ha":833,"x_min":32,"x_max":690,"o":"m 633 225 q 603 342 633 292 q 527 417 572 392 q 442 453 482 442 q 374 464 403 464 l 367 464 q 329 493 329 464 q 361 521 329 521 l 368 521 q 461 556 421 521 q 501 638 501 592 q 456 739 501 696 q 349 782 410 782 q 246 743 290 782 q 201 653 201 704 l 201 57 l 222 57 q 260 29 260 57 q 222 0 260 0 l 69 0 q 32 29 32 0 q 69 57 32 57 l 144 57 l 144 653 q 206 783 144 726 q 349 839 268 839 q 498 781 438 839 q 558 636 558 724 q 478 499 558 553 q 690 224 690 435 q 640 42 690 107 q 500 -22 590 -22 q 381 25 429 -22 q 332 140 332 72 q 360 172 332 172 q 385 151 375 172 q 403 103 396 129 q 435 56 410 78 q 500 35 460 35 q 599 83 564 35 q 633 225 633 132 z "},"à":{"ha":833,"x_min":100,"x_max":751,"o":"m 174 525 q 268 577 174 556 q 415 599 363 599 q 576 550 513 599 q 639 428 639 501 l 639 57 l 714 57 q 751 29 751 57 q 714 0 751 0 l 582 0 l 582 93 q 317 -22 458 -22 q 160 27 219 -22 q 100 156 100 76 q 181 302 100 246 q 393 358 263 358 q 582 329 475 358 l 582 428 q 535 510 582 479 q 411 542 488 542 q 279 519 347 542 q 200 497 211 497 q 181 506 189 497 q 174 525 174 514 m 582 156 l 582 281 q 404 301 499 301 q 226 260 294 301 q 157 154 157 219 q 200 67 157 100 q 315 35 243 35 q 451 63 389 35 q 582 156 513 90 z "},"á":{"ha":833,"x_min":100,"x_max":751,"o":"m 174 525 q 268 577 174 556 q 415 599 363 599 q 576 550 513 599 q 639 428 639 501 l 639 57 l 714 57 q 751 29 751 57 q 714 0 751 0 l 582 0 l 582 93 q 317 -22 458 -22 q 160 27 219 -22 q 100 156 100 76 q 181 302 100 246 q 393 358 263 358 q 582 329 475 358 l 582 428 q 535 510 582 479 q 411 542 488 542 q 279 519 347 542 q 200 497 211 497 q 181 506 189 497 q 174 525 174 514 m 582 156 l 582 281 q 404 301 499 301 q 226 260 294 301 q 157 154 157 219 q 200 67 157 100 q 315 35 243 35 q 451 63 389 35 q 582 156 513 90 z "},"â":{"ha":833,"x_min":100,"x_max":751,"o":"m 401 869 l 585 719 q 603 690 603 704 q 594 671 603 679 q 575 663 586 663 q 550 674 565 663 l 401 796 l 253 674 q 228 663 238 663 q 208 671 217 663 q 200 690 200 679 q 218 718 200 701 l 401 869 m 174 525 q 268 577 174 556 q 415 599 363 599 q 576 550 513 599 q 639 428 639 501 l 639 57 l 714 57 q 751 29 751 57 q 714 0 751 0 l 582 0 l 582 93 q 317 -22 458 -22 q 160 27 219 -22 q 100 156 100 76 q 181 302 100 246 q 393 358 263 358 q 582 329 475 358 l 582 428 q 535 510 582 479 q 411 542 488 542 q 279 519 347 542 q 200 497 211 497 q 181 506 189 497 q 174 525 174 514 m 582 156 l 582 281 q 404 301 499 301 q 226 260 294 301 q 157 154 157 219 q 200 67 157 100 q 315 35 243 35 q 451 63 389 35 q 582 156 513 90 z "},"ã":{"ha":833,"x_min":100,"x_max":751,"o":"m 501 739 q 560 771 526 739 q 603 803 593 803 q 622 794 614 803 q 631 775 631 786 q 587 718 631 754 q 504 682 543 682 q 408 715 468 682 q 332 749 349 749 q 271 717 297 749 q 228 686 244 686 q 208 694 217 686 q 200 713 200 701 q 245 772 200 738 q 331 806 290 806 q 423 772 363 806 q 501 739 483 739 m 174 525 q 268 577 174 556 q 415 599 363 599 q 576 550 513 599 q 639 428 639 501 l 639 57 l 714 57 q 751 29 751 57 q 714 0 751 0 l 582 0 l 582 93 q 317 -22 458 -22 q 160 27 219 -22 q 100 156 100 76 q 181 302 100 246 q 393 358 263 358 q 582 329 475 358 l 582 428 q 535 510 582 479 q 411 542 488 542 q 279 519 347 542 q 200 497 211 497 q 181 506 189 497 q 174 525 174 514 m 582 156 l 582 281 q 404 301 499 301 q 226 260 294 301 q 157 154 157 219 q 200 67 157 100 q 315 35 243 35 q 451 63 389 35 q 582 156 513 90 z "},"ä":{"ha":833,"x_min":100,"x_max":751,"o":"m 247 821 q 297 800 276 821 q 317 750 317 779 q 296 702 317 722 q 247 682 275 682 q 199 703 219 682 q 178 751 178 724 q 199 800 178 779 q 247 821 219 821 m 554 821 q 603 800 583 821 q 624 750 624 779 q 603 702 624 722 q 554 682 582 682 q 506 703 526 682 q 485 751 485 724 q 506 800 485 779 q 554 821 526 821 m 174 525 q 268 577 174 556 q 415 599 363 599 q 576 550 513 599 q 639 428 639 501 l 639 57 l 714 57 q 751 29 751 57 q 714 0 751 0 l 582 0 l 582 93 q 317 -22 458 -22 q 160 27 219 -22 q 100 156 100 76 q 181 302 100 246 q 393 358 263 358 q 582 329 475 358 l 582 428 q 535 510 582 479 q 411 542 488 542 q 279 519 347 542 q 200 497 211 497 q 181 506 189 497 q 174 525 174 514 m 582 156 l 582 281 q 404 301 499 301 q 226 260 294 301 q 157 154 157 219 q 200 67 157 100 q 315 35 243 35 q 451 63 389 35 q 582 156 513 90 z "},"å":{"ha":833,"x_min":100,"x_max":751,"o":"m 415 933 q 507 897 469 933 q 544 806 544 860 q 506 719 544 756 q 415 682 468 682 q 324 719 363 682 q 286 808 286 757 q 324 897 286 860 q 415 933 363 933 m 474 864 q 462 876 474 864 q 415 888 450 888 q 356 864 381 888 q 332 808 332 840 q 356 751 332 775 q 415 728 381 728 q 474 751 450 728 q 499 807 499 775 q 474 864 499 840 m 174 525 q 268 577 174 556 q 415 599 363 599 q 576 550 513 599 q 639 428 639 501 l 639 57 l 714 57 q 751 29 751 57 q 714 0 751 0 l 582 0 l 582 93 q 317 -22 458 -22 q 160 27 219 -22 q 100 156 100 76 q 181 302 100 246 q 393 358 263 358 q 582 329 475 358 l 582 428 q 535 510 582 479 q 411 542 488 542 q 279 519 347 542 q 200 497 211 497 q 181 506 189 497 q 174 525 174 514 m 582 156 l 582 281 q 404 301 499 301 q 226 260 294 301 q 157 154 157 219 q 200 67 157 100 q 315 35 243 35 q 451 63 389 35 q 582 156 513 90 z "},"æ":{"ha":833,"x_min":17,"x_max":803,"o":"m 99 525 q 167 576 99 554 q 276 599 235 599 q 371 567 328 599 q 433 482 414 535 q 503 567 458 536 q 597 599 547 599 q 749 512 699 599 q 801 276 799 425 l 443 276 q 500 103 450 171 q 619 35 550 35 q 686 56 654 35 q 741 99 718 78 q 775 121 764 121 q 794 113 786 121 q 803 93 803 104 q 738 24 803 69 q 617 -22 674 -22 q 444 85 514 -22 l 444 38 q 417 0 444 0 q 389 38 389 0 l 389 72 q 222 -22 311 -22 q 75 36 133 -22 q 17 183 17 94 q 91 308 17 258 q 271 357 165 357 q 389 340 328 357 l 389 424 q 353 507 389 472 q 267 542 318 542 q 174 519 217 542 q 125 497 131 497 q 107 506 115 497 q 99 525 99 515 m 389 153 l 389 282 q 279 300 328 300 q 183 283 235 300 q 108 244 132 267 q 79 168 79 215 q 120 72 79 110 q 225 35 161 35 q 389 153 296 35 m 743 333 q 732 401 738 374 q 711 465 726 428 q 667 522 696 501 q 596 542 638 542 q 444 333 472 542 l 743 333 z "},"ç":{"ha":833,"x_min":117,"x_max":743,"o":"m 743 122 q 732 97 743 113 q 695 63 721 82 q 635 25 669 43 q 549 -6 601 7 q 438 -22 497 -19 l 438 -65 q 528 -150 528 -68 q 497 -215 528 -190 q 418 -240 467 -240 q 339 -224 382 -240 q 296 -186 296 -207 q 304 -167 296 -175 q 324 -158 313 -158 q 360 -173 329 -158 q 415 -187 390 -187 q 459 -176 442 -187 q 476 -147 476 -165 q 414 -112 476 -112 l 385 -112 l 385 -19 q 263 19 315 -10 q 184 83 211 49 q 141 160 157 117 q 121 231 125 203 q 117 283 117 258 q 207 510 117 421 q 436 599 297 599 q 653 522 565 599 l 653 540 q 682 579 653 579 q 710 540 710 579 l 710 414 q 682 376 710 376 q 653 410 654 376 q 583 503 647 465 q 432 542 519 542 q 245 470 317 542 q 174 285 174 399 q 246 105 174 175 q 432 35 318 35 q 692 135 583 35 q 717 149 706 149 q 735 141 728 149 q 743 122 743 133 z "},"è":{"ha":833,"x_min":88,"x_max":722,"o":"m 722 276 l 144 276 q 236 101 160 167 q 425 35 313 35 q 558 56 490 35 q 668 110 626 76 q 690 119 682 119 q 709 111 701 119 q 717 92 717 103 q 617 17 717 56 q 424 -22 518 -22 q 185 72 283 -22 q 88 301 88 167 q 179 513 88 428 q 404 599 271 599 q 633 510 544 599 q 722 276 722 422 m 144 333 l 664 333 q 576 485 647 428 q 404 542 506 542 q 233 485 303 542 q 144 333 164 429 z "},"é":{"ha":833,"x_min":88,"x_max":722,"o":"m 722 276 l 144 276 q 236 101 160 167 q 425 35 313 35 q 558 56 490 35 q 668 110 626 76 q 690 119 682 119 q 709 111 701 119 q 717 92 717 103 q 617 17 717 56 q 424 -22 518 -22 q 185 72 283 -22 q 88 301 88 167 q 179 513 88 428 q 404 599 271 599 q 633 510 544 599 q 722 276 722 422 m 144 333 l 664 333 q 576 485 647 428 q 404 542 506 542 q 233 485 303 542 q 144 333 164 429 z "},"ê":{"ha":833,"x_min":88,"x_max":722,"o":"m 421 867 l 604 717 q 622 688 622 701 q 614 668 622 676 q 594 660 606 660 q 569 671 585 660 l 421 793 l 272 671 q 247 660 257 660 q 228 668 236 660 q 219 688 219 676 q 238 715 219 699 l 421 867 m 722 276 l 144 276 q 236 101 160 167 q 425 35 313 35 q 558 56 490 35 q 668 110 626 76 q 690 119 682 119 q 709 111 701 119 q 717 92 717 103 q 617 17 717 56 q 424 -22 518 -22 q 185 72 283 -22 q 88 301 88 167 q 179 513 88 428 q 404 599 271 599 q 633 510 544 599 q 722 276 722 422 m 144 333 l 664 333 q 576 485 647 428 q 404 542 506 542 q 233 485 303 542 q 144 333 164 429 z "},"ë":{"ha":833,"x_min":88,"x_max":722,"o":"m 269 821 q 319 800 299 821 q 339 750 339 779 q 318 702 339 722 q 269 682 297 682 q 221 703 242 682 q 200 751 200 724 q 221 800 200 779 q 269 821 242 821 m 576 821 q 626 800 606 821 q 646 750 646 779 q 625 702 646 722 q 576 682 604 682 q 528 703 549 682 q 507 751 507 724 q 528 800 507 779 q 576 821 549 821 m 722 276 l 144 276 q 236 101 160 167 q 425 35 313 35 q 558 56 490 35 q 668 110 626 76 q 690 119 682 119 q 709 111 701 119 q 717 92 717 103 q 617 17 717 56 q 424 -22 518 -22 q 185 72 283 -22 q 88 301 88 167 q 179 513 88 428 q 404 599 271 599 q 633 510 544 599 q 722 276 722 422 m 144 333 l 664 333 q 576 485 647 428 q 404 542 506 542 q 233 485 303 542 q 144 333 164 429 z "},"ì":{"ha":833,"x_min":128,"x_max":706,"o":"m 444 579 l 444 57 l 667 57 q 706 29 706 57 q 667 0 706 0 l 165 0 q 128 29 128 0 q 165 57 128 57 l 388 57 l 388 522 l 224 522 q 186 551 186 522 q 224 579 186 579 l 444 579 z "},"í":{"ha":833,"x_min":128,"x_max":706,"o":"m 444 579 l 444 57 l 667 57 q 706 29 706 57 q 667 0 706 0 l 165 0 q 128 29 128 0 q 165 57 128 57 l 388 57 l 388 522 l 224 522 q 186 551 186 522 q 224 579 186 579 l 444 579 z "},"î":{"ha":833,"x_min":128,"x_max":706,"o":"m 390 872 l 574 722 q 592 693 592 707 q 583 674 592 682 q 564 665 575 665 q 539 676 554 665 l 390 799 l 242 676 q 217 665 226 665 q 197 674 206 665 q 189 693 189 682 q 207 721 189 704 l 390 872 m 444 579 l 444 57 l 667 57 q 706 29 706 57 q 667 0 706 0 l 165 0 q 128 29 128 0 q 165 57 128 57 l 388 57 l 388 522 l 224 522 q 186 551 186 522 q 224 579 186 579 l 444 579 z "},"ï":{"ha":833,"x_min":128,"x_max":706,"o":"m 244 821 q 294 800 274 821 q 314 750 314 779 q 293 702 314 722 q 244 682 272 682 q 196 703 217 682 q 175 751 175 724 q 196 800 175 779 q 244 821 217 821 m 551 821 q 601 800 581 821 q 621 750 621 779 q 600 702 621 722 q 551 682 579 682 q 503 703 524 682 q 482 751 482 724 q 503 800 482 779 q 551 821 524 821 m 444 579 l 444 57 l 667 57 q 706 29 706 57 q 667 0 706 0 l 165 0 q 128 29 128 0 q 165 57 128 57 l 388 57 l 388 522 l 224 522 q 186 551 186 522 q 224 579 186 579 l 444 579 z "},"ð":{"ha":833,"x_min":100,"x_max":733,"o":"m 385 763 q 318 788 350 778 q 270 802 286 799 q 242 809 254 806 q 225 817 229 813 q 221 831 221 821 q 229 853 221 844 q 250 861 238 861 q 456 794 315 861 l 588 853 l 597 854 q 616 846 608 854 q 624 825 624 838 q 611 801 624 807 l 507 754 q 672 544 611 665 q 733 307 733 422 q 642 67 733 157 q 417 -24 550 -24 q 192 67 285 -24 q 100 288 100 157 q 192 506 100 415 q 414 597 283 597 q 515 581 471 597 q 617 524 560 564 q 449 729 543 661 l 322 671 q 313 669 319 669 q 293 679 301 669 q 285 701 285 689 q 297 724 285 719 l 385 763 m 418 542 q 234 468 310 542 q 158 289 158 394 q 234 109 158 183 q 418 35 310 35 q 601 108 525 35 q 678 285 678 182 q 603 468 678 394 q 418 542 528 542 z "},"ñ":{"ha":833,"x_min":74,"x_max":751,"o":"m 489 739 q 547 771 514 739 q 590 803 581 803 q 610 794 601 803 q 618 775 618 786 q 574 718 618 754 q 492 682 531 682 q 396 715 456 682 q 319 749 336 749 q 258 717 285 749 q 215 686 232 686 q 196 694 204 686 q 188 713 188 701 q 233 772 188 738 q 318 806 278 806 q 410 772 350 806 q 489 739 471 739 m 443 542 q 395 537 418 542 q 352 522 372 532 q 318 502 332 511 q 288 476 304 493 q 266 452 272 460 q 247 427 260 444 q 232 408 233 410 l 232 57 l 294 57 q 332 29 332 57 q 294 0 332 0 l 113 0 q 74 29 74 0 q 113 57 74 57 l 175 57 l 175 522 l 128 522 q 90 551 90 522 q 128 579 90 579 l 232 579 l 232 483 q 338 574 292 550 q 449 599 383 599 q 604 544 542 599 q 667 410 667 490 l 667 57 l 714 57 q 751 29 751 57 q 714 0 751 0 l 563 0 q 525 29 525 0 q 563 57 525 57 l 610 57 l 610 400 q 565 501 610 460 q 443 542 519 542 z "},"ò":{"ha":833,"x_min":100,"x_max":733,"o":"m 417 599 q 642 508 550 599 q 733 285 733 417 q 640 67 733 157 q 417 -22 547 -22 q 192 68 285 -22 q 100 289 100 158 q 192 508 100 417 q 417 599 285 599 m 417 542 q 233 468 308 542 q 157 289 157 394 q 233 109 157 183 q 417 35 308 35 q 600 108 524 35 q 676 285 676 182 q 601 468 676 394 q 417 542 526 542 z "},"ó":{"ha":833,"x_min":100,"x_max":733,"o":"m 417 599 q 642 508 550 599 q 733 285 733 417 q 640 67 733 157 q 417 -22 547 -22 q 192 68 285 -22 q 100 289 100 158 q 192 508 100 417 q 417 599 285 599 m 417 542 q 233 468 308 542 q 157 289 157 394 q 233 109 157 183 q 417 35 308 35 q 600 108 524 35 q 676 285 676 182 q 601 468 676 394 q 417 542 526 542 z "},"ô":{"ha":833,"x_min":100,"x_max":733,"o":"m 417 875 l 600 725 q 618 696 618 710 q 610 676 618 685 q 590 668 601 668 q 565 679 581 668 l 417 801 l 268 679 q 243 668 253 668 q 224 676 232 668 q 215 696 215 685 q 233 724 215 707 l 417 875 m 417 599 q 642 508 550 599 q 733 285 733 417 q 640 67 733 157 q 417 -22 547 -22 q 192 68 285 -22 q 100 289 100 158 q 192 508 100 417 q 417 599 285 599 m 417 542 q 233 468 308 542 q 157 289 157 394 q 233 109 157 183 q 417 35 308 35 q 600 108 524 35 q 676 285 676 182 q 601 468 676 394 q 417 542 526 542 z "},"õ":{"ha":833,"x_min":100,"x_max":733,"o":"m 503 739 q 561 771 528 739 q 604 803 594 803 q 624 794 615 803 q 632 775 632 786 q 588 718 632 754 q 506 682 544 682 q 410 715 469 682 q 333 749 350 749 q 272 717 299 749 q 229 686 246 686 q 210 694 218 686 q 201 713 201 701 q 247 772 201 738 q 332 806 292 806 q 424 772 364 806 q 503 739 485 739 m 417 599 q 642 508 550 599 q 733 285 733 417 q 640 67 733 157 q 417 -22 547 -22 q 192 68 285 -22 q 100 289 100 158 q 192 508 100 417 q 417 599 285 599 m 417 542 q 233 468 308 542 q 157 289 157 394 q 233 109 157 183 q 417 35 308 35 q 600 108 524 35 q 676 285 676 182 q 601 468 676 394 q 417 542 526 542 z "},"ö":{"ha":833,"x_min":100,"x_max":733,"o":"m 264 821 q 313 800 293 821 q 333 750 333 779 q 313 702 333 722 q 264 682 292 682 q 215 703 236 682 q 194 751 194 724 q 215 800 194 779 q 264 821 236 821 m 571 821 q 620 800 600 821 q 640 750 640 779 q 619 702 640 722 q 571 682 599 682 q 522 703 543 682 q 501 751 501 724 q 522 800 501 779 q 571 821 543 821 m 417 599 q 642 508 550 599 q 733 285 733 417 q 640 67 733 157 q 417 -22 547 -22 q 192 68 285 -22 q 100 289 100 158 q 192 508 100 417 q 417 599 285 599 m 417 542 q 233 468 308 542 q 157 289 157 394 q 233 109 157 183 q 417 35 308 35 q 600 108 524 35 q 676 285 676 182 q 601 468 676 394 q 417 542 526 542 z "},"÷":{"ha":833,"x_min":100,"x_max":733,"o":"m 696 364 l 138 364 q 100 392 100 364 q 138 419 100 419 l 696 419 q 733 392 733 419 q 696 364 733 364 m 417 172 q 466 152 446 172 q 486 103 486 132 q 465 55 486 75 q 417 35 444 35 q 369 55 389 35 q 349 104 349 75 q 369 152 349 132 q 417 172 389 172 m 417 750 q 466 730 446 750 q 486 681 486 710 q 465 633 486 653 q 417 613 444 613 q 369 633 389 613 q 349 682 349 653 q 369 730 349 710 q 417 750 389 750 z "},"ø":{"ha":833,"x_min":74,"x_max":754,"o":"m 214 49 l 122 -46 q 99 -60 108 -60 q 81 -52 89 -60 q 74 -35 74 -44 q 88 -11 74 -25 l 179 82 q 100 289 100 174 q 192 508 100 418 q 417 599 285 599 q 617 531 531 599 l 706 622 q 731 636 721 636 q 747 628 740 636 q 754 611 754 621 q 740 588 754 601 l 651 497 q 733 288 733 407 q 641 68 733 158 q 417 -22 549 -22 q 214 49 306 -22 m 613 457 l 254 90 q 417 35 325 35 q 601 108 525 35 q 676 288 676 182 q 613 457 676 382 m 219 124 l 576 489 q 417 542 507 542 q 233 468 308 542 q 157 289 157 394 q 219 124 157 194 z "},"ù":{"ha":833,"x_min":60,"x_max":751,"o":"m 610 0 l 610 92 q 357 -22 493 -22 q 223 28 274 -22 q 172 160 172 78 l 172 522 l 97 522 q 60 551 60 522 q 97 579 60 579 l 229 579 l 229 160 q 266 71 229 107 q 356 35 303 35 q 610 160 494 35 l 610 522 l 507 522 q 468 551 468 522 q 507 579 468 579 l 667 579 l 667 57 l 714 57 q 751 29 751 57 q 714 0 751 0 l 610 0 z "},"ú":{"ha":833,"x_min":60,"x_max":751,"o":"m 610 0 l 610 92 q 357 -22 493 -22 q 223 28 274 -22 q 172 160 172 78 l 172 522 l 97 522 q 60 551 60 522 q 97 579 60 579 l 229 579 l 229 160 q 266 71 229 107 q 356 35 303 35 q 610 160 494 35 l 610 522 l 507 522 q 468 551 468 522 q 507 579 468 579 l 667 579 l 667 57 l 714 57 q 751 29 751 57 q 714 0 751 0 l 610 0 z "},"û":{"ha":833,"x_min":60,"x_max":751,"o":"m 408 869 l 592 719 q 610 690 610 704 q 601 671 610 679 q 582 663 593 663 q 557 674 572 663 l 408 796 l 260 674 q 235 663 244 663 q 215 671 224 663 q 207 690 207 679 q 225 718 207 701 l 408 869 m 610 0 l 610 92 q 357 -22 493 -22 q 223 28 274 -22 q 172 160 172 78 l 172 522 l 97 522 q 60 551 60 522 q 97 579 60 579 l 229 579 l 229 160 q 266 71 229 107 q 356 35 303 35 q 610 160 494 35 l 610 522 l 507 522 q 468 551 468 522 q 507 579 468 579 l 667 579 l 667 57 l 714 57 q 751 29 751 57 q 714 0 751 0 l 610 0 z "},"ü":{"ha":833,"x_min":60,"x_max":751,"o":"m 253 821 q 302 800 282 821 q 322 750 322 779 q 301 702 322 722 q 253 682 281 682 q 204 703 225 682 q 183 751 183 724 q 204 800 183 779 q 253 821 225 821 m 560 821 q 609 800 589 821 q 629 750 629 779 q 608 702 629 722 q 560 682 588 682 q 511 703 532 682 q 490 751 490 724 q 511 800 490 779 q 560 821 532 821 m 610 0 l 610 92 q 357 -22 493 -22 q 223 28 274 -22 q 172 160 172 78 l 172 522 l 97 522 q 60 551 60 522 q 97 579 60 579 l 229 579 l 229 160 q 266 71 229 107 q 356 35 303 35 q 610 160 494 35 l 610 522 l 507 522 q 468 551 468 522 q 507 579 468 579 l 667 579 l 667 57 l 714 57 q 751 29 751 57 q 714 0 751 0 l 610 0 z "},"ý":{"ha":833,"x_min":71,"x_max":763,"o":"m 392 0 l 131 522 l 108 522 q 71 551 71 522 q 108 579 71 579 l 268 579 q 306 551 306 579 q 268 522 306 522 l 196 522 l 424 63 l 647 522 l 572 522 q 535 551 535 522 q 572 579 535 579 l 725 579 q 763 551 763 579 q 725 522 763 522 l 706 522 l 350 -201 l 440 -201 q 478 -229 478 -201 q 440 -258 478 -258 l 117 -258 q 79 -229 79 -258 q 117 -201 79 -201 l 293 -201 l 392 0 z "},"þ":{"ha":833,"x_min":31,"x_max":751,"o":"m 200 819 l 200 465 q 313 568 256 538 q 449 599 369 599 q 665 515 578 599 q 751 307 751 431 q 664 99 751 183 q 449 14 576 14 q 200 147 293 14 l 200 -201 l 336 -201 q 374 -229 374 -201 q 336 -258 374 -258 l 68 -258 q 31 -229 31 -258 q 68 -201 31 -201 l 143 -201 l 143 763 l 68 763 q 31 792 31 763 q 68 819 31 819 l 200 819 m 447 542 q 272 473 344 542 q 200 307 200 404 q 272 140 200 208 q 447 71 344 71 q 622 139 550 71 q 694 304 694 207 q 624 474 694 406 q 447 542 553 542 z "},"ÿ":{"ha":833,"x_min":71,"x_max":763,"o":"m 264 821 q 313 800 293 821 q 333 750 333 779 q 313 702 333 722 q 264 682 292 682 q 215 703 236 682 q 194 751 194 724 q 215 800 194 779 q 264 821 236 821 m 571 821 q 620 800 600 821 q 640 750 640 779 q 619 702 640 722 q 571 682 599 682 q 522 703 543 682 q 501 751 501 724 q 522 800 501 779 q 571 821 543 821 m 392 0 l 131 522 l 108 522 q 71 551 71 522 q 108 579 71 579 l 268 579 q 306 551 306 579 q 268 522 306 522 l 196 522 l 424 63 l 647 522 l 572 522 q 535 551 535 522 q 572 579 535 579 l 725 579 q 763 551 763 579 q 725 522 763 522 l 706 522 l 350 -201 l 440 -201 q 478 -229 478 -201 q 440 -258 478 -258 l 117 -258 q 79 -229 79 -258 q 117 -201 79 -201 l 293 -201 l 392 0 z "},"Ā":{"ha":833,"x_min":13,"x_max":821,"o":"m 594 261 l 225 261 l 150 57 l 260 57 q 297 29 297 57 q 260 0 297 0 l 50 0 q 13 29 13 0 q 50 57 13 57 l 93 57 l 342 725 l 175 725 q 138 754 138 725 q 175 782 138 782 l 458 782 l 732 57 l 783 57 q 821 29 821 57 q 783 0 821 0 l 567 0 q 529 29 529 0 q 567 57 529 57 l 672 57 l 594 261 m 574 318 l 418 725 l 397 725 l 247 318 l 574 318 z "},"ā":{"ha":833,"x_min":100,"x_max":751,"o":"m 174 525 q 268 577 174 556 q 415 599 363 599 q 576 550 513 599 q 639 428 639 501 l 639 57 l 714 57 q 751 29 751 57 q 714 0 751 0 l 582 0 l 582 93 q 317 -22 458 -22 q 160 27 219 -22 q 100 156 100 76 q 181 302 100 246 q 393 358 263 358 q 582 329 475 358 l 582 428 q 535 510 582 479 q 411 542 488 542 q 279 519 347 542 q 200 497 211 497 q 181 506 189 497 q 174 525 174 514 m 582 156 l 582 281 q 404 301 499 301 q 226 260 294 301 q 157 154 157 219 q 200 67 157 100 q 315 35 243 35 q 451 63 389 35 q 582 156 513 90 z "},"Ă":{"ha":833,"x_min":13,"x_max":821,"o":"m 242 1032 q 269 1001 265 1032 q 314 935 272 961 q 414 908 356 908 q 513 935 472 908 q 558 1001 554 961 q 588 1032 563 1032 q 607 1023 599 1032 q 615 1000 615 1014 q 557 894 615 938 q 414 851 499 851 q 271 894 329 851 q 213 1000 213 938 q 242 1032 213 1032 m 594 261 l 225 261 l 150 57 l 260 57 q 297 29 297 57 q 260 0 297 0 l 50 0 q 13 29 13 0 q 50 57 13 57 l 93 57 l 342 725 l 175 725 q 138 754 138 725 q 175 782 138 782 l 458 782 l 732 57 l 783 57 q 821 29 821 57 q 783 0 821 0 l 567 0 q 529 29 529 0 q 567 57 529 57 l 672 57 l 594 261 m 574 318 l 418 725 l 397 725 l 247 318 l 574 318 z "},"ă":{"ha":833,"x_min":100,"x_max":751,"o":"m 243 865 q 271 835 267 865 q 315 768 274 794 q 415 742 357 742 q 515 768 474 742 q 560 835 556 794 q 589 865 564 865 q 608 856 600 865 q 617 833 617 847 q 558 728 617 771 q 415 685 500 685 q 272 728 331 685 q 214 833 214 771 q 243 865 214 865 m 174 525 q 268 577 174 556 q 415 599 363 599 q 576 550 513 599 q 639 428 639 501 l 639 57 l 714 57 q 751 29 751 57 q 714 0 751 0 l 582 0 l 582 93 q 317 -22 458 -22 q 160 27 219 -22 q 100 156 100 76 q 181 302 100 246 q 393 358 263 358 q 582 329 475 358 l 582 428 q 535 510 582 479 q 411 542 488 542 q 279 519 347 542 q 200 497 211 497 q 181 506 189 497 q 174 525 174 514 m 582 156 l 582 281 q 404 301 499 301 q 226 260 294 301 q 157 154 157 219 q 200 67 157 100 q 315 35 243 35 q 451 63 389 35 q 582 156 513 90 z "},"Ą":{"ha":833,"x_min":13,"x_max":835,"o":"m 736 -171 q 789 -158 767 -171 q 815 -144 811 -144 q 828 -151 822 -144 q 835 -165 835 -157 q 801 -199 835 -183 q 728 -215 767 -215 q 650 -193 678 -215 q 622 -131 622 -171 q 729 0 622 -50 l 567 0 q 529 29 529 0 q 567 57 529 57 l 672 57 l 594 261 l 225 261 l 150 57 l 260 57 q 297 29 297 57 q 260 0 297 0 l 50 0 q 13 29 13 0 q 50 57 13 57 l 93 57 l 342 725 l 175 725 q 138 754 138 725 q 175 782 138 782 l 458 782 l 732 57 l 783 57 q 821 29 821 57 q 783 0 821 0 l 794 0 l 757 -21 q 676 -124 676 -67 q 736 -171 676 -171 m 574 318 l 418 725 l 397 725 l 247 318 l 574 318 z "},"ą":{"ha":833,"x_min":100,"x_max":772,"o":"m 174 525 q 268 577 174 556 q 415 599 363 599 q 576 550 513 599 q 639 428 639 501 l 639 57 l 714 57 q 751 29 751 57 q 730 1 751 17 q 683 -28 708 -14 q 635 -69 657 -43 q 614 -124 614 -94 q 674 -171 614 -171 q 726 -158 704 -171 q 753 -144 749 -144 q 766 -151 760 -144 q 772 -165 772 -157 q 738 -199 772 -183 q 665 -215 704 -215 q 588 -193 615 -215 q 560 -131 560 -171 q 584 -58 560 -87 q 667 0 608 -28 l 582 0 l 582 93 q 317 -22 458 -22 q 160 27 219 -22 q 100 156 100 76 q 181 302 100 246 q 393 358 263 358 q 582 329 475 358 l 582 428 q 535 510 582 479 q 411 542 488 542 q 279 519 347 542 q 200 497 211 497 q 181 506 189 497 q 174 525 174 514 m 582 156 l 582 281 q 404 301 499 301 q 226 260 294 301 q 157 154 157 219 q 200 67 157 100 q 315 35 243 35 q 451 63 389 35 q 582 156 513 90 z "},"Ć":{"ha":833,"x_min":88,"x_max":742,"o":"m 88 451 q 95 516 88 478 q 126 606 103 554 q 185 699 150 657 q 282 770 219 740 q 424 800 344 800 q 664 704 564 800 l 664 744 q 693 782 664 782 q 721 744 721 782 l 721 589 q 692 551 721 551 q 664 585 667 551 q 588 696 660 649 q 424 743 517 743 q 226 655 308 743 q 144 443 144 567 l 144 344 q 235 127 144 219 q 447 35 325 35 q 576 64 519 35 q 689 160 633 93 q 714 174 701 174 q 742 147 742 174 q 719 108 742 135 q 661 52 697 82 q 567 0 625 22 q 447 -22 508 -22 q 197 87 306 -22 q 88 336 88 196 l 88 451 z "},"ć":{"ha":833,"x_min":117,"x_max":743,"o":"m 743 122 q 719 87 743 110 q 658 39 696 64 q 557 -4 619 14 q 429 -22 494 -22 q 205 64 293 -22 q 117 283 117 150 q 207 510 117 421 q 436 599 297 599 q 653 522 565 599 l 653 540 q 682 579 653 579 q 710 540 710 579 l 710 414 q 682 376 710 376 q 653 410 657 376 q 584 503 649 465 q 432 542 519 542 q 245 470 317 542 q 174 285 174 399 q 246 105 174 175 q 432 35 318 35 q 692 135 583 35 q 717 149 706 149 q 735 141 728 149 q 743 122 743 133 z "},"Ĉ":{"ha":833,"x_min":88,"x_max":742,"o":"m 424 1056 l 607 906 q 625 876 625 890 q 617 857 625 865 q 597 849 608 849 q 572 860 588 849 l 424 982 l 275 860 q 250 849 260 849 q 231 857 239 849 q 222 876 222 865 q 240 904 222 888 l 424 1056 m 88 451 q 95 516 88 478 q 126 606 103 554 q 185 699 150 657 q 282 770 219 740 q 424 800 344 800 q 664 704 564 800 l 664 744 q 693 782 664 782 q 721 744 721 782 l 721 589 q 692 551 721 551 q 664 585 667 551 q 588 696 660 649 q 424 743 517 743 q 226 655 308 743 q 144 443 144 567 l 144 344 q 235 127 144 219 q 447 35 325 35 q 576 64 519 35 q 689 160 633 93 q 714 174 701 174 q 742 147 742 174 q 719 108 742 135 q 661 52 697 82 q 567 0 625 22 q 447 -22 508 -22 q 197 87 306 -22 q 88 336 88 196 l 88 451 z "},"ĉ":{"ha":833,"x_min":117,"x_max":743,"o":"m 436 865 l 619 715 q 638 686 638 700 q 629 667 638 675 q 610 658 621 658 q 585 669 600 658 l 436 792 l 288 669 q 263 658 272 658 q 243 667 251 658 q 235 686 235 675 q 253 714 235 697 l 436 865 m 743 122 q 719 87 743 110 q 658 39 696 64 q 557 -4 619 14 q 429 -22 494 -22 q 205 64 293 -22 q 117 283 117 150 q 207 510 117 421 q 436 599 297 599 q 653 522 565 599 l 653 540 q 682 579 653 579 q 710 540 710 579 l 710 414 q 682 376 710 376 q 653 410 657 376 q 584 503 649 465 q 432 542 519 542 q 245 470 317 542 q 174 285 174 399 q 246 105 174 175 q 432 35 318 35 q 692 135 583 35 q 717 149 706 149 q 735 141 728 149 q 743 122 743 133 z "},"Ċ":{"ha":833,"x_min":88,"x_max":742,"o":"m 424 989 q 473 968 453 989 q 493 918 493 947 q 472 870 493 890 q 424 850 451 850 q 375 871 396 850 q 354 919 354 892 q 375 968 354 947 q 424 989 396 989 m 88 451 q 95 516 88 478 q 126 606 103 554 q 185 699 150 657 q 282 770 219 740 q 424 800 344 800 q 664 704 564 800 l 664 744 q 693 782 664 782 q 721 744 721 782 l 721 589 q 692 551 721 551 q 664 585 667 551 q 588 696 660 649 q 424 743 517 743 q 226 655 308 743 q 144 443 144 567 l 144 344 q 235 127 144 219 q 447 35 325 35 q 576 64 519 35 q 689 160 633 93 q 714 174 701 174 q 742 147 742 174 q 719 108 742 135 q 661 52 697 82 q 567 0 625 22 q 447 -22 508 -22 q 197 87 306 -22 q 88 336 88 196 l 88 451 z "},"ċ":{"ha":833,"x_min":117,"x_max":743,"o":"m 436 821 q 485 800 465 821 q 506 750 506 779 q 485 702 506 722 q 436 682 464 682 q 388 703 408 682 q 367 751 367 724 q 388 800 367 779 q 436 821 408 821 m 743 122 q 719 87 743 110 q 658 39 696 64 q 557 -4 619 14 q 429 -22 494 -22 q 205 64 293 -22 q 117 283 117 150 q 207 510 117 421 q 436 599 297 599 q 653 522 565 599 l 653 540 q 682 579 653 579 q 710 540 710 579 l 710 414 q 682 376 710 376 q 653 410 657 376 q 584 503 649 465 q 432 542 519 542 q 245 470 317 542 q 174 285 174 399 q 246 105 174 175 q 432 35 318 35 q 692 135 583 35 q 717 149 706 149 q 735 141 728 149 q 743 122 743 133 z "},"Č":{"ha":833,"x_min":88,"x_max":742,"o":"m 424 839 l 240 990 q 222 1018 222 1003 q 231 1038 222 1029 q 250 1046 239 1046 q 275 1035 260 1046 l 424 913 l 572 1035 q 597 1046 588 1046 q 616 1037 607 1046 q 625 1018 625 1028 q 607 989 625 1004 l 424 839 m 88 451 q 95 516 88 478 q 126 606 103 554 q 185 699 150 657 q 282 770 219 740 q 424 800 344 800 q 664 704 564 800 l 664 744 q 693 782 664 782 q 721 744 721 782 l 721 589 q 692 551 721 551 q 664 585 667 551 q 588 696 660 649 q 424 743 517 743 q 226 655 308 743 q 144 443 144 567 l 144 344 q 235 127 144 219 q 447 35 325 35 q 576 64 519 35 q 689 160 633 93 q 714 174 701 174 q 742 147 742 174 q 719 108 742 135 q 661 52 697 82 q 567 0 625 22 q 447 -22 508 -22 q 197 87 306 -22 q 88 336 88 196 l 88 451 z "},"č":{"ha":833,"x_min":117,"x_max":743,"o":"m 458 682 l 275 833 q 257 861 257 846 q 265 881 257 872 q 285 889 274 889 q 310 878 294 889 l 458 756 l 607 878 q 632 889 622 889 q 651 880 642 889 q 660 861 660 871 q 642 832 660 847 l 458 682 m 743 122 q 719 87 743 110 q 658 39 696 64 q 557 -4 619 14 q 429 -22 494 -22 q 205 64 293 -22 q 117 283 117 150 q 207 510 117 421 q 436 599 297 599 q 653 522 565 599 l 653 540 q 682 579 653 579 q 710 540 710 579 l 710 414 q 682 376 710 376 q 653 410 657 376 q 584 503 649 465 q 432 542 519 542 q 245 470 317 542 q 174 285 174 399 q 246 105 174 175 q 432 35 318 35 q 692 135 583 35 q 717 149 706 149 q 735 141 728 149 q 743 122 743 133 z "},"Ď":{"ha":833,"x_min":60,"x_max":722,"o":"m 392 836 l 208 988 q 190 1015 190 1000 q 199 1035 190 1026 q 218 1043 207 1043 q 243 1032 228 1043 l 392 910 l 540 1032 q 565 1043 556 1043 q 584 1034 575 1043 q 593 1015 593 1025 q 575 986 593 1001 l 392 836 m 144 57 l 144 725 l 97 725 q 60 754 60 725 q 97 782 60 782 l 403 782 q 630 680 538 782 q 722 431 722 578 l 722 353 q 630 102 722 204 q 403 0 538 0 l 97 0 q 60 29 60 0 q 97 57 60 57 l 144 57 m 665 442 q 653 511 665 469 q 613 603 640 553 q 530 690 586 654 q 400 725 474 725 l 201 725 l 201 57 l 410 57 q 588 143 510 57 q 665 340 665 229 l 665 442 z "},"ď":{"ha":833,"x_min":88,"x_max":953,"o":"m 842 839 l 953 839 l 832 618 q 806 597 821 597 q 789 604 796 597 q 782 621 782 611 q 783 626 782 624 q 783 631 783 629 l 842 839 m 697 839 l 697 57 l 772 57 q 810 29 810 57 q 772 0 810 0 l 640 0 l 640 124 q 388 -22 542 -22 q 176 69 264 -22 q 88 289 88 161 q 176 508 88 417 q 388 599 264 599 q 640 454 540 599 l 640 782 l 565 782 q 528 811 528 782 q 565 839 528 839 l 697 839 m 392 542 q 217 468 289 542 q 144 289 144 394 q 217 108 144 182 q 393 35 289 35 q 568 108 496 35 q 640 286 640 182 q 569 468 640 394 q 392 542 497 542 z "},"Đ":{"ha":833,"x_min":0,"x_max":722,"o":"m 144 378 l 38 378 q 0 407 0 378 q 38 435 0 435 l 144 435 l 144 725 l 97 725 q 60 754 60 725 q 97 782 60 782 l 403 782 q 628 678 533 782 q 722 431 722 575 l 722 353 q 628 104 722 208 q 403 0 533 0 l 97 0 q 60 29 60 0 q 97 57 60 57 l 144 57 l 144 378 m 665 443 q 658 494 665 464 q 633 567 651 525 q 585 642 614 608 q 508 701 557 676 q 400 725 460 725 l 201 725 l 201 435 l 426 435 q 464 407 464 435 q 426 378 464 378 l 201 378 l 201 57 l 410 57 q 587 144 508 57 q 665 340 665 231 l 665 443 z "},"đ":{"ha":833,"x_min":88,"x_max":810,"o":"m 697 722 l 772 722 q 810 694 810 722 q 772 665 810 665 l 697 665 l 697 57 l 772 57 q 810 29 810 57 q 772 0 810 0 l 640 0 l 640 113 q 389 -22 543 -22 q 176 69 264 -22 q 88 289 88 160 q 176 508 88 417 q 389 599 264 599 q 640 465 540 599 l 640 665 l 449 665 q 411 694 411 665 q 449 722 411 722 l 640 722 l 640 782 l 565 782 q 528 811 528 782 q 565 839 528 839 l 697 839 l 697 722 m 392 542 q 217 468 289 542 q 144 289 144 394 q 217 108 144 182 q 393 35 289 35 q 567 108 494 35 q 640 285 640 182 q 569 468 640 394 q 392 542 497 542 z "},"Ē":{"ha":833,"x_min":60,"x_max":722,"o":"m 229 378 l 229 57 l 665 57 l 665 222 q 694 260 665 260 q 722 222 722 260 l 722 0 l 97 0 q 60 29 60 0 q 97 57 60 57 l 172 57 l 172 725 l 97 725 q 60 754 60 725 q 97 782 60 782 l 693 782 l 693 589 q 664 551 693 551 q 636 589 636 551 l 636 725 l 229 725 l 229 435 l 431 435 l 431 497 q 460 535 431 535 q 488 497 488 535 l 488 315 q 460 278 488 278 q 431 315 431 278 l 431 378 l 229 378 z "},"ē":{"ha":833,"x_min":88,"x_max":722,"o":"m 722 276 l 144 276 q 236 101 160 167 q 425 35 313 35 q 558 56 490 35 q 668 110 626 76 q 690 119 682 119 q 709 111 701 119 q 717 92 717 103 q 617 17 717 56 q 424 -22 518 -22 q 185 72 283 -22 q 88 301 88 167 q 179 513 88 428 q 404 599 271 599 q 633 510 544 599 q 722 276 722 422 m 144 333 l 664 333 q 576 485 647 428 q 404 542 506 542 q 233 485 303 542 q 144 333 164 429 z "},"Ĕ":{"ha":833,"x_min":60,"x_max":722,"o":"m 222 1033 q 250 1003 246 1033 q 294 936 253 963 q 394 910 336 910 q 494 936 453 910 q 539 1003 535 963 q 568 1033 543 1033 q 588 1024 579 1033 q 596 1001 596 1015 q 538 896 596 939 q 394 853 479 853 q 251 896 310 853 q 193 1001 193 939 q 222 1033 193 1033 m 229 378 l 229 57 l 665 57 l 665 222 q 694 260 665 260 q 722 222 722 260 l 722 0 l 97 0 q 60 29 60 0 q 97 57 60 57 l 172 57 l 172 725 l 97 725 q 60 754 60 725 q 97 782 60 782 l 693 782 l 693 589 q 664 551 693 551 q 636 589 636 551 l 636 725 l 229 725 l 229 435 l 431 435 l 431 497 q 460 535 431 535 q 488 497 488 535 l 488 315 q 460 278 488 278 q 431 315 431 278 l 431 378 l 229 378 z "},"ĕ":{"ha":833,"x_min":88,"x_max":722,"o":"m 232 867 q 260 836 256 867 q 304 769 263 796 q 404 743 346 743 q 503 769 463 743 q 549 836 544 796 q 578 867 553 867 q 597 858 589 867 q 606 835 606 849 q 547 729 606 772 q 404 686 489 686 q 261 729 319 686 q 203 835 203 772 q 232 867 203 867 m 722 276 l 144 276 q 236 101 160 167 q 425 35 313 35 q 558 56 490 35 q 668 110 626 76 q 690 119 682 119 q 709 111 701 119 q 717 92 717 103 q 617 17 717 56 q 424 -22 518 -22 q 185 72 283 -22 q 88 301 88 167 q 179 513 88 428 q 404 599 271 599 q 633 510 544 599 q 722 276 722 422 m 144 333 l 664 333 q 576 485 647 428 q 404 542 506 542 q 233 485 303 542 q 144 333 164 429 z "},"Ė":{"ha":833,"x_min":60,"x_max":722,"o":"m 394 983 q 444 963 424 983 q 464 913 464 942 q 443 865 464 885 q 394 844 422 844 q 346 865 367 844 q 325 914 325 886 q 346 963 325 942 q 394 983 367 983 m 229 378 l 229 57 l 665 57 l 665 222 q 694 260 665 260 q 722 222 722 260 l 722 0 l 97 0 q 60 29 60 0 q 97 57 60 57 l 172 57 l 172 725 l 97 725 q 60 754 60 725 q 97 782 60 782 l 693 782 l 693 589 q 664 551 693 551 q 636 589 636 551 l 636 725 l 229 725 l 229 435 l 431 435 l 431 497 q 460 535 431 535 q 488 497 488 535 l 488 315 q 460 278 488 278 q 431 315 431 278 l 431 378 l 229 378 z "},"ė":{"ha":833,"x_min":88,"x_max":722,"o":"m 404 839 q 453 818 433 839 q 474 768 474 797 q 453 720 474 740 q 404 700 432 700 q 356 721 376 700 q 335 769 335 742 q 356 818 335 797 q 404 839 376 839 m 722 276 l 144 276 q 236 101 160 167 q 425 35 313 35 q 558 56 490 35 q 668 110 626 76 q 690 119 682 119 q 709 111 701 119 q 717 92 717 103 q 617 17 717 56 q 424 -22 518 -22 q 185 72 283 -22 q 88 301 88 167 q 179 513 88 428 q 404 599 271 599 q 633 510 544 599 q 722 276 722 422 m 144 333 l 664 333 q 576 485 647 428 q 404 542 506 542 q 233 485 303 542 q 144 333 164 429 z "},"Ę":{"ha":833,"x_min":60,"x_max":761,"o":"m 663 -171 q 715 -158 693 -171 q 742 -144 738 -144 q 755 -151 749 -144 q 761 -165 761 -157 q 727 -199 761 -183 q 654 -215 693 -215 q 576 -193 604 -215 q 549 -131 549 -171 q 656 0 549 -50 l 97 0 q 60 29 60 0 q 97 57 60 57 l 172 57 l 172 725 l 97 725 q 60 754 60 725 q 97 782 60 782 l 693 782 l 693 589 q 664 551 693 551 q 636 589 636 551 l 636 725 l 229 725 l 229 435 l 431 435 l 431 497 q 460 535 431 535 q 488 497 488 535 l 488 315 q 460 278 488 278 q 431 315 431 278 l 431 378 l 229 378 l 229 57 l 665 57 l 665 222 q 694 260 665 260 q 722 222 722 260 l 722 0 l 683 -21 q 603 -124 603 -64 q 663 -171 603 -171 z "},"ę":{"ha":833,"x_min":88,"x_max":722,"o":"m 540 -171 q 593 -158 571 -171 q 619 -144 615 -144 q 633 -151 626 -144 q 639 -165 639 -157 q 605 -199 639 -183 q 532 -215 571 -215 q 454 -193 482 -215 q 426 -131 426 -171 q 501 -15 426 -61 q 425 -22 460 -22 q 185 72 283 -22 q 88 301 88 165 q 179 513 88 428 q 404 599 271 599 q 633 510 544 599 q 722 276 722 422 l 144 276 q 236 101 160 167 q 425 35 313 35 q 558 56 490 35 q 668 110 626 76 q 690 119 682 119 q 709 111 701 119 q 717 92 717 103 q 680 50 717 75 q 599 1 643 25 q 517 -57 554 -22 q 481 -124 481 -92 q 540 -171 481 -171 m 144 333 l 664 333 q 576 485 647 428 q 404 542 506 542 q 233 485 303 542 q 144 333 164 429 z "},"Ě":{"ha":833,"x_min":60,"x_max":722,"o":"m 394 836 l 211 988 q 193 1015 193 1000 q 201 1035 193 1026 q 221 1043 210 1043 q 246 1032 231 1043 l 394 910 l 543 1032 q 568 1043 558 1043 q 587 1034 578 1043 q 596 1015 596 1025 q 578 986 596 1001 l 394 836 m 229 378 l 229 57 l 665 57 l 665 222 q 694 260 665 260 q 722 222 722 260 l 722 0 l 97 0 q 60 29 60 0 q 97 57 60 57 l 172 57 l 172 725 l 97 725 q 60 754 60 725 q 97 782 60 782 l 693 782 l 693 589 q 664 551 693 551 q 636 589 636 551 l 636 725 l 229 725 l 229 435 l 431 435 l 431 497 q 460 535 431 535 q 488 497 488 535 l 488 315 q 460 278 488 278 q 431 315 431 278 l 431 378 l 229 378 z "},"ě":{"ha":833,"x_min":88,"x_max":722,"o":"m 404 682 l 221 833 q 203 861 203 846 q 211 881 203 872 q 231 889 219 889 q 256 878 240 889 l 404 756 l 553 878 q 578 889 568 889 q 597 880 588 889 q 606 861 606 871 q 588 832 606 847 l 404 682 m 722 276 l 144 276 q 236 101 160 167 q 425 35 313 35 q 558 56 490 35 q 668 110 626 76 q 690 119 682 119 q 709 111 701 119 q 717 92 717 103 q 617 17 717 56 q 424 -22 518 -22 q 185 72 283 -22 q 88 301 88 167 q 179 513 88 428 q 404 599 271 599 q 633 510 544 599 q 722 276 722 422 m 144 333 l 664 333 q 576 485 647 428 q 404 542 506 542 q 233 485 303 542 q 144 333 164 429 z "},"Ĝ":{"ha":833,"x_min":88,"x_max":781,"o":"m 435 1050 l 618 900 q 636 871 636 885 q 628 851 636 860 q 608 843 619 843 q 583 854 599 843 l 435 976 l 286 854 q 261 843 271 843 q 242 851 250 843 q 233 871 233 860 q 251 899 233 882 l 435 1050 m 438 743 q 289 706 351 743 q 198 614 226 668 q 157 515 169 560 q 144 440 144 471 l 144 339 q 231 116 144 197 q 467 35 317 35 q 665 82 564 35 l 665 290 l 472 290 q 435 319 435 290 q 472 347 435 347 l 742 347 q 781 319 781 347 q 742 290 781 290 l 722 290 l 722 50 q 463 -22 597 -22 q 190 76 292 -22 q 88 339 88 175 l 88 442 q 185 694 88 588 q 435 800 283 800 q 665 725 572 800 l 665 744 q 694 782 665 782 q 722 744 722 782 l 722 618 q 694 581 722 581 q 667 615 668 581 q 596 706 663 668 q 438 743 529 743 z "},"ĝ":{"ha":833,"x_min":88,"x_max":781,"o":"m 374 889 l 557 739 q 575 710 575 724 q 567 690 575 699 q 547 682 558 682 q 522 693 538 682 l 374 815 l 225 693 q 200 682 210 682 q 181 690 189 682 q 172 710 172 699 q 190 738 172 721 l 374 889 m 611 464 l 611 579 l 743 579 q 781 551 781 579 q 743 522 781 522 l 668 522 l 668 -39 q 601 -193 668 -128 q 439 -258 535 -258 l 281 -258 q 243 -229 243 -258 q 281 -201 243 -201 l 442 -201 q 562 -151 513 -201 q 611 -31 611 -101 l 611 149 q 374 14 519 14 q 172 100 256 14 q 88 307 88 186 q 172 513 88 428 q 374 599 256 599 q 611 464 521 599 m 378 542 q 213 474 281 542 q 144 307 144 406 q 213 140 144 208 q 378 71 281 71 q 543 139 475 71 q 611 304 611 207 q 544 474 611 406 q 378 542 476 542 z "},"Ğ":{"ha":833,"x_min":88,"x_max":781,"o":"m 263 1033 q 290 1003 286 1033 q 335 936 293 963 q 435 910 376 910 q 534 936 493 910 q 579 1003 575 963 q 608 1033 583 1033 q 628 1024 619 1033 q 636 1001 636 1015 q 578 896 636 939 q 435 853 519 853 q 292 896 350 853 q 233 1001 233 939 q 263 1033 233 1033 m 438 743 q 289 706 351 743 q 198 614 226 668 q 157 515 169 560 q 144 440 144 471 l 144 339 q 231 116 144 197 q 467 35 317 35 q 665 82 564 35 l 665 290 l 472 290 q 435 319 435 290 q 472 347 435 347 l 742 347 q 781 319 781 347 q 742 290 781 290 l 722 290 l 722 50 q 463 -22 597 -22 q 190 76 292 -22 q 88 339 88 175 l 88 442 q 185 694 88 588 q 435 800 283 800 q 665 725 572 800 l 665 744 q 694 782 665 782 q 722 744 722 782 l 722 618 q 694 581 722 581 q 667 615 668 581 q 596 706 663 668 q 438 743 529 743 z "},"ğ":{"ha":833,"x_min":88,"x_max":781,"o":"m 243 863 q 271 832 267 863 q 315 765 274 792 q 415 739 357 739 q 515 765 474 739 q 560 832 556 792 q 589 863 564 863 q 608 853 600 863 q 617 831 617 844 q 558 725 617 768 q 415 682 500 682 q 272 725 331 682 q 214 831 214 768 q 243 863 214 863 m 611 464 l 611 579 l 743 579 q 781 551 781 579 q 743 522 781 522 l 668 522 l 668 -39 q 601 -193 668 -128 q 439 -258 535 -258 l 281 -258 q 243 -229 243 -258 q 281 -201 243 -201 l 442 -201 q 562 -151 513 -201 q 611 -31 611 -101 l 611 149 q 374 14 519 14 q 172 100 256 14 q 88 307 88 186 q 172 513 88 428 q 374 599 256 599 q 611 464 521 599 m 378 542 q 213 474 281 542 q 144 307 144 406 q 213 140 144 208 q 378 71 281 71 q 543 139 475 71 q 611 304 611 207 q 544 474 611 406 q 378 542 476 542 z "},"Ġ":{"ha":833,"x_min":88,"x_max":781,"o":"m 435 992 q 484 971 464 992 q 504 921 504 950 q 483 873 504 893 q 435 853 463 853 q 386 874 407 853 q 365 922 365 894 q 386 971 365 950 q 435 992 407 992 m 438 743 q 289 706 351 743 q 198 614 226 668 q 157 515 169 560 q 144 440 144 471 l 144 339 q 231 116 144 197 q 467 35 317 35 q 665 82 564 35 l 665 290 l 472 290 q 435 319 435 290 q 472 347 435 347 l 742 347 q 781 319 781 347 q 742 290 781 290 l 722 290 l 722 50 q 463 -22 597 -22 q 190 76 292 -22 q 88 339 88 175 l 88 442 q 185 694 88 588 q 435 800 283 800 q 665 725 572 800 l 665 744 q 694 782 665 782 q 722 744 722 782 l 722 618 q 694 581 722 581 q 667 615 668 581 q 596 706 663 668 q 438 743 529 743 z "},"ġ":{"ha":833,"x_min":88,"x_max":781,"o":"m 374 842 q 423 821 403 842 q 443 771 443 800 q 422 723 443 743 q 374 703 401 703 q 325 724 346 703 q 304 772 304 744 q 325 821 304 800 q 374 842 346 842 m 611 464 l 611 579 l 743 579 q 781 551 781 579 q 743 522 781 522 l 668 522 l 668 -39 q 601 -193 668 -128 q 439 -258 535 -258 l 281 -258 q 243 -229 243 -258 q 281 -201 243 -201 l 442 -201 q 562 -151 513 -201 q 611 -31 611 -101 l 611 149 q 374 14 519 14 q 172 100 256 14 q 88 307 88 186 q 172 513 88 428 q 374 599 256 599 q 611 464 521 599 m 378 542 q 213 474 281 542 q 144 307 144 406 q 213 140 144 208 q 378 71 281 71 q 543 139 475 71 q 611 304 611 207 q 544 474 611 406 q 378 542 476 542 z "},"Ģ":{"ha":833,"x_min":88,"x_max":781,"o":"m 396 -72 l 490 -72 l 388 -260 q 365 -278 378 -278 q 351 -272 357 -278 q 344 -257 344 -265 q 346 -250 344 -256 l 396 -72 m 438 743 q 289 706 351 743 q 198 614 226 668 q 157 515 169 560 q 144 440 144 471 l 144 339 q 231 116 144 197 q 467 35 317 35 q 665 82 564 35 l 665 290 l 472 290 q 435 319 435 290 q 472 347 435 347 l 742 347 q 781 319 781 347 q 742 290 781 290 l 722 290 l 722 50 q 463 -22 597 -22 q 190 76 292 -22 q 88 339 88 175 l 88 442 q 185 694 88 588 q 435 800 283 800 q 665 725 572 800 l 665 744 q 694 782 665 782 q 722 744 722 782 l 722 618 q 694 581 722 581 q 667 615 668 581 q 596 706 663 668 q 438 743 529 743 z "},"ģ":{"ha":833,"x_min":88,"x_max":781,"o":"m 399 682 l 288 682 l 408 903 q 435 924 419 924 q 451 917 444 924 q 458 900 458 910 q 458 894 458 897 q 457 890 457 892 l 399 682 m 611 464 l 611 579 l 743 579 q 781 551 781 579 q 743 522 781 522 l 668 522 l 668 -39 q 601 -193 668 -128 q 439 -258 535 -258 l 281 -258 q 243 -229 243 -258 q 281 -201 243 -201 l 442 -201 q 562 -151 513 -201 q 611 -31 611 -101 l 611 149 q 374 14 519 14 q 172 100 256 14 q 88 307 88 186 q 172 513 88 428 q 374 599 256 599 q 611 464 521 599 m 378 542 q 213 474 281 542 q 144 307 144 406 q 213 140 144 208 q 378 71 281 71 q 543 139 475 71 q 611 304 611 207 q 544 474 611 406 q 378 542 476 542 z "},"Ĥ":{"ha":833,"x_min":74,"x_max":765,"o":"m 419 1054 l 603 904 q 621 875 621 889 q 613 856 621 864 q 593 847 604 847 q 568 858 583 847 l 419 981 l 271 858 q 246 847 256 847 q 226 856 235 847 q 218 875 218 864 q 236 903 218 886 l 419 1054 m 607 378 l 232 378 l 232 57 l 307 57 q 344 29 344 57 q 307 0 344 0 l 113 0 q 74 29 74 0 q 113 57 74 57 l 175 57 l 175 725 l 140 725 q 103 754 103 725 q 140 782 103 782 l 307 782 q 344 754 344 782 q 307 725 344 725 l 232 725 l 232 435 l 607 435 l 607 725 l 532 725 q 494 754 494 725 q 532 782 494 782 l 699 782 q 736 754 736 782 q 699 725 736 725 l 664 725 l 664 57 l 728 57 q 765 29 765 57 q 728 0 765 0 l 532 0 q 494 29 494 0 q 532 57 494 57 l 607 57 l 607 378 z "},"ĥ":{"ha":833,"x_min":60,"x_max":765,"o":"m 413 1092 l 596 942 q 614 913 614 926 q 606 893 614 901 q 586 885 597 885 q 561 896 576 885 l 413 1018 l 264 896 q 239 885 249 885 q 219 893 228 885 q 211 913 211 901 q 229 940 211 924 l 413 1092 m 607 400 q 560 502 607 463 q 436 542 513 542 q 340 519 378 542 q 244 429 301 496 l 229 411 l 229 57 l 292 57 q 331 29 331 57 q 292 0 331 0 l 108 0 q 71 29 71 0 q 108 57 71 57 l 172 57 l 172 782 l 97 782 q 60 811 60 782 q 97 839 60 839 l 229 839 l 229 482 q 331 572 282 546 q 443 599 379 599 q 602 544 540 599 q 664 404 664 489 l 664 57 l 726 57 q 765 29 765 57 q 726 0 765 0 l 544 0 q 507 29 507 0 q 544 57 507 57 l 607 57 l 607 400 z "},"Ħ":{"ha":833,"x_min":74,"x_max":765,"o":"m 664 585 l 699 585 q 736 557 736 585 q 699 529 736 529 l 664 529 l 664 57 l 728 57 q 765 29 765 57 q 728 0 765 0 l 532 0 q 494 29 494 0 q 532 57 494 57 l 607 57 l 607 378 l 232 378 l 232 57 l 307 57 q 344 29 344 57 q 307 0 344 0 l 113 0 q 74 29 74 0 q 113 57 74 57 l 175 57 l 175 529 l 140 529 q 103 557 103 529 q 140 585 103 585 l 175 585 l 175 725 l 140 725 q 103 754 103 725 q 140 782 103 782 l 307 782 q 344 754 344 782 q 307 725 344 725 l 232 725 l 232 585 l 607 585 l 607 725 l 532 725 q 494 754 494 725 q 532 782 494 782 l 699 782 q 736 754 736 782 q 699 725 736 725 l 664 725 l 664 585 m 607 529 l 232 529 l 232 435 l 607 435 l 607 529 z "},"ħ":{"ha":833,"x_min":60,"x_max":765,"o":"m 607 400 q 560 502 607 463 q 436 542 513 542 q 340 519 378 542 q 244 429 301 496 l 229 411 l 229 57 l 292 57 q 331 29 331 57 q 292 0 331 0 l 108 0 q 71 29 71 0 q 108 57 71 57 l 172 57 l 172 651 l 97 651 q 60 679 60 651 q 97 707 60 707 l 172 707 l 172 782 l 97 782 q 60 811 60 782 q 97 839 60 839 l 229 839 l 229 707 l 425 707 q 463 679 463 707 q 425 651 463 651 l 229 651 l 229 482 q 331 572 282 546 q 443 599 379 599 q 602 544 540 599 q 664 404 664 489 l 664 57 l 726 57 q 765 29 765 57 q 726 0 765 0 l 544 0 q 507 29 507 0 q 544 57 507 57 l 607 57 l 607 400 z "},"Ĩ":{"ha":833,"x_min":157,"x_max":676,"o":"m 503 911 q 561 943 528 911 q 604 975 594 975 q 624 967 615 975 q 632 947 632 958 q 588 890 632 926 q 506 854 544 854 q 410 888 469 854 q 333 921 350 921 q 272 890 299 921 q 229 858 246 858 q 210 866 218 858 q 201 885 201 874 q 247 944 201 910 q 332 978 292 978 q 424 944 364 978 q 503 911 485 911 m 444 725 l 444 57 l 638 57 q 676 29 676 57 q 638 0 676 0 l 194 0 q 157 29 157 0 q 194 57 157 57 l 388 57 l 388 725 l 194 725 q 157 754 157 725 q 194 782 157 782 l 638 782 q 676 754 676 782 q 638 725 676 725 l 444 725 z "},"ĩ":{"ha":833,"x_min":128,"x_max":706,"o":"m 501 739 q 560 771 526 739 q 603 803 593 803 q 622 794 614 803 q 631 775 631 786 q 587 718 631 754 q 504 682 543 682 q 408 715 468 682 q 332 749 349 749 q 271 717 297 749 q 228 686 244 686 q 208 694 217 686 q 200 713 200 701 q 245 772 200 738 q 331 806 290 806 q 423 772 363 806 q 501 739 483 739 m 444 579 l 444 57 l 667 57 q 706 29 706 57 q 667 0 706 0 l 165 0 q 128 29 128 0 q 165 57 128 57 l 388 57 l 388 522 l 224 522 q 186 551 186 522 q 224 579 186 579 l 444 579 z "},"Ī":{"ha":833,"x_min":157,"x_max":676,"o":"m 444 725 l 444 57 l 638 57 q 676 29 676 57 q 638 0 676 0 l 194 0 q 157 29 157 0 q 194 57 157 57 l 388 57 l 388 725 l 194 725 q 157 754 157 725 q 194 782 157 782 l 638 782 q 676 754 676 782 q 638 725 676 725 l 444 725 z "},"ī":{"ha":833,"x_min":128,"x_max":706,"o":"m 444 579 l 444 57 l 667 57 q 706 29 706 57 q 667 0 706 0 l 165 0 q 128 29 128 0 q 165 57 128 57 l 388 57 l 388 522 l 224 522 q 186 551 186 522 q 224 579 186 579 l 444 579 z "},"Ĭ":{"ha":833,"x_min":157,"x_max":676,"o":"m 244 1033 q 272 1003 268 1033 q 317 936 275 963 q 417 910 358 910 q 516 936 475 910 q 561 1003 557 963 q 590 1033 565 1033 q 610 1024 601 1033 q 618 1001 618 1015 q 560 896 618 939 q 417 853 501 853 q 274 896 332 853 q 215 1001 215 939 q 244 1033 215 1033 m 444 725 l 444 57 l 638 57 q 676 29 676 57 q 638 0 676 0 l 194 0 q 157 29 157 0 q 194 57 157 57 l 388 57 l 388 725 l 194 725 q 157 754 157 725 q 194 782 157 782 l 638 782 q 676 754 676 782 q 638 725 676 725 l 444 725 z "},"ĭ":{"ha":833,"x_min":128,"x_max":706,"o":"m 243 864 q 271 833 267 864 q 315 767 274 793 q 415 740 357 740 q 515 767 474 740 q 560 833 556 793 q 589 864 564 864 q 608 855 600 864 q 617 832 617 846 q 558 726 617 769 q 415 683 500 683 q 272 726 331 683 q 214 832 214 769 q 243 864 214 864 m 444 579 l 444 57 l 667 57 q 706 29 706 57 q 667 0 706 0 l 165 0 q 128 29 128 0 q 165 57 128 57 l 388 57 l 388 522 l 224 522 q 186 551 186 522 q 224 579 186 579 l 444 579 z "},"Į":{"ha":833,"x_min":157,"x_max":694,"o":"m 596 -171 q 649 -158 626 -171 q 675 -144 671 -144 q 688 -151 682 -144 q 694 -165 694 -157 q 660 -199 694 -183 q 588 -215 626 -215 q 510 -193 538 -215 q 482 -131 482 -171 q 506 -58 482 -87 q 589 0 531 -28 l 194 0 q 157 29 157 0 q 194 57 157 57 l 388 57 l 388 725 l 194 725 q 157 754 157 725 q 194 782 157 782 l 638 782 q 676 754 676 782 q 638 725 676 725 l 444 725 l 444 57 l 638 57 q 676 29 676 57 q 654 1 676 17 q 606 -28 632 -14 q 558 -67 581 -42 q 536 -124 536 -93 q 596 -171 536 -171 z "},"į":{"ha":833,"x_min":128,"x_max":722,"o":"m 624 -171 q 676 -158 654 -171 q 703 -144 699 -144 q 716 -151 710 -144 q 722 -165 722 -157 q 688 -199 722 -183 q 615 -215 654 -215 q 538 -193 565 -215 q 510 -131 510 -171 q 534 -58 510 -87 q 617 0 558 -28 l 165 0 q 128 29 128 0 q 165 57 128 57 l 388 57 l 388 522 l 224 522 q 186 551 186 522 q 224 579 186 579 l 444 579 l 444 57 l 667 57 q 706 29 706 57 q 683 1 706 15 q 635 -28 661 -14 q 586 -67 608 -42 q 564 -124 564 -92 q 624 -171 564 -171 m 442 867 l 442 722 l 360 722 l 360 867 l 442 867 z "},"İ":{"ha":833,"x_min":157,"x_max":676,"o":"m 417 986 q 466 965 446 986 q 486 915 486 944 q 465 867 486 888 q 417 847 444 847 q 368 868 389 847 q 347 917 347 889 q 368 965 347 944 q 417 986 389 986 m 444 725 l 444 57 l 638 57 q 676 29 676 57 q 638 0 676 0 l 194 0 q 157 29 157 0 q 194 57 157 57 l 388 57 l 388 725 l 194 725 q 157 754 157 725 q 194 782 157 782 l 638 782 q 676 754 676 782 q 638 725 676 725 l 444 725 z "},"ı":{"ha":833,"x_min":128,"x_max":706,"o":"m 444 579 l 444 57 l 667 57 q 706 29 706 57 q 667 0 706 0 l 165 0 q 128 29 128 0 q 165 57 128 57 l 388 57 l 388 522 l 224 522 q 186 551 186 522 q 224 579 186 579 l 444 579 z "},"Ĳ":{"ha":833,"x_min":40,"x_max":793,"o":"m 686 725 l 686 229 q 638 48 686 118 q 488 -22 589 -22 q 379 7 422 -22 q 292 103 336 36 l 292 310 q 321 347 292 347 q 349 310 349 347 l 349 129 q 410 53 382 72 q 489 35 438 35 q 598 86 567 35 q 629 229 629 138 l 629 725 l 497 725 q 460 754 460 725 q 497 782 460 782 l 756 782 q 793 754 793 782 q 756 725 793 725 l 686 725 m 196 725 l 196 57 l 257 57 q 296 29 296 57 q 257 0 296 0 l 78 0 q 40 29 40 0 q 78 57 40 57 l 139 57 l 139 725 l 78 725 q 40 754 40 725 q 78 782 40 782 l 257 782 q 296 754 296 782 q 257 725 296 725 l 196 725 z "},"ĳ":{"ha":833,"x_min":172,"x_max":671,"o":"m 604 522 l 492 522 q 454 551 454 522 q 492 579 454 579 l 661 579 l 661 -39 q 601 -197 661 -136 q 446 -258 540 -258 l 267 -258 q 229 -229 229 -258 q 267 -201 229 -201 l 444 -201 q 559 -156 514 -201 q 604 -39 604 -110 l 604 522 m 671 867 l 671 722 l 589 722 l 589 867 l 671 867 m 358 579 l 358 57 l 447 57 q 486 29 486 57 q 447 0 486 0 l 210 0 q 172 29 172 0 q 210 57 172 57 l 301 57 l 301 522 l 224 522 q 186 551 186 522 q 224 579 186 579 l 358 579 m 374 867 l 374 722 l 292 722 l 292 867 l 374 867 z "},"Ĵ":{"ha":833,"x_min":117,"x_max":810,"o":"m 567 1040 l 750 890 q 768 861 768 875 q 760 842 768 850 q 740 833 751 833 q 715 844 731 833 l 567 967 l 418 844 q 393 833 403 833 q 374 842 382 833 q 365 861 365 850 q 383 889 365 872 l 567 1040 m 639 725 l 639 229 q 562 52 639 126 q 378 -22 485 -22 q 251 6 311 -22 q 117 103 192 35 l 117 310 q 146 347 117 347 q 174 310 174 347 l 174 129 q 379 35 278 35 q 523 92 464 35 q 582 229 582 149 l 582 725 l 361 725 q 324 754 324 725 q 361 782 324 782 l 772 782 q 810 754 810 782 q 772 725 810 725 l 639 725 z "},"ĵ":{"ha":833,"x_min":163,"x_max":600,"o":"m 538 522 l 203 522 q 165 551 165 522 q 203 579 165 579 l 594 579 l 594 -39 q 534 -197 594 -136 q 379 -258 474 -258 l 200 -258 q 163 -229 163 -258 q 200 -201 163 -201 l 378 -201 q 492 -156 447 -201 q 538 -39 538 -110 l 538 522 m 399 925 l 582 775 q 600 746 600 760 q 592 726 600 735 q 572 718 583 718 q 547 729 563 718 l 399 851 l 250 729 q 225 718 235 718 q 206 726 214 718 q 197 746 197 735 q 215 774 197 757 l 399 925 z "},"Ķ":{"ha":833,"x_min":60,"x_max":794,"o":"m 365 -72 l 460 -72 l 357 -260 q 335 -278 347 -278 q 320 -272 326 -278 q 314 -257 314 -265 q 315 -250 314 -256 l 365 -72 m 229 307 l 229 57 l 333 57 q 371 29 371 57 q 333 0 371 0 l 97 0 q 60 29 60 0 q 97 57 60 57 l 172 57 l 172 725 l 97 725 q 60 754 60 725 q 97 782 60 782 l 333 782 q 371 754 371 782 q 333 725 371 725 l 229 725 l 229 379 l 618 725 l 556 725 q 517 754 517 725 q 556 782 517 782 l 719 782 q 758 754 758 782 q 719 725 758 725 l 697 725 l 389 450 q 546 333 490 408 q 679 57 601 257 l 757 57 q 794 29 794 57 q 757 0 794 0 l 636 0 q 500 294 560 211 q 342 408 440 376 l 229 307 z "},"ķ":{"ha":833,"x_min":88,"x_max":751,"o":"m 365 -72 l 460 -72 l 357 -260 q 335 -278 347 -278 q 320 -272 326 -278 q 314 -257 314 -265 q 315 -250 314 -256 l 365 -72 m 257 250 l 257 0 l 125 0 q 88 29 88 0 q 125 57 88 57 l 200 57 l 200 782 l 125 782 q 88 811 88 782 q 125 839 88 839 l 257 839 l 257 318 l 497 522 l 467 522 q 429 551 429 522 q 467 579 429 579 l 647 579 q 685 551 685 579 q 647 522 685 522 l 582 522 l 364 340 l 651 57 l 714 57 q 751 29 751 57 q 714 0 751 0 l 532 0 q 494 29 494 0 q 532 57 494 57 l 571 57 l 321 304 l 257 250 z "},"ĸ":{"ha":833,"x_min":97,"x_max":736,"o":"m 267 0 l 135 0 q 97 29 97 0 q 135 57 97 57 l 210 57 l 210 522 l 135 522 q 97 551 97 522 q 135 579 97 579 l 267 579 l 267 333 l 507 522 l 476 522 q 439 551 439 522 q 476 579 439 579 l 657 579 q 694 551 694 579 q 657 522 694 522 l 592 522 l 310 301 l 636 57 l 699 57 q 736 29 736 57 q 699 0 736 0 l 517 0 q 479 29 479 0 q 517 57 479 57 l 556 57 l 267 265 l 267 0 z "},"Ĺ":{"ha":833,"x_min":88,"x_max":751,"o":"m 315 725 l 315 57 l 694 57 l 694 279 q 724 317 694 317 q 751 279 751 317 l 751 0 l 125 0 q 88 29 88 0 q 125 57 88 57 l 258 57 l 258 725 l 125 725 q 88 754 88 725 q 125 782 88 782 l 449 782 q 486 754 486 782 q 449 725 486 725 l 315 725 z "},"ĺ":{"ha":833,"x_min":128,"x_max":706,"o":"m 444 839 l 444 57 l 667 57 q 706 29 706 57 q 667 0 706 0 l 165 0 q 128 29 128 0 q 165 57 128 57 l 388 57 l 388 782 l 225 782 q 188 811 188 782 q 225 839 188 839 l 444 839 z "},"Ļ":{"ha":833,"x_min":88,"x_max":751,"o":"m 365 -72 l 460 -72 l 357 -260 q 335 -278 347 -278 q 320 -272 326 -278 q 314 -257 314 -265 q 315 -250 314 -256 l 365 -72 m 315 725 l 315 57 l 694 57 l 694 279 q 724 317 694 317 q 751 279 751 317 l 751 0 l 125 0 q 88 29 88 0 q 125 57 88 57 l 258 57 l 258 725 l 125 725 q 88 754 88 725 q 125 782 88 782 l 449 782 q 486 754 486 782 q 449 725 486 725 l 315 725 z "},"ļ":{"ha":833,"x_min":128,"x_max":706,"o":"m 365 -72 l 460 -72 l 357 -260 q 335 -278 347 -278 q 320 -272 326 -278 q 314 -257 314 -265 q 315 -250 314 -256 l 365 -72 m 444 839 l 444 57 l 667 57 q 706 29 706 57 q 667 0 706 0 l 165 0 q 128 29 128 0 q 165 57 128 57 l 388 57 l 388 782 l 225 782 q 188 811 188 782 q 225 839 188 839 l 444 839 z "},"Ľ":{"ha":833,"x_min":88,"x_max":756,"o":"m 644 800 l 756 800 l 635 579 q 608 558 624 558 q 592 565 599 558 q 585 582 585 572 q 585 588 585 585 q 586 592 586 590 l 644 800 m 315 725 l 315 57 l 694 57 l 694 279 q 724 317 694 317 q 751 279 751 317 l 751 0 l 125 0 q 88 29 88 0 q 125 57 88 57 l 258 57 l 258 725 l 125 725 q 88 754 88 725 q 125 782 88 782 l 449 782 q 486 754 486 782 q 449 725 486 725 l 315 725 z "},"ľ":{"ha":833,"x_min":128,"x_max":711,"o":"m 600 839 l 711 839 l 590 618 q 564 597 579 597 q 547 604 554 597 q 540 621 540 611 q 541 626 540 624 q 542 631 542 629 l 600 839 m 444 839 l 444 57 l 667 57 q 706 29 706 57 q 667 0 706 0 l 165 0 q 128 29 128 0 q 165 57 128 57 l 388 57 l 388 782 l 225 782 q 188 811 188 782 q 225 839 188 839 l 444 839 z "},"Ŀ":{"ha":833,"x_min":88,"x_max":751,"o":"m 600 581 q 649 560 629 581 q 669 510 669 539 q 649 462 669 482 q 600 442 628 442 q 551 463 572 442 q 531 511 531 483 q 551 560 531 539 q 600 581 572 581 m 315 725 l 315 57 l 694 57 l 694 279 q 724 317 694 317 q 751 279 751 317 l 751 0 l 125 0 q 88 29 88 0 q 125 57 88 57 l 258 57 l 258 725 l 125 725 q 88 754 88 725 q 125 782 88 782 l 449 782 q 486 754 486 782 q 449 725 486 725 l 315 725 z "},"ŀ":{"ha":833,"x_min":72,"x_max":669,"o":"m 600 581 q 649 560 629 581 q 669 510 669 539 q 649 462 669 482 q 600 442 628 442 q 551 463 572 442 q 531 511 531 483 q 551 560 531 539 q 600 581 572 581 m 389 839 l 389 57 l 611 57 q 650 29 650 57 q 611 0 650 0 l 110 0 q 72 29 72 0 q 110 57 72 57 l 332 57 l 332 782 l 169 782 q 132 811 132 782 q 169 839 132 839 l 389 839 z "},"Ł":{"ha":833,"x_min":60,"x_max":751,"o":"m 314 725 l 314 431 l 500 542 q 524 549 517 549 q 543 540 535 549 q 551 521 551 532 q 528 493 551 506 l 314 365 l 314 57 l 694 57 l 694 281 q 724 318 694 318 q 751 281 751 318 l 751 0 l 124 0 q 86 29 86 0 q 124 57 86 57 l 257 57 l 257 342 l 110 256 q 86 247 97 247 q 68 256 76 247 q 60 276 60 265 q 82 304 60 292 l 257 407 l 257 725 l 124 725 q 86 754 86 725 q 124 782 86 782 l 447 782 q 485 754 485 782 q 447 725 485 725 l 314 725 z "},"ł":{"ha":833,"x_min":128,"x_max":706,"o":"m 443 839 l 443 476 l 565 547 q 589 556 581 556 q 608 547 600 556 q 615 528 615 539 q 593 499 615 511 l 443 413 l 443 57 l 668 57 q 706 29 706 57 q 668 0 706 0 l 165 0 q 128 29 128 0 q 165 57 128 57 l 386 57 l 386 389 l 265 319 q 242 311 250 311 q 224 320 232 311 q 215 340 215 329 q 238 369 215 357 l 386 454 l 386 782 l 224 782 q 186 811 186 782 q 224 839 186 839 l 443 839 z "},"Ń":{"ha":833,"x_min":31,"x_max":781,"o":"m 696 0 l 624 0 l 200 700 l 200 57 l 304 57 q 342 29 342 57 q 304 0 342 0 l 96 0 q 58 29 58 0 q 96 57 58 57 l 143 57 l 143 725 l 68 725 q 31 754 31 725 q 68 782 31 782 l 215 782 l 639 82 l 639 725 l 536 725 q 497 754 497 725 q 536 782 497 782 l 743 782 q 781 754 781 782 q 743 725 781 725 l 696 725 l 696 0 z "},"ń":{"ha":833,"x_min":74,"x_max":751,"o":"m 443 542 q 395 537 418 542 q 352 522 372 532 q 318 502 332 511 q 288 476 304 493 q 266 452 272 460 q 247 427 260 444 q 232 408 233 410 l 232 57 l 294 57 q 332 29 332 57 q 294 0 332 0 l 113 0 q 74 29 74 0 q 113 57 74 57 l 175 57 l 175 522 l 128 522 q 90 551 90 522 q 128 579 90 579 l 232 579 l 232 483 q 338 574 292 550 q 449 599 383 599 q 604 544 542 599 q 667 410 667 490 l 667 57 l 714 57 q 751 29 751 57 q 714 0 751 0 l 563 0 q 525 29 525 0 q 563 57 525 57 l 610 57 l 610 400 q 565 501 610 460 q 443 542 519 542 z "},"Ņ":{"ha":833,"x_min":31,"x_max":781,"o":"m 365 -72 l 460 -72 l 357 -260 q 335 -278 347 -278 q 320 -272 326 -278 q 314 -257 314 -265 q 315 -250 314 -256 l 365 -72 m 696 0 l 624 0 l 200 700 l 200 57 l 304 57 q 342 29 342 57 q 304 0 342 0 l 96 0 q 58 29 58 0 q 96 57 58 57 l 143 57 l 143 725 l 68 725 q 31 754 31 725 q 68 782 31 782 l 215 782 l 639 82 l 639 725 l 536 725 q 497 754 497 725 q 536 782 497 782 l 743 782 q 781 754 781 782 q 743 725 781 725 l 696 725 l 696 0 z "},"ņ":{"ha":833,"x_min":74,"x_max":751,"o":"m 365 -72 l 460 -72 l 357 -260 q 335 -278 347 -278 q 320 -272 326 -278 q 314 -257 314 -265 q 315 -250 314 -256 l 365 -72 m 443 542 q 395 537 418 542 q 352 522 372 532 q 318 502 332 511 q 288 476 304 493 q 266 452 272 460 q 247 427 260 444 q 232 408 233 410 l 232 57 l 294 57 q 332 29 332 57 q 294 0 332 0 l 113 0 q 74 29 74 0 q 113 57 74 57 l 175 57 l 175 522 l 128 522 q 90 551 90 522 q 128 579 90 579 l 232 579 l 232 483 q 338 574 292 550 q 449 599 383 599 q 604 544 542 599 q 667 410 667 490 l 667 57 l 714 57 q 751 29 751 57 q 714 0 751 0 l 563 0 q 525 29 525 0 q 563 57 525 57 l 610 57 l 610 400 q 565 501 610 460 q 443 542 519 542 z "},"Ň":{"ha":833,"x_min":31,"x_max":781,"o":"m 406 840 l 222 992 q 204 1019 204 1004 q 213 1039 204 1031 q 232 1047 221 1047 q 257 1036 242 1047 l 406 914 l 554 1036 q 579 1047 569 1047 q 598 1038 589 1047 q 607 1019 607 1029 q 589 990 607 1006 l 406 840 m 696 0 l 624 0 l 200 700 l 200 57 l 304 57 q 342 29 342 57 q 304 0 342 0 l 96 0 q 58 29 58 0 q 96 57 58 57 l 143 57 l 143 725 l 68 725 q 31 754 31 725 q 68 782 31 782 l 215 782 l 639 82 l 639 725 l 536 725 q 497 754 497 725 q 536 782 497 782 l 743 782 q 781 754 781 782 q 743 725 781 725 l 696 725 l 696 0 z "},"ň":{"ha":833,"x_min":74,"x_max":751,"o":"m 413 682 l 229 833 q 211 861 211 846 q 219 881 211 872 q 239 889 228 889 q 264 878 249 889 l 413 756 l 561 878 q 586 889 576 889 q 605 880 596 889 q 614 861 614 871 q 596 832 614 847 l 413 682 m 443 542 q 395 537 418 542 q 352 522 372 532 q 318 502 332 511 q 288 476 304 493 q 266 452 272 460 q 247 427 260 444 q 232 408 233 410 l 232 57 l 294 57 q 332 29 332 57 q 294 0 332 0 l 113 0 q 74 29 74 0 q 113 57 74 57 l 175 57 l 175 522 l 128 522 q 90 551 90 522 q 128 579 90 579 l 232 579 l 232 483 q 338 574 292 550 q 449 599 383 599 q 604 544 542 599 q 667 410 667 490 l 667 57 l 714 57 q 751 29 751 57 q 714 0 751 0 l 563 0 q 525 29 525 0 q 563 57 525 57 l 610 57 l 610 400 q 565 501 610 460 q 443 542 519 542 z "},"ŉ":{"ha":833,"x_min":11,"x_max":751,"o":"m 443 542 q 395 537 418 542 q 352 522 372 532 q 318 502 332 511 q 288 476 304 493 q 266 452 272 460 q 247 427 260 444 q 232 408 233 410 l 232 57 l 294 57 q 332 29 332 57 q 294 0 332 0 l 113 0 q 74 29 74 0 q 113 57 74 57 l 175 57 l 175 522 l 128 522 q 90 551 90 522 q 128 579 90 579 l 232 579 l 232 483 q 338 574 292 550 q 449 599 383 599 q 604 544 542 599 q 667 410 667 490 l 667 57 l 714 57 q 751 29 751 57 q 714 0 751 0 l 563 0 q 525 29 525 0 q 563 57 525 57 l 610 57 l 610 400 q 565 501 610 460 q 443 542 519 542 m 71 922 l 182 922 l 61 701 q 35 681 50 681 q 18 688 25 681 q 11 704 11 694 q 12 710 11 707 q 13 714 13 713 l 71 922 z "},"Ŋ":{"ha":833,"x_min":74,"x_max":724,"o":"m 667 415 q 611 658 667 572 q 471 744 556 744 q 232 611 336 744 l 232 57 l 294 57 q 332 29 332 57 q 294 0 332 0 l 113 0 q 74 29 74 0 q 113 57 74 57 l 175 57 l 175 725 l 128 725 q 90 754 90 725 q 128 782 90 782 l 232 782 l 232 686 q 476 801 336 801 q 651 705 578 801 q 724 425 724 608 q 519 -15 724 -15 q 442 -4 485 -15 q 399 32 399 7 q 406 51 399 43 q 424 60 414 60 q 460 51 428 60 q 521 42 492 42 q 667 415 667 42 z "},"ŋ":{"ha":833,"x_min":74,"x_max":667,"o":"m 367 -201 q 403 -210 372 -201 q 464 -219 433 -219 q 569 -174 528 -219 q 610 -58 610 -129 l 610 400 q 565 501 610 460 q 443 542 519 542 q 395 537 418 542 q 352 522 372 532 q 318 502 332 511 q 288 476 304 493 q 266 452 272 460 q 247 427 260 444 q 232 408 233 410 l 232 57 l 294 57 q 332 29 332 57 q 294 0 332 0 l 113 0 q 74 29 74 0 q 113 57 74 57 l 175 57 l 175 522 l 128 522 q 90 551 90 522 q 128 579 90 579 l 232 579 l 232 483 q 338 574 292 550 q 449 599 383 599 q 604 544 542 599 q 667 410 667 490 l 667 -67 q 607 -215 667 -154 q 463 -276 547 -276 q 385 -265 428 -276 q 342 -229 342 -254 q 349 -210 342 -218 q 367 -201 357 -201 z "},"Ō":{"ha":833,"x_min":71,"x_max":763,"o":"m 417 800 q 663 680 564 800 q 763 383 763 560 q 661 97 763 215 q 417 -22 560 -22 q 172 97 272 -22 q 71 389 71 217 q 172 681 71 561 q 417 800 272 800 m 417 743 q 213 639 297 743 q 128 389 128 535 q 213 139 128 243 q 417 35 297 35 q 620 138 535 35 q 706 385 706 242 q 622 639 706 535 q 417 743 538 743 z "},"ō":{"ha":833,"x_min":100,"x_max":733,"o":"m 417 599 q 642 508 550 599 q 733 285 733 417 q 640 67 733 157 q 417 -22 547 -22 q 192 68 285 -22 q 100 289 100 158 q 192 508 100 417 q 417 599 285 599 m 417 542 q 233 468 308 542 q 157 289 157 394 q 233 109 157 183 q 417 35 308 35 q 600 108 524 35 q 676 285 676 182 q 601 468 676 394 q 417 542 526 542 z "},"Ŏ":{"ha":833,"x_min":71,"x_max":763,"o":"m 244 1033 q 272 1003 268 1033 q 317 936 275 963 q 417 910 358 910 q 516 936 475 910 q 561 1003 557 963 q 590 1033 565 1033 q 610 1024 601 1033 q 618 1001 618 1015 q 560 896 618 939 q 417 853 501 853 q 274 896 332 853 q 215 1001 215 939 q 244 1033 215 1033 m 417 800 q 663 680 564 800 q 763 383 763 560 q 661 97 763 215 q 417 -22 560 -22 q 172 97 272 -22 q 71 389 71 217 q 172 681 71 561 q 417 800 272 800 m 417 743 q 213 639 297 743 q 128 389 128 535 q 213 139 128 243 q 417 35 297 35 q 620 138 535 35 q 706 385 706 242 q 622 639 706 535 q 417 743 538 743 z "},"ŏ":{"ha":833,"x_min":100,"x_max":733,"o":"m 244 863 q 272 832 268 863 q 317 765 275 792 q 417 739 358 739 q 516 765 475 739 q 561 832 557 792 q 590 863 565 863 q 610 853 601 863 q 618 831 618 844 q 560 725 618 768 q 417 682 501 682 q 274 725 332 682 q 215 831 215 768 q 244 863 215 863 m 417 599 q 642 508 550 599 q 733 285 733 417 q 640 67 733 157 q 417 -22 547 -22 q 192 68 285 -22 q 100 289 100 158 q 192 508 100 417 q 417 599 285 599 m 417 542 q 233 468 308 542 q 157 289 157 394 q 233 109 157 183 q 417 35 308 35 q 600 108 524 35 q 676 285 676 182 q 601 468 676 394 q 417 542 526 542 z "},"Ő":{"ha":833,"x_min":71,"x_max":763,"o":"m 479 979 l 344 849 q 318 836 331 836 q 299 844 307 836 q 290 865 290 853 q 307 892 290 876 l 443 1022 q 468 1035 456 1035 q 488 1026 479 1035 q 496 1006 496 1018 q 479 979 496 996 m 676 979 l 540 849 q 514 836 525 836 q 494 844 503 836 q 486 865 486 853 q 503 892 486 878 l 639 1022 q 665 1035 653 1035 q 685 1026 676 1035 q 693 1006 693 1018 q 676 979 693 994 m 417 800 q 663 680 564 800 q 763 383 763 560 q 661 97 763 215 q 417 -22 560 -22 q 172 97 272 -22 q 71 389 71 217 q 172 681 71 561 q 417 800 272 800 m 417 743 q 213 639 297 743 q 128 389 128 535 q 213 139 128 243 q 417 35 297 35 q 620 138 535 35 q 706 385 706 242 q 622 639 706 535 q 417 743 538 743 z "},"ő":{"ha":833,"x_min":100,"x_max":733,"o":"m 479 825 l 344 694 q 318 682 331 682 q 299 690 307 682 q 290 711 290 699 q 307 738 290 722 l 443 868 q 468 881 456 881 q 488 872 479 881 q 496 851 496 864 q 479 825 496 842 m 676 825 l 540 694 q 514 682 525 682 q 494 690 503 682 q 486 711 486 699 q 503 738 486 724 l 639 868 q 665 881 653 881 q 685 872 676 881 q 693 851 693 864 q 676 825 693 840 m 417 599 q 642 508 550 599 q 733 285 733 417 q 640 67 733 157 q 417 -22 547 -22 q 192 68 285 -22 q 100 289 100 158 q 192 508 100 417 q 417 599 285 599 m 417 542 q 233 468 308 542 q 157 289 157 394 q 233 109 157 183 q 417 35 308 35 q 600 108 524 35 q 676 285 676 182 q 601 468 676 394 q 417 542 526 542 z "},"Œ":{"ha":833,"x_min":14,"x_max":819,"o":"m 469 378 l 469 57 l 763 57 l 763 185 q 790 222 763 222 q 819 185 819 222 l 819 0 l 365 0 q 110 108 207 0 q 14 392 14 215 q 108 674 14 565 q 354 782 203 782 l 792 782 l 792 568 q 764 531 792 531 q 735 568 735 531 l 735 725 l 469 725 l 469 435 l 578 435 l 578 472 q 607 510 578 510 q 635 472 635 510 l 635 339 q 607 301 635 301 q 578 339 578 301 l 578 378 l 469 378 m 71 390 q 85 279 71 333 q 130 173 99 225 q 222 89 161 121 q 368 57 283 57 l 413 57 l 413 725 l 368 725 q 222 693 283 725 q 130 609 161 661 q 85 503 99 557 q 71 390 71 449 z "},"œ":{"ha":833,"x_min":17,"x_max":803,"o":"m 415 440 q 599 599 478 599 q 665 584 632 599 q 730 535 697 569 q 782 435 763 501 q 801 276 801 368 l 443 276 q 502 104 451 174 q 619 35 553 35 q 686 56 654 35 q 741 99 718 78 q 775 121 764 121 q 794 112 786 121 q 803 93 803 103 q 738 24 803 69 q 617 -22 674 -22 q 501 22 554 -22 q 415 143 447 67 q 337 21 385 64 q 231 -22 289 -22 q 81 72 144 -22 q 17 294 17 167 q 80 508 17 418 q 229 599 143 599 q 336 556 286 599 q 415 440 386 513 m 744 333 q 733 400 739 374 q 712 464 726 426 q 667 522 697 501 q 596 542 638 542 q 444 333 472 542 l 744 333 m 231 542 q 121 466 168 542 q 74 289 74 390 q 121 111 74 188 q 232 35 168 35 q 341 111 293 35 q 389 286 389 188 q 342 465 389 389 q 231 542 294 542 z "},"Ŕ":{"ha":833,"x_min":60,"x_max":818,"o":"m 229 349 l 229 57 l 333 57 q 371 29 371 57 q 333 0 371 0 l 97 0 q 60 29 60 0 q 97 57 60 57 l 172 57 l 172 725 l 97 725 q 60 754 60 725 q 97 782 60 782 l 442 782 q 617 717 543 782 q 692 565 692 653 q 499 364 692 431 q 608 263 564 319 q 738 57 653 206 l 781 57 q 818 29 818 57 q 781 0 818 0 l 701 0 q 551 241 610 169 q 413 349 492 313 l 229 349 m 229 406 l 388 406 q 563 453 490 406 q 635 567 635 500 q 576 677 635 629 q 442 725 517 725 l 229 725 l 229 406 z "},"ŕ":{"ha":833,"x_min":117,"x_max":751,"o":"m 722 478 q 679 507 715 478 q 608 536 643 536 q 510 503 561 536 q 344 364 460 469 l 344 57 l 593 57 q 631 28 631 57 q 593 0 631 0 l 154 0 q 117 29 117 0 q 154 57 117 57 l 288 57 l 288 522 l 183 522 q 146 551 146 522 q 183 579 146 579 l 344 579 l 344 438 q 500 559 440 525 q 613 593 560 593 q 710 560 668 593 q 751 507 751 526 q 743 486 751 494 q 722 478 735 478 z "},"Ŗ":{"ha":833,"x_min":60,"x_max":818,"o":"m 365 -72 l 460 -72 l 357 -260 q 335 -278 347 -278 q 320 -272 326 -278 q 314 -257 314 -265 q 315 -250 314 -256 l 365 -72 m 229 349 l 229 57 l 333 57 q 371 29 371 57 q 333 0 371 0 l 97 0 q 60 29 60 0 q 97 57 60 57 l 172 57 l 172 725 l 97 725 q 60 754 60 725 q 97 782 60 782 l 442 782 q 617 717 543 782 q 692 565 692 653 q 499 364 692 431 q 608 263 564 319 q 738 57 653 206 l 781 57 q 818 29 818 57 q 781 0 818 0 l 701 0 q 551 241 610 169 q 413 349 492 313 l 229 349 m 229 406 l 388 406 q 563 453 490 406 q 635 567 635 500 q 576 677 635 629 q 442 725 517 725 l 229 725 l 229 406 z "},"ŗ":{"ha":833,"x_min":117,"x_max":751,"o":"m 365 -72 l 460 -72 l 357 -260 q 335 -278 347 -278 q 320 -272 326 -278 q 314 -257 314 -265 q 315 -250 314 -256 l 365 -72 m 722 478 q 679 507 715 478 q 608 536 643 536 q 510 503 561 536 q 344 364 460 469 l 344 57 l 593 57 q 631 28 631 57 q 593 0 631 0 l 154 0 q 117 29 117 0 q 154 57 117 57 l 288 57 l 288 522 l 183 522 q 146 551 146 522 q 183 579 146 579 l 344 579 l 344 438 q 500 559 440 525 q 613 593 560 593 q 710 560 668 593 q 751 507 751 526 q 743 486 751 494 q 722 478 735 478 z "},"Ř":{"ha":833,"x_min":60,"x_max":818,"o":"m 417 838 l 233 989 q 215 1017 215 1001 q 224 1036 215 1028 q 243 1044 232 1044 q 268 1033 253 1044 l 417 911 l 565 1033 q 590 1044 581 1044 q 609 1035 600 1044 q 618 1017 618 1026 q 600 988 618 1003 l 417 838 m 229 349 l 229 57 l 333 57 q 371 29 371 57 q 333 0 371 0 l 97 0 q 60 29 60 0 q 97 57 60 57 l 172 57 l 172 725 l 97 725 q 60 754 60 725 q 97 782 60 782 l 442 782 q 617 717 543 782 q 692 565 692 653 q 499 364 692 431 q 608 263 564 319 q 738 57 653 206 l 781 57 q 818 29 818 57 q 781 0 818 0 l 701 0 q 551 241 610 169 q 413 349 492 313 l 229 349 m 229 406 l 388 406 q 563 453 490 406 q 635 567 635 500 q 576 677 635 629 q 442 725 517 725 l 229 725 l 229 406 z "},"ř":{"ha":833,"x_min":117,"x_max":751,"o":"m 433 682 l 250 833 q 232 861 232 846 q 240 881 232 872 q 260 889 249 889 q 285 878 269 889 l 433 756 l 582 878 q 607 889 597 889 q 626 880 617 889 q 635 861 635 871 q 617 832 635 847 l 433 682 m 722 478 q 679 507 715 478 q 608 536 643 536 q 510 503 561 536 q 344 364 460 469 l 344 57 l 593 57 q 631 28 631 57 q 593 0 631 0 l 154 0 q 117 29 117 0 q 154 57 117 57 l 288 57 l 288 522 l 183 522 q 146 551 146 522 q 183 579 146 579 l 344 579 l 344 438 q 500 559 440 525 q 613 593 560 593 q 710 560 668 593 q 751 507 751 526 q 743 486 751 494 q 722 478 735 478 z "},"Ś":{"ha":833,"x_min":128,"x_max":706,"o":"m 644 213 q 608 307 644 271 q 519 355 572 343 q 402 381 465 367 q 285 412 339 396 q 196 472 232 428 q 160 585 160 515 q 233 738 160 676 q 415 800 306 800 q 618 718 535 800 l 618 744 q 647 782 618 782 q 675 744 675 782 l 675 601 q 647 564 675 564 q 618 597 619 564 q 557 701 614 660 q 419 743 500 743 q 277 697 333 743 q 221 583 221 651 q 257 496 221 529 q 347 451 293 463 q 463 423 400 439 q 580 390 526 407 q 669 327 633 374 q 706 210 706 281 q 625 43 706 108 q 419 -22 544 -22 q 185 78 272 -22 l 185 38 q 156 0 185 0 q 128 38 128 0 l 128 193 q 157 231 128 231 q 185 197 183 231 q 256 82 188 129 q 418 35 324 35 q 580 85 515 35 q 644 213 644 136 z "},"ś":{"ha":833,"x_min":143,"x_max":690,"o":"m 628 163 q 581 242 628 214 q 467 279 533 269 q 333 300 400 289 q 219 346 267 311 q 172 442 172 381 q 240 554 172 510 q 410 599 307 599 q 600 535 528 599 l 600 540 q 629 579 600 579 q 657 540 657 579 l 657 444 q 629 407 657 407 q 600 439 604 407 q 544 514 594 486 q 415 542 494 542 q 286 512 338 542 q 235 438 235 482 q 282 374 235 396 q 396 342 329 351 q 529 320 463 333 q 643 267 596 307 q 690 161 690 228 q 613 30 690 82 q 418 -22 536 -22 q 200 53 285 -22 l 200 38 q 172 0 200 0 q 143 38 143 0 l 143 153 q 172 190 143 190 q 200 160 200 190 l 200 150 q 263 69 200 103 q 414 35 325 35 q 567 71 506 35 q 628 163 628 107 z "},"Ŝ":{"ha":833,"x_min":128,"x_max":706,"o":"m 415 1043 l 599 893 q 617 864 617 878 q 608 844 617 853 q 589 836 600 836 q 564 847 579 836 l 415 969 l 267 847 q 242 836 251 836 q 222 844 231 836 q 214 864 214 853 q 232 892 214 875 l 415 1043 m 644 213 q 608 307 644 271 q 519 355 572 343 q 402 381 465 367 q 285 412 339 396 q 196 472 232 428 q 160 585 160 515 q 233 738 160 676 q 415 800 306 800 q 618 718 535 800 l 618 744 q 647 782 618 782 q 675 744 675 782 l 675 601 q 647 564 675 564 q 618 597 619 564 q 557 701 614 660 q 419 743 500 743 q 277 697 333 743 q 221 583 221 651 q 257 496 221 529 q 347 451 293 463 q 463 423 400 439 q 580 390 526 407 q 669 327 633 374 q 706 210 706 281 q 625 43 706 108 q 419 -22 544 -22 q 185 78 272 -22 l 185 38 q 156 0 185 0 q 128 38 128 0 l 128 193 q 157 231 128 231 q 185 197 183 231 q 256 82 188 129 q 418 35 324 35 q 580 85 515 35 q 644 213 644 136 z "},"ŝ":{"ha":833,"x_min":143,"x_max":690,"o":"m 410 869 l 593 719 q 611 690 611 704 q 603 671 611 679 q 583 663 594 663 q 558 674 574 663 l 410 796 l 261 674 q 236 663 246 663 q 217 671 225 663 q 208 690 208 679 q 226 718 208 701 l 410 869 m 628 163 q 581 242 628 214 q 467 279 533 269 q 333 300 400 289 q 219 346 267 311 q 172 442 172 381 q 240 554 172 510 q 410 599 307 599 q 600 535 528 599 l 600 540 q 629 579 600 579 q 657 540 657 579 l 657 444 q 629 407 657 407 q 600 439 604 407 q 544 514 594 486 q 415 542 494 542 q 286 512 338 542 q 235 438 235 482 q 282 374 235 396 q 396 342 329 351 q 529 320 463 333 q 643 267 596 307 q 690 161 690 228 q 613 30 690 82 q 418 -22 536 -22 q 200 53 285 -22 l 200 38 q 172 0 200 0 q 143 38 143 0 l 143 153 q 172 190 143 190 q 200 160 200 190 l 200 150 q 263 69 200 103 q 414 35 325 35 q 567 71 506 35 q 628 163 628 107 z "},"Ş":{"ha":833,"x_min":128,"x_max":706,"o":"m 221 583 q 257 496 221 529 q 347 451 293 463 q 463 423 400 439 q 580 390 526 407 q 669 327 633 374 q 706 210 706 281 q 631 49 706 113 q 433 -22 556 -15 l 433 -65 q 524 -150 524 -68 q 493 -215 524 -190 q 414 -240 463 -240 q 335 -224 378 -240 q 292 -185 292 -208 q 300 -166 292 -174 q 319 -158 308 -158 q 356 -173 325 -158 q 413 -187 388 -187 q 456 -176 439 -187 q 474 -147 474 -165 q 408 -112 474 -112 l 381 -112 l 381 -21 q 185 78 253 -6 l 185 38 q 156 0 185 0 q 128 38 128 0 l 128 193 q 157 231 128 231 q 185 197 183 231 q 256 82 188 129 q 418 35 324 35 q 581 85 517 35 q 644 213 644 136 q 608 307 644 271 q 519 355 572 343 q 402 381 465 367 q 285 412 339 396 q 196 472 232 428 q 160 585 160 515 q 233 738 160 676 q 415 800 306 800 q 618 718 535 800 l 618 744 q 647 782 618 782 q 675 744 675 782 l 675 601 q 647 564 675 564 q 618 597 619 564 q 557 701 614 660 q 419 743 500 743 q 277 697 333 743 q 221 583 221 651 z "},"ş":{"ha":833,"x_min":143,"x_max":690,"o":"m 628 163 q 581 242 628 214 q 467 279 533 269 q 333 300 400 289 q 219 346 267 311 q 172 442 172 381 q 240 554 172 510 q 408 599 307 599 q 600 535 528 599 l 600 540 q 629 579 600 579 q 657 540 657 579 l 657 444 q 629 407 657 407 q 600 439 604 407 q 544 513 596 485 q 415 542 493 542 q 286 512 338 542 q 235 438 235 482 q 278 375 235 396 q 377 349 321 354 q 506 329 433 344 q 621 286 578 314 q 690 161 690 239 q 619 33 690 83 q 433 -22 549 -17 l 433 -65 q 524 -150 524 -68 q 493 -215 524 -190 q 414 -240 463 -240 q 335 -224 378 -240 q 292 -185 292 -208 q 299 -166 292 -174 q 318 -158 307 -158 q 356 -173 325 -158 q 411 -187 386 -187 q 455 -176 438 -187 q 472 -147 472 -165 q 408 -112 472 -112 l 381 -112 l 381 -21 q 200 53 264 -8 l 200 38 q 172 0 200 0 q 143 38 143 0 l 143 153 q 172 190 143 190 q 200 160 200 190 l 200 150 q 263 69 200 103 q 414 35 325 35 q 567 71 506 35 q 628 163 628 107 z "},"Š":{"ha":833,"x_min":128,"x_max":706,"o":"m 428 833 l 244 985 q 226 1013 226 997 q 235 1032 226 1024 q 254 1040 243 1040 q 279 1029 264 1040 l 428 907 l 576 1029 q 601 1040 592 1040 q 620 1031 611 1040 q 629 1013 629 1022 q 611 983 629 999 l 428 833 m 644 213 q 608 307 644 271 q 519 355 572 343 q 402 381 465 367 q 285 412 339 396 q 196 472 232 428 q 160 585 160 515 q 233 738 160 676 q 415 800 306 800 q 618 718 535 800 l 618 744 q 647 782 618 782 q 675 744 675 782 l 675 601 q 647 564 675 564 q 618 597 619 564 q 557 701 614 660 q 419 743 500 743 q 277 697 333 743 q 221 583 221 651 q 257 496 221 529 q 347 451 293 463 q 463 423 400 439 q 580 390 526 407 q 669 327 633 374 q 706 210 706 281 q 625 43 706 108 q 419 -22 544 -22 q 185 78 272 -22 l 185 38 q 156 0 185 0 q 128 38 128 0 l 128 193 q 157 231 128 231 q 185 197 183 231 q 256 82 188 129 q 418 35 324 35 q 580 85 515 35 q 644 213 644 136 z "},"š":{"ha":833,"x_min":143,"x_max":690,"o":"m 425 681 l 242 832 q 224 860 224 844 q 232 879 224 871 q 251 888 240 888 q 276 876 261 888 l 425 754 l 574 876 q 599 888 589 888 q 617 878 608 888 q 626 860 626 869 q 608 831 626 846 l 425 681 m 628 163 q 581 242 628 214 q 467 279 533 269 q 333 300 400 289 q 219 346 267 311 q 172 442 172 381 q 240 554 172 510 q 410 599 307 599 q 600 535 528 599 l 600 540 q 629 579 600 579 q 657 540 657 579 l 657 444 q 629 407 657 407 q 600 439 604 407 q 544 514 594 486 q 415 542 494 542 q 286 512 338 542 q 235 438 235 482 q 282 374 235 396 q 396 342 329 351 q 529 320 463 333 q 643 267 596 307 q 690 161 690 228 q 613 30 690 82 q 418 -22 536 -22 q 200 53 285 -22 l 200 38 q 172 0 200 0 q 143 38 143 0 l 143 153 q 172 190 143 190 q 200 160 200 190 l 200 150 q 263 69 200 103 q 414 35 325 35 q 567 71 506 35 q 628 163 628 107 z "},"Ţ":{"ha":833,"x_min":100,"x_max":733,"o":"m 328 -158 q 364 -173 333 -158 q 419 -187 394 -187 q 463 -176 446 -187 q 481 -147 481 -165 q 417 -112 481 -112 l 389 -112 l 389 0 l 243 0 q 206 29 206 0 q 243 57 206 57 l 389 57 l 389 725 l 157 725 l 157 624 q 128 586 157 586 q 100 624 100 586 l 100 782 l 733 782 l 733 624 q 706 586 733 586 q 685 597 693 586 q 676 624 676 607 l 676 725 l 446 725 l 446 57 l 592 57 q 629 29 629 57 q 592 0 629 0 l 442 0 l 442 -65 q 532 -150 532 -68 q 501 -215 532 -190 q 422 -240 471 -240 q 343 -224 386 -240 q 300 -185 300 -208 q 308 -166 300 -174 q 328 -158 317 -158 z "},"ţ":{"ha":833,"x_min":60,"x_max":693,"o":"m 289 -181 q 325 -195 294 -181 q 381 -210 356 -210 q 424 -199 407 -210 q 442 -169 442 -187 q 378 -135 442 -135 l 350 -135 l 350 -22 l 403 -22 l 403 -87 q 493 -172 493 -90 q 463 -237 493 -212 q 383 -262 432 -262 q 304 -247 347 -262 q 261 -207 261 -231 q 269 -188 261 -196 q 289 -181 278 -181 m 258 579 l 564 579 q 601 551 601 579 q 564 522 601 522 l 258 522 l 258 151 q 300 67 258 99 q 414 35 342 35 q 538 51 472 35 q 644 90 604 67 q 667 99 658 99 q 685 90 676 99 q 693 71 693 82 q 599 9 693 40 q 417 -22 506 -22 q 260 24 318 -22 q 201 149 201 71 l 201 522 l 99 522 q 60 551 60 522 q 99 579 60 579 l 201 579 l 201 744 q 231 782 201 782 q 258 744 258 782 l 258 579 z "},"Ť":{"ha":833,"x_min":100,"x_max":733,"o":"m 417 838 l 233 989 q 215 1017 215 1001 q 224 1036 215 1028 q 243 1044 232 1044 q 268 1033 253 1044 l 417 911 l 565 1033 q 590 1044 581 1044 q 609 1035 600 1044 q 618 1017 618 1026 q 600 988 618 1003 l 417 838 m 446 57 l 592 57 q 629 29 629 57 q 592 0 629 0 l 243 0 q 206 29 206 0 q 243 57 206 57 l 389 57 l 389 725 l 157 725 l 157 624 q 128 586 157 586 q 100 624 100 586 l 100 782 l 733 782 l 733 624 q 706 586 733 586 q 685 597 693 586 q 676 624 676 607 l 676 725 l 446 725 l 446 57 z "},"ť":{"ha":833,"x_min":60,"x_max":719,"o":"m 608 851 l 719 851 l 599 631 q 572 610 588 610 q 556 617 563 610 q 549 633 549 624 q 549 639 549 636 q 550 643 550 642 l 608 851 m 258 579 l 564 579 q 601 551 601 579 q 564 522 601 522 l 258 522 l 258 151 q 300 67 258 99 q 414 35 342 35 q 538 51 472 35 q 644 90 604 67 q 667 99 658 99 q 685 90 676 99 q 693 71 693 82 q 599 9 693 40 q 417 -22 506 -22 q 260 24 318 -22 q 201 149 201 71 l 201 522 l 99 522 q 60 551 60 522 q 99 579 60 579 l 201 579 l 201 744 q 231 782 201 782 q 258 744 258 782 l 258 579 z "},"Ŧ":{"ha":833,"x_min":100,"x_max":733,"o":"m 446 468 l 583 468 q 621 440 621 468 q 583 413 621 413 l 446 413 l 446 57 l 592 57 q 629 29 629 57 q 592 0 629 0 l 243 0 q 206 29 206 0 q 243 57 206 57 l 389 57 l 389 413 l 256 413 q 218 440 218 413 q 256 468 218 468 l 389 468 l 389 725 l 157 725 l 157 624 q 128 586 157 586 q 100 624 100 586 l 100 782 l 733 782 l 733 624 q 706 586 733 586 q 685 597 693 586 q 676 624 676 607 l 676 725 l 446 725 l 446 468 z "},"ŧ":{"ha":833,"x_min":60,"x_max":693,"o":"m 201 382 l 201 522 l 99 522 q 60 551 60 522 q 99 579 60 579 l 201 579 l 201 744 q 231 782 201 782 q 258 744 258 782 l 258 579 l 564 579 q 601 551 601 579 q 564 522 601 522 l 258 522 l 258 382 l 564 382 q 601 354 601 382 q 564 326 601 326 l 258 326 l 258 151 q 300 67 258 99 q 414 35 342 35 q 538 51 472 35 q 644 90 604 67 q 667 99 658 99 q 685 90 676 99 q 693 71 693 82 q 599 9 693 40 q 417 -22 506 -22 q 260 24 318 -22 q 201 149 201 71 l 201 326 l 97 326 q 60 354 60 326 q 97 382 60 382 l 201 382 z "},"Ũ":{"ha":833,"x_min":56,"x_max":778,"o":"m 503 911 q 561 943 528 911 q 604 975 594 975 q 624 967 615 975 q 632 947 632 958 q 588 890 632 926 q 506 854 544 854 q 410 888 469 854 q 333 921 350 921 q 272 890 299 921 q 229 858 246 858 q 210 866 218 858 q 201 885 201 874 q 247 944 201 910 q 332 978 292 978 q 424 944 364 978 q 503 911 485 911 m 693 725 l 693 257 q 613 58 693 139 q 417 -22 533 -22 q 219 58 299 -22 q 140 257 140 138 l 140 725 l 93 725 q 56 754 56 725 q 93 782 56 782 l 300 782 q 338 754 338 782 q 300 725 338 725 l 197 725 l 197 257 q 260 99 197 163 q 417 35 324 35 q 572 99 508 35 q 636 257 636 164 l 636 725 l 533 725 q 496 754 496 725 q 533 782 496 782 l 740 782 q 778 754 778 782 q 740 725 778 725 l 693 725 z "},"ũ":{"ha":833,"x_min":60,"x_max":751,"o":"m 468 739 q 526 771 493 739 q 569 803 560 803 q 589 794 581 803 q 597 775 597 786 q 553 718 597 754 q 471 682 510 682 q 375 715 435 682 q 299 749 315 749 q 238 717 264 749 q 194 686 211 686 q 175 694 183 686 q 167 713 167 701 q 212 772 167 738 q 297 806 257 806 q 390 772 329 806 q 468 739 450 739 m 610 0 l 610 92 q 357 -22 493 -22 q 223 28 274 -22 q 172 160 172 78 l 172 522 l 97 522 q 60 551 60 522 q 97 579 60 579 l 229 579 l 229 160 q 266 71 229 107 q 356 35 303 35 q 610 160 494 35 l 610 522 l 507 522 q 468 551 468 522 q 507 579 468 579 l 667 579 l 667 57 l 714 57 q 751 29 751 57 q 714 0 751 0 l 610 0 z "},"Ū":{"ha":833,"x_min":56,"x_max":778,"o":"m 693 725 l 693 257 q 613 58 693 139 q 417 -22 533 -22 q 219 58 299 -22 q 140 257 140 138 l 140 725 l 93 725 q 56 754 56 725 q 93 782 56 782 l 300 782 q 338 754 338 782 q 300 725 338 725 l 197 725 l 197 257 q 260 99 197 163 q 417 35 324 35 q 572 99 508 35 q 636 257 636 164 l 636 725 l 533 725 q 496 754 496 725 q 533 782 496 782 l 740 782 q 778 754 778 782 q 740 725 778 725 l 693 725 z "},"ū":{"ha":833,"x_min":60,"x_max":751,"o":"m 610 0 l 610 92 q 357 -22 493 -22 q 223 28 274 -22 q 172 160 172 78 l 172 522 l 97 522 q 60 551 60 522 q 97 579 60 579 l 229 579 l 229 160 q 266 71 229 107 q 356 35 303 35 q 610 160 494 35 l 610 522 l 507 522 q 468 551 468 522 q 507 579 468 579 l 667 579 l 667 57 l 714 57 q 751 29 751 57 q 714 0 751 0 l 610 0 z "},"Ŭ":{"ha":833,"x_min":56,"x_max":778,"o":"m 244 1035 q 272 1004 268 1035 q 317 938 275 964 q 417 911 358 911 q 516 938 475 911 q 561 1004 557 964 q 590 1035 565 1035 q 610 1026 601 1035 q 618 1003 618 1017 q 560 897 618 940 q 417 854 501 854 q 274 897 332 854 q 215 1003 215 940 q 244 1035 215 1035 m 693 725 l 693 257 q 613 58 693 139 q 417 -22 533 -22 q 219 58 299 -22 q 140 257 140 138 l 140 725 l 93 725 q 56 754 56 725 q 93 782 56 782 l 300 782 q 338 754 338 782 q 300 725 338 725 l 197 725 l 197 257 q 260 99 197 163 q 417 35 324 35 q 572 99 508 35 q 636 257 636 164 l 636 725 l 533 725 q 496 754 496 725 q 533 782 496 782 l 740 782 q 778 754 778 782 q 740 725 778 725 l 693 725 z "},"ŭ":{"ha":833,"x_min":60,"x_max":751,"o":"m 210 863 q 238 832 233 863 q 282 765 240 792 q 382 739 324 739 q 481 765 440 739 q 526 832 522 792 q 556 863 531 863 q 575 853 567 863 q 583 831 583 844 q 525 725 583 768 q 382 682 467 682 q 239 725 297 682 q 181 831 181 768 q 210 863 181 863 m 610 0 l 610 92 q 357 -22 493 -22 q 223 28 274 -22 q 172 160 172 78 l 172 522 l 97 522 q 60 551 60 522 q 97 579 60 579 l 229 579 l 229 160 q 266 71 229 107 q 356 35 303 35 q 610 160 494 35 l 610 522 l 507 522 q 468 551 468 522 q 507 579 468 579 l 667 579 l 667 57 l 714 57 q 751 29 751 57 q 714 0 751 0 l 610 0 z "},"Ů":{"ha":833,"x_min":56,"x_max":778,"o":"m 417 1085 q 508 1048 471 1085 q 546 957 546 1011 q 508 870 546 907 q 417 833 469 833 q 326 871 364 833 q 288 960 288 908 q 326 1048 288 1011 q 417 1085 364 1085 m 476 1015 q 464 1027 476 1015 q 417 1039 451 1039 q 358 1015 382 1039 q 333 960 333 992 q 358 903 333 926 q 417 879 382 879 q 476 903 451 879 q 500 958 500 926 q 476 1015 500 992 m 693 725 l 693 257 q 613 58 693 139 q 417 -22 533 -22 q 219 58 299 -22 q 140 257 140 138 l 140 725 l 93 725 q 56 754 56 725 q 93 782 56 782 l 300 782 q 338 754 338 782 q 300 725 338 725 l 197 725 l 197 257 q 260 99 197 163 q 417 35 324 35 q 572 99 508 35 q 636 257 636 164 l 636 725 l 533 725 q 496 754 496 725 q 533 782 496 782 l 740 782 q 778 754 778 782 q 740 725 778 725 l 693 725 z "},"ů":{"ha":833,"x_min":60,"x_max":751,"o":"m 382 933 q 474 897 436 933 q 511 806 511 860 q 473 719 511 756 q 382 682 435 682 q 291 719 329 682 q 253 808 253 757 q 291 897 253 860 q 382 933 329 933 m 441 864 q 429 876 441 864 q 382 888 417 888 q 323 864 347 888 q 299 808 299 840 q 323 751 299 775 q 382 728 347 728 q 441 751 417 728 q 465 807 465 775 q 441 864 465 840 m 610 0 l 610 92 q 357 -22 493 -22 q 223 28 274 -22 q 172 160 172 78 l 172 522 l 97 522 q 60 551 60 522 q 97 579 60 579 l 229 579 l 229 160 q 266 71 229 107 q 356 35 303 35 q 610 160 494 35 l 610 522 l 507 522 q 468 551 468 522 q 507 579 468 579 l 667 579 l 667 57 l 714 57 q 751 29 751 57 q 714 0 751 0 l 610 0 z "},"Ű":{"ha":833,"x_min":56,"x_max":778,"o":"m 479 983 l 344 853 q 318 840 331 840 q 299 849 307 840 q 290 869 290 857 q 307 896 290 881 l 443 1026 q 468 1039 456 1039 q 488 1031 479 1039 q 496 1010 496 1022 q 479 983 496 1000 m 676 983 l 540 853 q 514 840 525 840 q 494 849 503 840 q 486 869 486 857 q 503 896 486 882 l 639 1026 q 665 1039 653 1039 q 685 1031 676 1039 q 693 1010 693 1022 q 676 983 693 999 m 693 725 l 693 257 q 613 58 693 139 q 417 -22 533 -22 q 219 58 299 -22 q 140 257 140 138 l 140 725 l 93 725 q 56 754 56 725 q 93 782 56 782 l 300 782 q 338 754 338 782 q 300 725 338 725 l 197 725 l 197 257 q 260 99 197 163 q 417 35 324 35 q 572 99 508 35 q 636 257 636 164 l 636 725 l 533 725 q 496 754 496 725 q 533 782 496 782 l 740 782 q 778 754 778 782 q 740 725 778 725 l 693 725 z "},"ű":{"ha":833,"x_min":60,"x_max":751,"o":"m 446 825 l 311 694 q 285 682 297 682 q 265 690 274 682 q 257 711 257 699 q 274 738 257 722 l 410 868 q 435 881 422 881 q 454 872 446 881 q 463 851 463 864 q 446 825 463 842 m 643 825 l 507 694 q 481 682 492 682 q 461 690 469 682 q 453 711 453 699 q 469 738 453 724 l 606 868 q 632 881 619 881 q 651 872 643 881 q 660 851 660 864 q 643 825 660 840 m 610 0 l 610 92 q 357 -22 493 -22 q 223 28 274 -22 q 172 160 172 78 l 172 522 l 97 522 q 60 551 60 522 q 97 579 60 579 l 229 579 l 229 160 q 266 71 229 107 q 356 35 303 35 q 610 160 494 35 l 610 522 l 507 522 q 468 551 468 522 q 507 579 468 579 l 667 579 l 667 57 l 714 57 q 751 29 751 57 q 714 0 751 0 l 610 0 z "},"Ų":{"ha":833,"x_min":56,"x_max":778,"o":"m 532 -171 q 583 -158 561 -171 q 610 -144 606 -144 q 623 -151 617 -144 q 629 -165 629 -157 q 595 -199 629 -183 q 522 -215 561 -215 q 445 -192 474 -215 q 417 -131 417 -169 q 500 -11 417 -61 q 415 -22 446 -22 q 219 58 299 -22 q 140 257 140 139 l 140 725 l 93 725 q 56 754 56 725 q 93 782 56 782 l 300 782 q 338 754 338 782 q 300 725 338 725 l 197 725 l 197 257 q 260 99 197 163 q 417 35 324 35 q 572 99 508 35 q 636 257 636 164 l 636 725 l 533 725 q 496 754 496 725 q 533 782 496 782 l 740 782 q 778 754 778 782 q 740 725 778 725 l 693 725 l 693 257 q 670 143 693 194 q 615 59 647 92 q 549 -1 582 26 q 494 -60 517 -29 q 471 -124 471 -90 q 532 -171 471 -171 z "},"ų":{"ha":833,"x_min":60,"x_max":772,"o":"m 674 -171 q 726 -158 704 -171 q 753 -144 749 -144 q 766 -151 760 -144 q 772 -165 772 -157 q 738 -199 772 -183 q 665 -215 704 -215 q 588 -193 615 -215 q 560 -131 560 -171 q 584 -58 560 -87 q 667 0 608 -28 l 610 0 l 610 92 q 357 -22 493 -22 q 223 28 274 -22 q 172 160 172 78 l 172 522 l 97 522 q 60 551 60 522 q 97 579 60 579 l 229 579 l 229 160 q 266 71 229 107 q 356 35 303 35 q 610 160 494 35 l 610 522 l 507 522 q 468 551 468 522 q 507 579 468 579 l 667 579 l 667 57 l 714 57 q 751 29 751 57 q 730 1 751 17 q 683 -28 708 -14 q 635 -69 657 -43 q 614 -124 614 -94 q 674 -171 614 -171 z "},"Ŵ":{"ha":833,"x_min":28,"x_max":806,"o":"m 417 1043 l 600 893 q 618 864 618 878 q 610 844 618 853 q 590 836 601 836 q 565 847 581 836 l 417 969 l 268 847 q 243 836 253 836 q 224 844 232 836 q 215 864 215 853 q 233 892 215 875 l 417 1043 m 169 0 l 86 725 l 65 725 q 28 754 28 725 q 65 782 28 782 l 272 782 q 311 754 311 782 q 272 725 311 725 l 143 725 l 221 64 l 376 608 l 463 608 l 614 64 l 693 725 l 560 725 q 522 754 522 725 q 560 782 522 782 l 768 782 q 806 754 806 782 q 768 725 806 725 l 747 725 l 661 0 l 572 0 l 417 556 l 257 0 l 169 0 z "},"ŵ":{"ha":833,"x_min":42,"x_max":792,"o":"m 417 889 l 600 739 q 618 710 618 724 q 610 690 618 699 q 590 682 601 682 q 565 693 581 682 l 417 815 l 268 693 q 243 682 253 682 q 224 690 232 682 q 215 710 215 699 q 233 738 215 721 l 417 889 m 613 0 l 543 0 l 417 360 l 293 0 l 222 0 l 106 522 l 79 522 q 42 551 42 522 q 79 579 42 579 l 233 579 q 271 551 271 579 q 233 522 271 522 l 160 522 l 260 78 l 379 432 l 450 432 l 574 78 l 669 522 l 600 522 q 563 551 563 522 q 600 579 563 579 l 754 579 q 792 551 792 579 q 754 522 792 522 l 728 522 l 613 0 z "},"Ŷ":{"ha":833,"x_min":71,"x_max":763,"o":"m 417 1044 l 600 894 q 618 865 618 879 q 610 846 618 854 q 590 838 601 838 q 565 849 581 838 l 417 971 l 268 849 q 243 838 253 838 q 224 846 232 838 q 215 865 215 854 q 233 893 215 876 l 417 1044 m 447 353 l 447 57 l 593 57 q 631 29 631 57 q 593 0 631 0 l 244 0 q 207 29 207 0 q 244 57 207 57 l 390 57 l 390 353 l 142 725 l 108 725 q 71 754 71 725 q 108 782 71 782 l 263 782 q 300 754 300 782 q 263 725 300 725 l 210 725 l 421 410 l 628 725 l 572 725 q 533 754 533 725 q 572 782 533 782 l 725 782 q 763 754 763 782 q 725 725 763 725 l 692 725 l 447 353 z "},"ŷ":{"ha":833,"x_min":71,"x_max":763,"o":"m 417 889 l 600 739 q 618 710 618 724 q 610 690 618 699 q 590 682 601 682 q 565 693 581 682 l 417 815 l 268 693 q 243 682 253 682 q 224 690 232 682 q 215 710 215 699 q 233 738 215 721 l 417 889 m 392 0 l 131 522 l 108 522 q 71 551 71 522 q 108 579 71 579 l 268 579 q 306 551 306 579 q 268 522 306 522 l 196 522 l 424 63 l 647 522 l 572 522 q 535 551 535 522 q 572 579 535 579 l 725 579 q 763 551 763 579 q 725 522 763 522 l 706 522 l 350 -201 l 440 -201 q 478 -229 478 -201 q 440 -258 478 -258 l 117 -258 q 79 -229 79 -258 q 117 -201 79 -201 l 293 -201 l 392 0 z "},"Ÿ":{"ha":833,"x_min":71,"x_max":763,"o":"m 264 1003 q 313 982 293 1003 q 333 932 333 961 q 313 884 333 904 q 264 864 292 864 q 215 885 236 864 q 194 933 194 906 q 215 982 194 961 q 264 1003 236 1003 m 571 1003 q 620 982 600 1003 q 640 932 640 961 q 619 884 640 904 q 571 864 599 864 q 522 885 543 864 q 501 933 501 906 q 522 982 501 961 q 571 1003 543 1003 m 447 353 l 447 57 l 593 57 q 631 29 631 57 q 593 0 631 0 l 244 0 q 207 29 207 0 q 244 57 207 57 l 390 57 l 390 353 l 142 725 l 108 725 q 71 754 71 725 q 108 782 71 782 l 263 782 q 300 754 300 782 q 263 725 300 725 l 210 725 l 421 410 l 628 725 l 572 725 q 533 754 533 725 q 572 782 533 782 l 725 782 q 763 754 763 782 q 725 725 763 725 l 692 725 l 447 353 z "},"Ź":{"ha":833,"x_min":143,"x_max":690,"o":"m 690 0 l 143 0 l 143 82 l 599 721 l 599 725 l 225 725 l 225 561 q 197 522 225 522 q 168 561 168 522 l 168 782 l 653 782 l 653 701 l 197 63 l 197 57 l 633 57 l 633 253 q 661 290 633 290 q 690 253 690 290 l 690 0 z "},"ź":{"ha":833,"x_min":160,"x_max":679,"o":"m 658 579 l 658 529 l 238 57 l 622 57 l 622 135 q 651 172 622 172 q 679 135 679 172 l 679 0 l 160 0 l 160 50 l 578 522 l 229 522 l 229 446 q 201 408 229 408 q 172 446 172 408 l 172 579 l 658 579 z "},"Ż":{"ha":833,"x_min":143,"x_max":690,"o":"m 411 997 q 460 976 440 997 q 481 926 481 956 q 460 878 481 899 q 411 858 439 858 q 363 879 383 858 q 342 928 342 900 q 363 976 342 956 q 411 997 383 997 m 690 0 l 143 0 l 143 82 l 599 721 l 599 725 l 225 725 l 225 561 q 197 522 225 522 q 168 561 168 522 l 168 782 l 653 782 l 653 701 l 197 63 l 197 57 l 633 57 l 633 253 q 661 290 633 290 q 690 253 690 290 l 690 0 z "},"ż":{"ha":833,"x_min":160,"x_max":679,"o":"m 415 840 q 465 819 444 840 q 485 769 485 799 q 464 722 485 742 q 415 701 443 701 q 367 722 388 701 q 346 771 346 743 q 367 819 346 799 q 415 840 388 840 m 658 579 l 658 529 l 238 57 l 622 57 l 622 135 q 651 172 622 172 q 679 135 679 172 l 679 0 l 160 0 l 160 50 l 578 522 l 229 522 l 229 446 q 201 408 229 408 q 172 446 172 408 l 172 579 l 658 579 z "},"Ž":{"ha":833,"x_min":143,"x_max":690,"o":"m 411 840 l 228 992 q 210 1019 210 1004 q 218 1039 210 1031 q 238 1047 226 1047 q 263 1036 247 1047 l 411 914 l 560 1036 q 585 1047 575 1047 q 603 1038 594 1047 q 613 1019 613 1029 q 594 990 613 1006 l 411 840 m 690 0 l 143 0 l 143 82 l 599 721 l 599 725 l 225 725 l 225 561 q 197 522 225 522 q 168 561 168 522 l 168 782 l 653 782 l 653 701 l 197 63 l 197 57 l 633 57 l 633 253 q 661 290 633 290 q 690 253 690 290 l 690 0 z "},"ž":{"ha":833,"x_min":160,"x_max":679,"o":"m 415 682 l 232 833 q 214 861 214 846 q 222 881 214 872 q 242 889 231 889 q 267 878 251 889 l 415 756 l 564 878 q 589 889 579 889 q 608 880 599 889 q 617 861 617 871 q 599 832 617 847 l 415 682 m 658 579 l 658 529 l 238 57 l 622 57 l 622 135 q 651 172 622 172 q 679 135 679 172 l 679 0 l 160 0 l 160 50 l 578 522 l 229 522 l 229 446 q 201 408 229 408 q 172 446 172 408 l 172 579 l 658 579 z "},"ſ":{"ha":833,"x_min":146,"x_max":751,"o":"m 722 765 q 688 769 719 765 q 610 778 656 774 q 531 782 565 782 q 419 749 463 782 q 376 664 376 717 l 376 57 l 624 57 q 661 29 661 57 q 624 0 661 0 l 183 0 q 146 29 146 0 q 183 57 146 57 l 319 57 l 319 522 l 197 522 q 160 551 160 522 q 197 579 160 579 l 319 579 l 319 664 q 380 790 319 740 q 533 839 440 839 q 726 821 631 839 q 751 793 751 814 q 722 765 751 765 z "},"ƀ":{"ha":833,"x_min":31,"x_max":751,"o":"m 447 542 q 272 468 344 542 q 200 289 200 394 q 272 109 200 183 q 447 35 344 35 q 622 108 549 35 q 694 285 694 182 q 623 467 694 393 q 447 542 551 542 m 143 722 l 143 782 l 68 782 q 31 811 31 782 q 68 839 31 839 l 200 839 l 200 722 l 392 722 q 429 694 429 722 q 392 665 429 665 l 200 665 l 200 456 q 450 599 301 599 q 664 510 576 599 q 751 292 751 421 q 663 69 751 161 q 450 -22 575 -22 q 200 122 297 -22 l 200 0 l 68 0 q 31 29 31 0 q 68 57 31 57 l 143 57 l 143 665 l 68 665 q 31 694 31 665 q 68 722 31 722 l 143 722 z "},"Ɓ":{"ha":833,"x_min":-36,"x_max":751,"o":"m 229 435 l 433 435 q 579 476 522 435 q 636 582 636 518 q 585 684 636 643 q 457 725 533 725 l 229 725 l 229 435 m 694 213 q 683 268 694 242 q 644 320 671 294 q 565 362 618 346 q 436 378 511 378 l 229 378 l 229 57 l 518 57 q 643 102 592 57 q 694 213 694 147 m 97 782 l 456 782 q 625 724 557 782 q 693 581 693 667 q 575 414 693 478 q 751 213 751 351 q 684 63 751 125 q 522 0 617 0 l 97 0 q 60 29 60 0 q 97 57 60 57 l 172 57 l 172 725 l 97 725 q 47 702 72 725 q 21 653 21 679 l 21 650 q 44 598 21 619 q 94 576 67 576 q 115 568 107 576 q 124 547 124 560 q 115 528 124 536 q 94 519 107 519 q 3 558 43 519 q -36 653 -36 596 q 6 746 -36 710 q 97 782 47 782 z "},"Ƃ":{"ha":833,"x_min":61,"x_max":753,"o":"m 435 449 q 591 426 525 449 q 690 368 657 404 q 738 295 724 332 q 753 219 753 258 q 685 65 753 131 q 524 0 618 0 l 99 0 q 61 29 61 0 q 99 57 61 57 l 174 57 l 174 725 l 99 725 q 61 754 61 725 q 99 782 61 782 l 710 782 l 710 589 q 681 551 710 551 q 653 589 653 551 l 653 725 l 231 725 l 231 449 l 435 449 m 696 219 q 640 339 696 286 q 438 392 583 392 l 231 392 l 231 57 l 519 57 q 644 106 593 57 q 696 219 696 154 z "},"ƃ":{"ha":833,"x_min":31,"x_max":751,"o":"m 447 542 q 272 468 344 542 q 200 289 200 394 q 272 109 200 183 q 447 35 344 35 q 622 108 549 35 q 694 285 694 182 q 623 467 694 393 q 447 542 551 542 m 200 782 l 200 456 q 450 599 301 599 q 664 510 576 599 q 751 292 751 421 q 663 69 751 161 q 450 -22 575 -22 q 200 122 297 -22 l 200 0 l 68 0 q 31 29 31 0 q 68 57 31 57 l 143 57 l 143 782 l 68 782 q 31 811 31 782 q 68 839 31 839 l 657 839 q 694 811 694 839 q 657 782 694 782 l 200 782 z "},"Ƅ":{"ha":833,"x_min":64,"x_max":763,"o":"m 706 213 q 694 268 706 242 q 656 320 682 294 q 576 362 629 346 q 447 378 522 378 l 240 378 l 240 57 l 529 57 q 654 102 603 57 q 706 213 706 147 m 240 661 l 240 435 l 444 435 q 601 414 535 435 q 700 358 667 393 q 748 288 733 324 q 763 213 763 251 q 695 63 763 125 q 533 0 628 0 l 108 0 q 71 29 71 0 q 108 57 71 57 l 183 57 l 183 622 l 114 574 q 90 565 99 565 q 72 574 81 565 q 64 594 64 583 q 86 624 64 611 l 183 690 l 183 782 q 211 819 183 819 q 240 782 240 819 l 240 731 l 343 801 q 367 810 360 810 q 385 801 378 810 q 393 782 393 793 q 371 753 393 765 l 240 661 z "},"ƅ":{"ha":833,"x_min":31,"x_max":751,"o":"m 272 468 q 236 431 272 468 q 200 289 200 394 q 272 109 200 183 q 447 35 344 35 q 622 108 549 35 q 694 285 694 182 q 623 467 694 393 q 447 542 551 542 q 272 468 344 542 m 200 660 l 200 456 q 450 599 301 599 q 664 510 576 599 q 751 292 751 421 q 663 69 751 161 q 450 -22 575 -22 q 200 122 297 -22 l 200 0 l 68 0 q 31 29 31 0 q 68 57 31 57 l 143 57 l 143 619 l 81 576 q 57 568 65 568 q 39 577 47 568 q 31 597 31 586 q 53 626 31 614 l 143 689 l 143 782 q 171 819 143 819 q 200 782 200 819 l 200 728 l 310 804 q 333 813 326 813 q 352 804 344 813 q 360 785 360 796 q 338 756 360 768 l 200 660 z "},"Ɔ":{"ha":833,"x_min":88,"x_max":742,"o":"m 115 174 q 149 152 128 174 q 194 104 169 131 q 268 56 218 78 q 382 35 318 35 q 594 127 504 35 q 685 344 685 219 l 685 443 q 603 655 685 567 q 406 743 521 743 q 241 696 313 743 q 165 585 169 649 q 138 551 164 551 q 108 589 108 551 l 108 744 q 136 782 108 782 q 165 744 165 782 l 165 704 q 406 800 265 800 q 544 772 482 800 q 641 701 606 743 q 701 609 676 660 q 733 519 725 558 q 742 451 742 481 l 742 336 q 633 87 742 196 q 382 -22 524 -22 q 265 -1 322 -22 q 170 50 207 21 q 110 106 133 79 q 88 147 88 133 q 115 174 88 174 z "},"Ƈ":{"ha":833,"x_min":88,"x_max":926,"o":"m 88 451 q 95 516 88 478 q 126 606 103 554 q 185 699 150 657 q 282 770 219 740 q 424 800 344 800 q 664 704 564 800 l 664 744 q 700 837 664 796 q 793 878 736 878 q 888 839 850 878 q 926 747 926 800 q 918 728 926 736 q 899 719 910 719 q 878 728 886 719 q 869 747 869 736 q 847 799 869 776 q 792 822 825 822 q 743 796 765 821 q 721 744 721 771 l 721 589 q 692 551 721 551 q 664 585 667 551 q 588 696 660 649 q 424 743 517 743 q 226 655 308 743 q 144 443 144 567 l 144 344 q 235 127 144 219 q 447 35 325 35 q 576 64 519 35 q 689 160 633 93 q 714 174 701 174 q 742 147 742 174 q 719 108 742 135 q 661 52 697 82 q 567 0 625 22 q 447 -22 508 -22 q 197 87 306 -22 q 88 336 88 196 l 88 451 z "},"ƈ":{"ha":833,"x_min":117,"x_max":915,"o":"m 743 122 q 719 87 743 110 q 658 39 696 64 q 557 -4 619 14 q 429 -22 494 -22 q 205 64 293 -22 q 117 283 117 150 q 207 510 117 421 q 436 599 297 599 q 653 522 565 599 l 653 540 q 689 633 653 592 q 782 674 725 674 q 877 635 839 674 q 915 543 915 596 q 907 524 915 532 q 888 515 899 515 q 867 524 875 515 q 858 543 858 532 q 836 595 858 572 q 781 618 814 618 q 732 592 754 617 q 710 540 710 567 l 710 414 q 682 376 710 376 q 653 410 657 376 q 584 503 649 465 q 432 542 519 542 q 245 470 317 542 q 174 285 174 399 q 246 105 174 175 q 432 35 318 35 q 692 135 583 35 q 717 149 706 149 q 735 141 728 149 q 743 122 743 133 z "},"Ɖ":{"ha":833,"x_min":0,"x_max":722,"o":"m 144 378 l 38 378 q 0 407 0 378 q 38 435 0 435 l 144 435 l 144 725 l 97 725 q 60 754 60 725 q 97 782 60 782 l 403 782 q 628 678 533 782 q 722 431 722 575 l 722 353 q 628 104 722 208 q 403 0 533 0 l 97 0 q 60 29 60 0 q 97 57 60 57 l 144 57 l 144 378 m 665 443 q 658 494 665 464 q 633 567 651 525 q 585 642 614 608 q 508 701 557 676 q 400 725 460 725 l 201 725 l 201 435 l 426 435 q 464 407 464 435 q 426 378 464 378 l 201 378 l 201 57 l 410 57 q 587 144 508 57 q 665 340 665 231 l 665 443 z "},"Ɗ":{"ha":833,"x_min":-86,"x_max":722,"o":"m 665 442 q 653 511 665 469 q 613 603 640 553 q 530 690 586 654 q 400 725 474 725 l 201 725 l 201 57 l 410 57 q 588 143 510 57 q 665 340 665 229 l 665 442 m 47 782 l 403 782 q 630 680 538 782 q 722 431 722 578 l 722 353 q 630 102 722 204 q 403 0 538 0 l 97 0 q 60 29 60 0 q 97 57 60 57 l 144 57 l 144 725 l 47 725 q -4 703 21 725 q -31 654 -29 681 q -8 599 -31 621 q 44 576 15 576 q 64 568 56 576 q 72 547 72 560 q 64 528 72 536 q 44 519 56 519 q -47 558 -8 519 q -86 653 -86 596 q -44 746 -86 710 q 47 782 -3 782 z "},"Ƌ":{"ha":833,"x_min":81,"x_max":772,"o":"m 399 449 l 603 449 l 603 725 l 181 725 l 181 589 q 153 551 181 551 q 124 589 124 551 l 124 782 l 735 782 q 772 754 772 782 q 735 725 772 725 l 660 725 l 660 57 l 735 57 q 772 29 772 57 q 735 0 772 0 l 310 0 q 148 65 215 0 q 81 219 81 131 q 95 295 81 258 q 143 368 110 332 q 242 426 176 404 q 399 449 308 449 m 138 219 q 189 106 138 154 q 314 57 240 57 l 603 57 l 603 392 l 396 392 q 194 339 250 392 q 138 219 138 286 z "},"ƌ":{"ha":833,"x_min":31,"x_max":751,"o":"m 335 542 q 159 467 231 542 q 88 285 88 393 q 160 108 88 182 q 335 35 233 35 q 510 109 438 35 q 582 289 582 183 q 510 468 582 394 q 335 542 438 542 m 582 782 l 125 782 q 88 811 88 782 q 125 839 88 839 l 714 839 q 751 811 751 839 q 714 782 751 782 l 639 782 l 639 57 l 714 57 q 751 29 751 57 q 714 0 751 0 l 582 0 l 582 122 q 332 -22 485 -22 q 119 69 207 -22 q 31 292 31 161 q 118 510 31 421 q 332 599 206 599 q 582 456 481 599 l 582 782 z "},"ƍ":{"ha":833,"x_min":94,"x_max":719,"o":"m 601 -101 q 546 -28 601 -57 q 404 1 490 1 q 163 121 267 1 q 94 322 94 197 q 183 544 94 450 q 407 639 271 639 q 628 544 536 639 q 719 322 719 450 q 654 124 719 192 q 531 31 575 43 q 621 -13 583 22 q 658 -99 658 -49 q 609 -218 658 -176 q 478 -260 560 -260 q 181 -206 403 -260 l 181 -239 q 151 -276 181 -276 q 124 -239 124 -276 l 124 -131 q 151 -90 124 -90 q 181 -131 181 -90 l 181 -150 q 474 -204 394 -204 q 567 -178 532 -204 q 601 -101 601 -151 m 407 582 q 222 505 293 582 q 151 322 151 428 q 172 216 151 264 q 224 140 193 168 q 291 94 254 113 q 357 68 328 75 q 407 61 386 61 q 589 137 515 61 q 663 322 663 213 q 586 506 663 428 q 407 582 510 582 z "},"Ǝ":{"ha":833,"x_min":60,"x_max":722,"o":"m 553 378 l 351 378 l 351 315 q 322 278 351 278 q 294 315 294 278 l 294 497 q 322 535 294 535 q 351 497 351 535 l 351 435 l 553 435 l 553 725 l 146 725 l 146 589 q 118 551 146 551 q 89 589 89 551 l 89 782 l 685 782 q 722 754 722 782 q 685 725 722 725 l 610 725 l 610 57 l 685 57 q 722 29 722 57 q 685 0 722 0 l 60 0 l 60 222 q 88 260 60 260 q 117 222 117 260 l 117 57 l 553 57 l 553 378 z "},"Ə":{"ha":833,"x_min":69,"x_max":742,"o":"m 685 351 l 126 350 l 126 335 q 208 123 126 211 q 406 35 290 35 q 603 123 521 35 q 685 335 685 211 l 685 351 m 406 -22 q 267 6 329 -22 q 170 76 206 35 q 110 169 135 118 q 78 258 86 219 q 69 326 69 297 l 69 407 l 685 407 l 685 433 q 594 651 685 558 q 382 743 504 743 q 253 714 310 743 q 140 618 196 685 q 115 604 128 604 q 88 631 88 604 q 110 669 88 643 q 168 726 132 696 q 263 778 204 756 q 382 800 321 800 q 633 691 524 800 q 742 442 742 582 l 742 326 q 734 262 742 300 q 703 172 726 224 q 644 79 679 121 q 547 8 610 38 q 406 -22 485 -22 z "},"Ɛ":{"ha":833,"x_min":128,"x_max":706,"o":"m 413 375 q 250 331 311 375 q 189 213 189 286 q 253 85 189 136 q 415 35 318 35 q 578 82 510 35 q 649 197 646 129 q 676 231 650 231 q 706 193 706 231 l 706 38 q 678 0 706 0 q 649 38 649 0 l 649 78 q 414 -22 561 -22 q 208 43 289 -22 q 128 210 128 108 q 169 333 128 283 q 281 404 211 383 l 281 414 q 192 478 226 433 q 158 585 158 524 q 231 738 158 676 q 414 800 304 800 q 617 718 533 800 l 617 744 q 646 782 617 782 q 674 744 674 782 l 674 601 q 646 564 674 564 q 617 597 619 564 q 556 701 613 660 q 418 743 499 743 q 276 697 332 743 q 219 583 219 651 q 280 474 219 515 q 431 432 340 432 l 497 432 q 535 404 535 432 q 497 375 535 375 l 413 375 z "},"Ƒ":{"ha":833,"x_min":11,"x_max":785,"o":"m 36 -54 q 72 -63 42 -54 q 133 -72 103 -72 q 207 -27 179 -72 q 235 89 235 18 l 235 725 l 160 725 q 122 754 122 725 q 160 782 122 782 l 785 782 l 785 589 q 756 551 785 551 q 728 589 728 551 l 728 725 l 292 725 l 292 435 l 493 435 l 493 497 q 521 535 493 535 q 550 497 550 535 l 550 315 q 521 278 550 278 q 493 315 493 278 l 493 378 l 292 378 l 292 57 q 242 -76 283 -25 q 132 -129 200 -128 q 54 -118 97 -129 q 11 -82 11 -107 q 19 -62 11 -71 q 36 -54 26 -54 z "},"ƒ":{"ha":833,"x_min":121,"x_max":719,"o":"m 693 786 q 662 794 690 786 q 604 801 633 801 q 490 757 533 801 q 446 642 446 713 l 446 521 l 579 521 q 617 493 617 521 q 579 464 617 464 l 446 464 l 446 81 q 386 -68 446 -7 q 242 -129 326 -129 q 164 -118 207 -129 q 121 -82 121 -107 q 128 -62 121 -71 q 146 -54 136 -54 q 182 -63 150 -54 q 243 -72 214 -72 q 348 -27 307 -72 q 389 89 389 18 l 389 464 l 256 464 q 218 493 218 464 q 256 521 218 521 l 389 521 l 389 642 q 449 795 389 732 q 599 858 510 858 q 676 848 633 858 q 719 814 719 838 q 712 794 719 803 q 693 786 704 786 z "},"Ɠ":{"ha":833,"x_min":88,"x_max":928,"o":"m 88 442 q 185 694 88 588 q 435 800 283 800 q 665 725 572 800 l 665 744 q 701 837 665 796 q 794 878 738 878 q 890 839 851 878 q 928 747 928 800 q 919 728 928 736 q 900 719 911 719 q 879 728 888 719 q 871 747 871 736 q 849 799 871 776 q 793 822 826 822 q 744 796 767 821 q 722 744 722 771 l 722 618 q 694 581 722 581 q 667 615 668 581 q 596 706 663 668 q 438 743 529 743 q 289 706 351 743 q 198 614 226 668 q 157 515 169 560 q 144 440 144 471 l 144 339 q 231 116 144 197 q 467 35 317 35 q 665 82 564 35 l 665 290 l 472 290 q 435 319 435 290 q 472 347 435 347 l 742 347 q 781 319 781 347 q 742 290 781 290 l 722 290 l 722 50 q 463 -22 597 -22 q 190 76 292 -22 q 88 339 88 175 l 88 442 z "},"Ɣ":{"ha":833,"x_min":67,"x_max":758,"o":"m 417 315 q 388 274 407 300 q 359 233 368 247 q 342 196 350 219 q 333 147 333 172 l 333 144 q 352 56 333 93 q 417 19 371 19 q 500 144 500 19 q 496 174 500 158 q 488 199 492 189 q 474 228 485 210 q 458 253 464 246 q 438 284 453 261 q 417 315 422 307 m 385 363 l 138 725 l 104 725 q 67 754 67 725 q 104 782 67 782 l 258 782 q 296 754 296 782 q 258 725 296 725 l 206 725 l 417 410 l 624 725 l 568 725 q 529 754 529 725 q 568 782 529 782 l 721 782 q 758 754 758 782 q 721 725 758 725 l 688 725 l 449 364 q 466 341 450 361 q 490 310 482 321 q 513 275 499 299 q 536 233 528 251 q 551 191 544 215 q 557 144 557 167 q 520 13 557 64 q 417 -37 483 -37 q 314 17 351 -37 q 276 144 276 71 q 291 221 276 183 q 318 278 306 258 q 357 328 331 297 q 385 363 383 360 z "},"ƕ":{"ha":833,"x_min":10,"x_max":807,"o":"m 807 161 q 756 31 806 83 q 625 -22 707 -22 q 472 57 536 -22 q 454 98 461 72 q 447 142 447 124 l 446 160 l 446 413 q 351 542 446 542 l 319 542 q 234 505 269 542 q 189 439 199 468 l 179 411 l 179 57 l 242 57 q 281 29 281 57 q 242 0 281 0 l 58 0 q 21 29 21 0 q 58 57 21 57 l 122 57 l 122 782 l 47 782 q 10 811 10 782 q 47 839 10 839 l 179 839 l 178 500 q 234 575 203 551 q 322 599 265 599 q 503 404 503 599 l 503 160 q 540 71 503 107 q 629 35 576 35 q 720 76 692 35 q 749 164 749 118 l 749 522 l 646 522 q 607 551 607 522 q 646 579 607 579 l 806 579 l 807 161 z "},"Ɩ":{"ha":833,"x_min":240,"x_max":697,"o":"m 697 94 q 676 58 697 82 q 610 12 656 35 q 514 -11 565 -11 q 403 38 444 -11 q 363 167 363 88 l 363 726 l 278 726 q 240 754 240 726 q 278 782 240 782 l 419 782 l 419 167 q 514 46 419 46 q 578 58 550 46 q 621 84 607 69 q 648 110 635 99 q 669 122 661 122 q 680 120 674 122 q 692 111 686 118 q 697 94 697 104 z "},"Ɨ":{"ha":833,"x_min":157,"x_max":676,"o":"m 388 446 l 388 725 l 194 725 q 157 754 157 725 q 194 782 157 782 l 638 782 q 676 754 676 782 q 638 725 676 725 l 444 725 l 444 446 l 583 446 q 621 418 621 446 q 583 390 621 390 l 444 390 l 444 57 l 638 57 q 676 29 676 57 q 638 0 676 0 l 194 0 q 157 29 157 0 q 194 57 157 57 l 388 57 l 388 390 l 256 390 q 218 418 218 390 q 256 446 218 446 l 388 446 z "},"Ƙ":{"ha":833,"x_min":60,"x_max":853,"o":"m 697 725 l 389 450 q 546 333 490 408 q 679 57 601 257 l 757 57 q 794 29 794 57 q 757 0 794 0 l 636 0 q 500 294 560 211 q 342 408 440 376 l 229 307 l 229 57 l 333 57 q 371 29 371 57 q 333 0 371 0 l 97 0 q 60 29 60 0 q 97 57 60 57 l 172 57 l 172 725 l 97 725 q 60 754 60 725 q 97 782 60 782 l 333 782 q 371 754 371 782 q 333 725 371 725 l 229 725 l 229 379 l 618 725 l 556 725 q 517 754 517 725 q 556 782 517 782 l 719 782 q 811 746 769 782 q 853 653 853 710 q 814 558 853 596 q 722 519 775 519 q 703 528 711 519 q 694 547 694 536 q 703 568 694 560 q 722 576 711 576 q 774 599 751 576 q 797 654 797 621 q 771 703 796 681 q 719 725 746 725 l 697 725 z "},"ƙ":{"ha":833,"x_min":88,"x_max":751,"o":"m 504 786 q 473 794 501 786 q 415 801 444 801 q 301 757 344 801 q 257 642 257 713 l 257 318 l 497 522 l 467 522 q 429 551 429 522 q 467 579 429 579 l 647 579 q 685 551 685 579 q 647 522 685 522 l 582 522 l 364 340 l 651 57 l 714 57 q 751 29 751 57 q 714 0 751 0 l 532 0 q 494 29 494 0 q 532 57 494 57 l 571 57 l 321 304 l 257 250 l 257 0 l 125 0 q 88 29 88 0 q 125 57 88 57 l 200 57 l 200 642 q 260 795 200 732 q 410 858 321 858 q 488 848 444 858 q 531 814 531 838 q 523 794 531 803 q 504 786 515 786 z "},"ƚ":{"ha":833,"x_min":128,"x_max":706,"o":"m 618 413 q 615 401 618 407 q 603 388 613 394 q 581 381 594 381 l 444 381 l 444 57 l 667 57 q 706 29 706 57 q 667 0 706 0 l 165 0 q 128 29 128 0 q 165 57 128 57 l 388 57 l 388 381 l 253 381 q 215 408 215 381 q 253 436 215 436 l 388 436 l 388 782 l 225 782 q 188 811 188 782 q 225 839 188 839 l 444 839 l 444 436 l 581 436 q 618 413 618 436 z "},"ƛ":{"ha":833,"x_min":81,"x_max":764,"o":"m 282 853 q 326 840 308 853 q 350 815 344 826 q 356 796 356 803 l 376 751 l 476 819 q 500 828 493 828 q 519 819 511 828 q 526 800 526 811 q 504 771 526 783 l 401 699 l 708 54 l 732 54 q 758 43 756 54 l 764 25 q 725 -3 764 -3 l 572 -3 q 538 25 538 -3 q 572 54 538 54 l 650 54 l 424 526 l 197 54 l 271 54 q 308 25 308 54 q 271 -3 308 -3 l 118 -3 q 97 0 106 -3 q 86 10 92 0 q 81 25 81 19 q 118 54 81 54 l 135 54 l 393 589 l 356 667 l 247 592 q 224 583 232 583 q 206 592 214 583 q 197 613 197 601 q 219 642 197 629 l 331 719 l 294 796 l 164 796 q 126 825 126 796 q 164 853 126 853 l 282 853 z "},"Ɯ":{"ha":833,"x_min":15,"x_max":824,"o":"m 683 0 l 683 72 q 615 1 649 22 q 538 -19 582 -19 q 403 79 449 -19 q 246 -19 326 -19 q 143 25 186 -19 q 100 131 100 69 l 100 725 l 53 725 q 15 753 15 725 q 53 782 15 782 l 156 782 l 156 136 q 183 67 156 97 q 247 38 211 38 q 392 151 317 38 l 392 725 l 344 725 q 307 753 307 725 q 344 782 307 782 l 447 782 l 447 140 q 474 69 447 100 q 538 38 501 38 q 683 151 607 38 l 683 725 l 636 725 q 599 753 599 725 q 636 782 599 782 l 788 782 q 824 753 824 782 q 786 725 824 725 l 739 725 l 739 57 l 786 57 q 824 28 824 57 q 786 0 824 0 l 683 0 z "},"Ɲ":{"ha":833,"x_min":11,"x_max":828,"o":"m 292 81 q 248 -68 292 -8 q 132 -129 204 -128 q 54 -118 97 -129 q 11 -82 11 -107 q 19 -62 11 -71 q 36 -54 26 -54 q 72 -63 42 -54 q 133 -72 103 -72 q 207 -27 179 -72 q 235 89 235 18 l 235 725 l 160 725 q 122 754 122 725 q 160 782 122 782 l 307 782 l 686 82 l 686 725 l 583 725 q 544 754 544 725 q 583 782 544 782 l 790 782 q 828 754 828 782 q 790 725 828 725 l 743 725 l 743 0 l 671 0 l 292 700 l 292 81 z "},"ƞ":{"ha":833,"x_min":74,"x_max":751,"o":"m 443 542 q 395 537 418 542 q 352 522 372 532 q 318 502 332 511 q 288 476 304 493 q 266 452 272 460 q 247 427 260 444 q 232 408 233 410 l 232 57 l 294 57 q 332 29 332 57 q 294 0 332 0 l 113 0 q 74 29 74 0 q 113 57 74 57 l 175 57 l 175 522 l 128 522 q 90 551 90 522 q 128 579 90 579 l 232 579 l 232 483 q 338 574 292 550 q 449 599 383 599 q 604 544 542 599 q 667 410 667 490 l 667 -199 l 714 -199 q 751 -226 751 -199 q 714 -256 751 -256 l 563 -256 q 525 -226 525 -256 q 563 -199 525 -199 l 610 -199 l 610 400 q 565 501 610 460 q 443 542 519 542 z "},"Ɵ":{"ha":833,"x_min":71,"x_max":763,"o":"m 417 800 q 663 680 564 800 q 763 383 763 560 q 661 97 763 215 q 417 -22 560 -22 q 172 97 272 -22 q 71 389 71 217 q 172 681 71 561 q 417 800 272 800 m 704 417 q 613 649 694 556 q 417 743 531 743 q 221 649 304 743 q 129 417 138 554 l 704 417 m 706 361 l 129 361 q 221 129 138 224 q 417 35 304 35 q 613 131 529 35 q 706 361 697 226 z "},"Ơ":{"ha":833,"x_min":71,"x_max":829,"o":"m 417 743 q 213 639 297 743 q 128 389 128 535 q 213 139 128 243 q 417 35 297 35 q 620 138 535 35 q 706 385 706 242 q 622 639 706 535 q 417 743 538 743 m 615 728 l 696 728 q 747 750 722 728 q 774 799 772 772 q 751 854 774 832 q 699 876 728 876 q 679 885 688 876 q 671 906 671 893 q 679 925 671 917 q 699 933 688 933 q 790 895 751 933 q 829 800 829 857 q 788 707 829 743 q 696 671 747 671 l 671 671 q 763 383 763 553 q 661 97 763 215 q 417 -22 560 -22 q 172 97 272 -22 q 71 389 71 217 q 172 681 71 561 q 417 800 272 800 q 615 728 528 800 z "},"ơ":{"ha":833,"x_min":100,"x_max":819,"o":"m 417 542 q 233 468 308 542 q 157 289 157 394 q 233 109 157 183 q 417 35 308 35 q 600 108 524 35 q 676 285 676 182 q 601 468 676 394 q 417 542 526 542 m 599 543 l 686 543 q 738 565 713 543 q 764 614 763 588 q 741 669 764 647 q 689 692 718 692 q 669 700 678 692 q 661 721 661 708 q 669 740 661 732 q 689 749 678 749 q 781 710 742 749 q 819 615 819 672 q 778 522 819 558 q 686 486 738 486 l 661 486 q 733 285 733 401 q 640 67 733 157 q 417 -22 547 -22 q 192 68 285 -22 q 100 289 100 158 q 192 508 100 417 q 417 599 285 599 q 599 543 517 599 z "},"Ƣ":{"ha":833,"x_min":4,"x_max":825,"o":"m 301 743 q 123 642 185 743 q 61 385 61 542 q 125 135 61 235 q 301 35 189 35 q 478 135 415 35 q 542 389 542 236 q 479 643 542 543 q 301 743 417 743 m 390 785 q 589 886 447 886 q 717 835 676 886 q 757 725 757 783 l 757 57 l 786 57 q 825 29 825 57 q 786 0 825 0 l 665 0 q 628 29 628 0 q 665 57 628 57 l 700 57 l 700 725 q 696 755 700 740 q 679 787 692 769 q 639 815 667 804 q 569 825 611 825 q 496 811 524 825 q 440 758 468 797 q 553 622 511 711 q 596 435 594 533 l 597 378 q 517 90 594 203 q 301 -22 439 -22 q 84 93 164 -22 q 4 383 4 208 q 82 684 4 568 q 301 800 160 800 q 390 785 347 800 z "},"ƣ":{"ha":833,"x_min":40,"x_max":828,"o":"m 411 469 q 385 505 411 469 q 278 542 358 542 q 146 467 197 542 q 94 281 94 392 q 147 106 94 176 q 278 35 199 35 q 411 108 358 35 q 464 289 464 182 q 411 469 464 396 m 389 567 q 589 650 458 650 q 685 609 646 650 q 725 500 725 568 l 725 57 l 789 57 q 828 29 828 57 q 789 0 828 0 l 606 0 q 569 29 569 0 q 606 57 569 57 l 669 57 l 669 500 q 645 573 669 546 q 575 600 621 600 q 428 536 490 600 q 515 313 515 453 l 514 256 l 514 253 q 442 59 514 140 q 278 -22 371 -22 q 110 68 179 -22 q 40 285 40 158 q 109 508 40 417 q 278 599 178 599 q 389 567 338 599 z "},"Ƥ":{"ha":833,"x_min":-36,"x_max":693,"o":"m 229 725 l 229 378 l 415 378 q 571 429 506 378 q 636 553 636 481 q 577 674 636 624 q 436 725 518 725 l 229 725 m 172 725 l 97 725 q 46 703 71 725 q 19 654 21 681 q 42 599 19 621 q 94 576 65 576 q 114 568 106 576 q 122 547 122 560 q 114 528 122 536 q 94 519 106 519 q 3 558 42 519 q -36 653 -36 596 q 6 746 -36 710 q 97 782 47 782 l 431 782 q 617 716 542 782 q 693 553 693 650 q 611 388 693 456 q 411 321 529 321 l 229 321 l 229 57 l 421 57 q 460 29 460 57 q 421 0 460 0 l 97 0 q 60 29 60 0 q 97 57 60 57 l 172 57 l 172 725 z "},"ƥ":{"ha":833,"x_min":31,"x_max":751,"o":"m 200 307 q 272 140 200 208 q 447 71 344 71 q 622 139 550 71 q 694 304 694 207 q 624 474 694 406 q 447 542 553 542 q 272 473 344 542 q 200 307 200 404 m 447 786 q 416 794 444 786 q 358 801 388 801 q 244 757 288 801 q 200 642 200 713 l 200 465 q 313 568 256 538 q 449 599 369 599 q 665 515 578 599 q 751 307 751 431 q 664 99 751 183 q 449 14 576 14 q 200 147 293 14 l 200 -201 l 336 -201 q 374 -229 374 -201 q 336 -258 374 -258 l 68 -258 q 31 -229 31 -258 q 68 -201 31 -201 l 143 -201 l 143 642 q 203 795 143 732 q 353 858 264 858 q 431 848 388 858 q 474 814 474 838 q 466 794 474 803 q 447 786 458 786 z "},"Ʀ":{"ha":833,"x_min":83,"x_max":750,"o":"m 236 307 l 371 307 q 519 339 457 307 q 582 419 582 371 q 531 490 582 461 q 419 519 481 519 l 236 519 l 236 307 m 236 579 l 418 579 q 575 533 511 579 q 639 418 639 488 q 599 324 639 360 q 469 269 558 288 q 562 150 529 236 q 621 -44 594 64 q 679 -201 647 -151 l 717 -201 q 741 -210 732 -201 q 750 -229 750 -218 q 717 -258 750 -258 l 647 -258 q 585 -130 614 -215 q 540 29 557 -44 q 485 169 524 103 q 393 251 447 235 l 236 251 l 236 57 l 324 57 q 348 49 339 57 q 357 29 357 40 q 324 0 357 0 l 117 0 q 83 29 83 0 q 92 49 83 40 q 117 57 101 57 l 179 57 l 179 725 l 117 725 q 92 733 101 725 q 83 753 83 742 q 117 782 83 782 l 324 782 q 357 753 357 782 q 348 733 357 742 q 324 725 339 725 l 236 725 l 236 579 z "},"Ƨ":{"ha":833,"x_min":128,"x_max":706,"o":"m 128 210 q 164 327 128 281 q 253 390 200 374 q 370 423 307 407 q 487 451 433 439 q 576 496 540 463 q 613 583 613 529 q 556 697 613 651 q 414 743 500 743 q 276 701 333 743 q 215 597 219 660 q 186 564 214 564 q 158 601 158 564 l 158 744 q 186 782 158 782 q 215 744 215 782 l 215 718 q 418 800 299 800 q 601 738 528 800 q 674 585 674 676 q 638 472 674 515 q 548 412 601 428 q 431 381 494 396 q 315 355 368 367 q 225 307 261 343 q 189 213 189 271 q 253 85 189 136 q 415 35 318 35 q 578 82 510 35 q 649 197 646 129 q 676 231 650 231 q 706 193 706 231 l 706 38 q 678 0 706 0 q 649 38 649 0 l 649 78 q 414 -22 561 -22 q 208 43 289 -22 q 128 210 128 108 z "},"ƨ":{"ha":833,"x_min":143,"x_max":690,"o":"m 661 442 q 614 345 661 379 q 500 300 567 311 q 367 279 433 289 q 253 242 300 269 q 206 163 206 215 q 267 71 206 107 q 419 35 328 35 q 571 69 508 35 q 633 150 633 103 l 633 160 q 661 190 633 190 q 690 153 690 190 l 690 38 q 661 0 690 0 q 633 38 633 0 l 633 53 q 415 -22 549 -22 q 220 30 297 -22 q 143 161 143 82 q 177 257 143 219 q 265 311 211 294 q 373 336 318 328 q 481 353 428 344 q 554 375 533 361 q 599 438 599 400 q 547 512 599 482 q 418 542 496 542 q 289 514 339 542 q 233 439 239 486 q 204 407 229 407 q 176 444 176 407 l 176 540 q 204 579 176 579 q 233 540 233 579 l 233 535 q 424 599 306 599 q 594 554 526 599 q 661 442 661 510 z "},"Ʃ":{"ha":833,"x_min":142,"x_max":681,"o":"m 681 0 l 142 0 l 142 83 l 360 426 l 142 721 l 142 801 l 681 801 l 681 575 q 651 536 681 536 q 624 575 624 536 l 624 743 l 193 743 l 193 738 l 426 424 l 196 65 l 196 60 l 624 60 l 624 258 q 651 297 624 297 q 681 258 681 297 l 681 0 z "},"ƪ":{"ha":833,"x_min":113,"x_max":719,"o":"m 301 789 q 289 801 301 789 q 242 813 276 813 q 183 789 207 813 q 158 733 158 765 q 183 676 158 700 q 242 653 207 653 q 301 676 276 653 q 325 732 325 700 q 301 789 325 765 m 719 -82 q 676 -118 719 -107 q 599 -129 633 -129 q 454 -68 514 -129 q 394 81 394 -7 l 394 642 q 371 739 394 694 l 371 731 q 333 644 371 681 q 242 607 294 607 q 151 644 189 607 q 113 733 113 682 q 151 822 113 785 q 242 858 189 858 q 391 795 331 858 q 451 642 451 732 l 451 89 q 492 -27 451 18 q 597 -72 533 -72 q 658 -63 628 -72 q 694 -54 689 -54 q 712 -62 704 -54 q 719 -82 719 -71 z "},"ƫ":{"ha":833,"x_min":60,"x_max":693,"o":"m 393 -201 q 429 -210 397 -201 q 490 -219 461 -219 q 595 -174 554 -219 q 636 -58 636 -129 l 636 24 q 417 -22 532 -22 q 260 24 318 -22 q 201 149 201 71 l 201 522 l 99 522 q 60 551 60 522 q 99 579 60 579 l 201 579 l 201 744 q 231 782 201 782 q 258 744 258 782 l 258 579 l 564 579 q 601 551 601 579 q 564 522 601 522 l 258 522 l 258 151 q 300 67 258 99 q 414 35 342 35 q 538 51 472 35 q 644 90 604 67 q 667 99 658 99 q 685 90 676 99 q 693 71 693 82 l 693 -67 q 633 -215 693 -154 q 489 -276 574 -276 q 411 -265 454 -276 q 368 -229 368 -254 q 376 -210 368 -218 q 393 -201 383 -201 z "},"Ƭ":{"ha":833,"x_min":24,"x_max":733,"o":"m 157 725 q 106 703 131 725 q 79 654 81 681 q 102 599 79 621 q 154 576 125 576 q 174 568 165 576 q 182 547 182 560 q 174 528 182 536 q 154 519 165 519 q 63 558 101 519 q 24 653 24 596 q 65 746 24 710 q 157 782 107 782 l 733 782 l 733 624 q 706 586 733 586 q 685 597 693 586 q 676 624 676 607 l 676 725 l 446 725 l 446 57 l 592 57 q 629 29 629 57 q 592 0 629 0 l 243 0 q 206 29 206 0 q 243 57 206 57 l 389 57 l 389 725 l 157 725 z "},"ƭ":{"ha":833,"x_min":60,"x_max":693,"o":"m 506 786 q 474 794 503 786 q 417 801 446 801 q 302 757 346 801 q 258 642 258 713 l 258 579 l 564 579 q 601 551 601 579 q 564 522 601 522 l 258 522 l 258 151 q 300 67 258 99 q 414 35 342 35 q 538 51 472 35 q 644 90 604 67 q 667 99 658 99 q 685 90 676 99 q 693 71 693 82 q 599 9 693 40 q 417 -22 506 -22 q 260 24 318 -22 q 201 149 201 71 l 201 522 l 99 522 q 60 551 60 522 q 99 579 60 579 l 201 579 l 201 642 q 262 795 201 732 q 411 858 322 858 q 489 848 446 858 q 532 814 532 838 q 524 794 532 803 q 506 786 517 786 z "},"Ʈ":{"ha":833,"x_min":100,"x_max":733,"o":"m 714 -229 q 671 -265 714 -254 q 593 -276 628 -276 q 449 -215 508 -276 q 389 -67 389 -154 l 389 725 l 157 725 l 157 624 q 128 586 157 586 q 100 624 100 586 l 100 782 l 733 782 l 733 624 q 706 586 733 586 q 685 597 693 586 q 676 624 676 607 l 676 725 l 446 725 l 446 -58 q 487 -174 446 -129 q 592 -219 528 -219 q 653 -210 622 -219 q 689 -201 683 -201 q 706 -210 699 -201 q 714 -229 714 -218 z "},"Ư":{"ha":833,"x_min":56,"x_max":874,"o":"m 693 725 l 693 257 q 613 58 693 139 q 417 -22 533 -22 q 219 58 299 -22 q 140 257 140 138 l 140 725 l 93 725 q 56 754 56 725 q 93 782 56 782 l 300 782 q 338 754 338 782 q 300 725 338 725 l 197 725 l 197 257 q 260 99 197 163 q 417 35 324 35 q 572 99 508 35 q 636 257 636 164 l 636 725 l 533 725 q 496 754 496 725 q 533 782 496 782 l 740 782 q 792 804 767 782 q 818 853 817 826 q 795 908 818 886 q 743 931 772 931 q 724 939 732 931 q 715 960 715 947 q 724 979 715 971 q 743 988 732 988 q 835 949 796 988 q 874 854 874 911 q 833 761 874 797 q 740 725 792 725 l 693 725 z "},"ư":{"ha":833,"x_min":60,"x_max":797,"o":"m 667 522 l 667 57 l 714 57 q 751 29 751 57 q 714 0 751 0 l 610 0 l 610 92 q 357 -22 493 -22 q 223 28 274 -22 q 172 160 172 78 l 172 522 l 97 522 q 60 551 60 522 q 97 579 60 579 l 229 579 l 229 160 q 266 71 229 107 q 356 35 303 35 q 610 160 494 35 l 610 522 l 507 522 q 468 551 468 522 q 507 579 468 579 l 667 579 q 716 601 692 579 q 742 650 740 624 q 719 706 742 683 q 667 728 696 728 q 647 736 656 728 q 639 757 639 744 q 647 776 639 768 q 667 785 656 785 q 758 747 719 785 q 797 651 797 708 q 757 560 797 596 q 667 522 717 524 z "},"Ʊ":{"ha":833,"x_min":108,"x_max":750,"o":"m 121 297 q 147 442 121 379 q 213 536 174 506 q 283 582 251 567 q 338 599 314 597 l 338 733 l 164 733 l 164 593 q 138 556 164 556 q 108 593 108 556 l 108 793 l 396 793 l 396 550 q 232 474 289 540 q 175 300 175 407 q 233 126 175 193 q 358 53 290 60 l 486 53 q 588 92 546 60 q 648 167 631 124 q 672 243 665 211 q 679 300 679 275 q 634 453 679 383 q 494 544 589 524 l 456 550 l 456 793 l 750 793 l 750 593 q 742 567 750 578 q 719 556 733 556 q 693 593 693 556 l 693 733 l 514 733 l 514 599 q 670 500 604 579 q 736 307 736 421 q 715 176 736 233 q 663 85 693 118 q 596 32 633 53 q 532 4 558 11 q 486 -3 506 -3 l 361 -3 q 312 8 338 0 q 250 38 286 17 q 187 90 214 60 q 140 175 160 121 q 121 297 121 229 z "},"Ʋ":{"ha":833,"x_min":60,"x_max":768,"o":"m 417 40 q 476 47 449 40 q 534 69 504 53 q 581 118 564 85 q 599 200 599 151 l 599 782 l 729 782 q 768 751 768 782 q 760 730 768 735 q 729 725 751 725 l 657 725 l 657 200 q 419 -17 657 -17 q 237 38 301 -17 q 172 203 172 92 l 172 725 l 99 725 q 60 754 60 725 q 99 782 60 782 l 294 782 q 338 754 338 782 q 297 725 338 725 l 229 725 l 229 206 q 283 83 229 125 q 417 40 336 40 z "},"Ƴ":{"ha":833,"x_min":-25,"x_max":763,"o":"m 210 725 l 421 410 l 628 725 l 572 725 q 533 754 533 725 q 572 782 533 782 l 725 782 q 763 754 763 782 q 725 725 763 725 l 692 725 l 447 353 l 447 57 l 593 57 q 631 29 631 57 q 593 0 631 0 l 244 0 q 207 29 207 0 q 244 57 207 57 l 390 57 l 390 353 l 142 725 l 108 725 q 57 703 82 725 q 31 654 32 681 q 53 599 31 621 q 106 576 76 576 q 125 568 117 576 q 133 547 133 560 q 125 528 133 536 q 106 519 117 519 q 14 558 53 519 q -25 653 -25 596 q 17 746 -25 710 q 108 782 58 782 l 263 782 q 300 754 300 782 q 263 725 300 725 l 210 725 z "},"ƴ":{"ha":833,"x_min":71,"x_max":858,"o":"m 706 522 l 350 -201 l 440 -201 q 478 -229 478 -201 q 440 -258 478 -258 l 117 -258 q 79 -229 79 -258 q 117 -201 79 -201 l 293 -201 l 392 0 l 131 522 l 108 522 q 71 551 71 522 q 108 579 71 579 l 268 579 q 306 551 306 579 q 268 522 306 522 l 196 522 l 424 63 l 647 522 l 572 522 q 535 551 535 522 q 572 579 535 579 l 725 579 q 776 601 751 579 q 803 650 801 624 q 780 706 803 683 q 728 728 757 728 q 708 736 717 728 q 700 757 700 744 q 708 776 700 768 q 728 785 717 785 q 819 747 781 785 q 858 651 858 708 q 817 558 858 594 q 725 522 776 522 l 706 522 z "},"Ƶ":{"ha":833,"x_min":143,"x_max":690,"o":"m 431 390 l 197 63 l 197 57 l 633 57 l 633 253 q 661 290 633 290 q 690 253 690 290 l 690 0 l 143 0 l 143 82 l 363 390 l 256 390 q 218 418 218 390 q 256 446 218 446 l 403 446 l 599 721 l 599 725 l 225 725 l 225 561 q 197 522 225 522 q 168 561 168 522 l 168 782 l 653 782 l 653 701 l 471 446 l 583 446 q 621 418 621 446 q 583 390 621 390 l 431 390 z "},"ƶ":{"ha":833,"x_min":160,"x_max":679,"o":"m 411 335 l 578 522 l 229 522 l 229 446 q 201 408 229 408 q 172 446 172 408 l 172 579 l 658 579 l 658 529 l 485 335 l 583 335 q 621 307 621 335 q 583 279 621 279 l 436 279 l 238 57 l 622 57 l 622 135 q 651 172 622 172 q 679 135 679 172 l 679 0 l 160 0 l 160 50 l 363 279 l 256 279 q 218 307 218 279 q 256 335 218 335 l 411 335 z "},"Ʒ":{"ha":833,"x_min":133,"x_max":693,"o":"m 233 436 q 213 446 219 436 q 207 464 207 456 q 217 485 207 475 l 467 725 l 213 725 l 213 649 q 185 611 213 611 q 156 649 156 611 l 156 782 l 599 782 q 638 754 638 782 q 599 725 638 725 l 546 725 l 346 532 q 447 549 386 549 q 624 472 554 549 q 693 279 693 396 q 613 63 693 147 q 410 -21 533 -21 q 302 -4 356 -21 q 213 35 249 13 q 156 81 178 58 q 133 114 133 103 q 142 133 133 125 q 161 142 150 142 q 200 115 171 142 q 283 63 229 89 q 407 36 338 36 q 572 104 508 36 q 636 282 636 172 q 581 433 636 375 q 439 492 526 492 q 303 464 367 492 q 233 436 239 436 z "},"Ƹ":{"ha":833,"x_min":111,"x_max":671,"o":"m 571 436 q 533 450 560 436 q 463 478 507 464 q 365 492 418 492 q 223 433 278 492 q 168 282 168 375 q 232 104 168 172 q 397 36 296 36 q 521 63 467 36 q 604 115 575 89 q 643 142 633 142 q 663 133 654 142 q 671 114 671 125 q 649 81 671 103 q 591 35 626 58 q 502 -4 556 13 q 394 -21 449 -21 q 191 63 271 -21 q 111 279 111 147 q 181 472 111 396 q 357 549 250 549 q 458 532 418 549 l 258 725 l 206 725 q 167 754 167 725 q 206 782 167 782 l 649 782 l 649 649 q 619 611 649 611 q 592 649 592 611 l 592 725 l 338 725 l 588 485 q 597 464 597 475 q 591 446 597 456 q 571 436 585 436 z "},"ƹ":{"ha":833,"x_min":132,"x_max":607,"o":"m 506 235 q 475 244 488 235 q 454 263 463 253 q 422 283 446 274 q 361 292 399 292 q 251 229 296 292 q 206 81 206 167 q 257 -90 206 -15 q 378 -164 308 -164 q 469 -138 428 -164 q 538 -87 511 -112 q 581 -61 565 -61 q 598 -69 589 -61 q 607 -89 607 -76 q 597 -110 607 -100 q 541 -160 564 -142 q 472 -199 518 -178 q 378 -219 425 -219 q 213 -128 275 -219 q 150 81 150 -37 q 208 267 150 188 q 361 347 265 347 l 379 347 l 193 522 l 171 522 q 132 551 132 522 q 171 579 132 579 l 550 579 q 583 550 583 579 q 574 531 583 539 q 550 522 565 522 l 272 522 l 522 282 q 532 261 532 272 q 506 235 532 235 z "},"ƺ":{"ha":833,"x_min":122,"x_max":607,"o":"m 606 -144 q 526 -240 606 -201 q 365 -278 447 -278 q 248 -269 296 -278 q 161 -225 200 -260 q 122 -131 122 -190 q 189 -10 124 -47 q 347 28 254 28 q 408 34 379 28 q 467 56 436 40 q 515 106 497 72 q 533 189 533 140 q 494 272 533 251 q 378 292 456 292 q 317 283 340 292 q 285 263 293 274 q 264 244 276 253 q 233 235 251 235 q 207 261 207 235 q 217 282 207 272 l 467 522 l 189 522 q 165 531 174 522 q 156 550 156 539 q 189 579 156 579 l 568 579 q 607 551 607 579 q 568 522 607 522 l 546 522 l 360 347 q 452 342 415 347 q 523 321 489 336 q 573 273 557 306 q 589 189 589 240 q 578 119 589 154 q 542 50 567 85 q 467 -6 517 15 q 347 -28 417 -28 q 226 -53 274 -28 q 178 -129 178 -78 q 183 -164 178 -150 q 207 -192 189 -178 q 267 -215 225 -207 q 378 -222 310 -222 q 494 -192 440 -222 q 551 -137 547 -161 q 578 -117 554 -117 q 606 -144 606 -117 z "},"ƻ":{"ha":833,"x_min":117,"x_max":664,"o":"m 658 394 q 656 383 658 389 q 644 369 653 376 q 621 363 635 363 l 492 363 q 171 61 274 144 l 171 57 l 607 57 l 607 107 q 636 144 607 144 q 664 107 664 144 l 664 0 l 117 0 l 117 83 l 414 363 l 293 363 q 256 390 256 363 q 293 418 256 418 l 471 418 q 576 537 551 497 q 601 621 601 576 q 542 747 601 693 q 403 801 482 801 q 274 760 332 801 q 200 656 217 718 q 171 628 192 628 q 153 635 161 628 q 144 653 144 643 q 220 787 144 715 q 403 858 296 858 q 581 786 504 858 q 658 619 658 714 q 637 529 658 569 q 547 418 615 489 l 621 418 q 658 394 658 418 z "},"Ƽ":{"ha":833,"x_min":111,"x_max":693,"o":"m 439 492 q 342 478 385 492 q 272 449 299 464 q 233 435 246 435 q 207 465 207 435 l 207 725 l 144 725 q 120 733 129 725 q 111 753 111 742 q 144 782 111 782 l 599 782 q 638 754 638 782 q 599 725 638 725 l 264 725 l 264 507 q 447 549 365 549 q 624 472 554 549 q 693 279 693 396 q 613 63 693 147 q 410 -21 533 -21 q 302 -4 356 -21 q 213 35 249 13 q 156 81 178 58 q 133 114 133 103 q 142 133 133 125 q 161 142 150 142 q 200 115 171 142 q 283 63 229 89 q 407 36 338 36 q 572 104 508 36 q 636 282 636 172 q 581 433 636 375 q 439 492 526 492 z "},"ƽ":{"ha":833,"x_min":132,"x_max":583,"o":"m 189 279 q 169 314 169 279 l 169 522 q 132 551 132 522 q 171 579 132 579 l 550 579 q 583 550 583 579 q 574 531 583 539 q 550 522 565 522 l 226 522 l 226 354 q 319 372 268 372 l 342 372 q 517 321 453 372 q 581 175 581 269 q 524 29 581 86 q 369 -28 468 -28 q 222 7 283 -28 q 160 75 160 42 q 169 96 160 88 q 189 104 179 104 q 215 85 199 104 q 269 47 231 67 q 369 28 307 28 q 487 67 449 28 q 525 175 525 107 q 483 283 525 250 q 342 317 440 317 q 264 307 297 317 q 213 288 231 297 q 189 279 194 279 z "}}}
